<svg width="402" height="223" viewBox="0 0 402 223" fill="none" xmlns="http://www.w3.org/2000/svg">
<path d="M401 220.403C384.499 218.366 368.014 216.329 351.513 214.292C351.402 216.122 351.274 217.952 351.163 219.766C321.36 219.957 291.556 220.148 261.769 220.355C261.912 219.098 262.071 217.825 262.214 216.568C232.49 217.507 202.75 218.446 173.026 219.384C171.578 218.366 170.13 217.364 168.682 216.345C128.329 216.488 87.9599 216.632 47.6067 216.775C32.0764 201.833 16.5303 186.876 1 171.934L2.82984 123.911L9.33796 126.076L10.4518 108.715L5.2963 104.435L7.98546 40.5636H15.3527L17.9306 6.97301C35.2589 7.02075 52.5872 7.06843 69.9156 7.11617C81.9611 5.60451 94.0066 4.10882 106.068 2.59717L118.67 15.6451L143.716 16.934L153.884 29.2341L184.929 23.1874L186.233 8.35736L238.25 6.11369L252.094 19.9572C263.026 20.7051 273.973 21.453 284.905 22.1849C284.746 15.8837 284.603 9.5825 284.443 3.28128L337.51 3.56779C344.321 8.2937 351.131 13.0037 357.958 17.7297C371.69 31.0004 385.422 44.271 399.154 57.5417C399.775 111.834 400.395 166.111 401 220.403Z" fill="black"/>
<path d="M349.539 132.138C351.671 134.143 353.819 136.164 355.951 138.168L355.919 139.171C356.365 139.585 356.811 139.998 357.256 140.412C357.256 140.874 357.256 141.351 357.24 141.812C357.24 142.64 357.208 143.451 357.177 144.263C355.729 142.258 354.281 140.269 352.817 138.264C352.769 142.083 352.721 145.886 352.705 149.721C355.235 152.012 357.765 154.303 360.311 156.611L360.614 160.461C356.858 157.279 353.103 154.081 349.332 150.866L349.523 132.122L349.539 132.138Z" fill="#24AF52"/>
<path d="M370.18 163.994C372.105 166.126 374.062 168.274 375.988 170.407L376.529 174.21L370.227 168.704C370.212 167.145 370.212 165.569 370.18 163.994Z" fill="#24AF52"/>
<path d="M373.778 155.863C375.83 157.804 377.867 159.762 379.92 161.735C380.158 166.588 380.413 171.441 380.652 176.31C380.015 176.549 379.363 176.788 378.726 177.01C377.994 176.374 377.262 175.737 376.53 175.101C376.355 173.828 376.164 172.571 375.989 171.298C376.34 171.696 376.705 172.078 377.055 172.475C376.801 168.879 376.562 165.315 376.292 161.703C375.655 161.082 374.987 160.462 374.335 159.841L373.762 155.847L373.778 155.863Z" fill="#24AF52"/>
<path d="M379.508 61.2652C379.508 61.838 379.365 74.7905 379.365 75.3793C379.365 76.0953 379.206 90.4798 379.206 91.1959C377.662 89.7001 376.087 88.1886 374.543 86.6928L374.337 85.2925C374.687 83.3672 375.068 81.4736 375.45 79.5483C375.403 72.8652 375.387 66.2139 375.339 59.5149C373.382 57.7964 371.425 56.0779 369.467 54.3435L368.895 50.588C371.743 52.9907 374.591 55.3776 377.455 57.7803C378.028 58.7351 378.601 59.6899 379.174 60.6446C379.301 60.8515 379.413 61.0583 379.54 61.2652H379.508Z" fill="#24AF52"/>
<path d="M373.57 86.3268C373.634 86.0086 373.682 85.6426 373.761 85.3243L373.968 86.7246C373.825 86.5814 373.714 86.47 373.57 86.3268Z" fill="#24AF52"/>
<path d="M369.978 55.6802C368.912 54.7413 367.862 53.8184 366.812 52.8955C367.146 57.2555 367.48 61.6313 367.83 66.0071L361.386 60.4697L360.797 56.3167C361.704 57.1123 362.579 57.9237 363.486 58.7511C363.104 54.5025 362.722 50.2699 362.34 46.0214C364.695 47.9945 367.05 49.9996 369.405 51.9408L369.978 55.6961V55.6802Z" fill="#24AF52"/>
<path d="M352.313 47.7719C355.113 50.3019 357.946 52.8477 360.778 55.4255L361.367 59.5786C358.439 57.0644 355.543 54.5663 352.631 52.0521L352.297 47.7719H352.313Z" fill="#24AF52"/>
<path d="M348.639 33.387C349.514 34.3577 350.406 35.3284 351.249 36.2513L351.869 44.1755V44.43C351.869 45.6711 351.869 46.9124 351.854 48.1217C351.965 48.2172 352.092 48.3285 352.204 48.4558L352.538 52.7363L348.496 49.2673C348.544 43.9845 348.592 38.6698 348.639 33.3711V33.387Z" fill="#24AF52"/>
<path d="M350.832 35.026C352.598 36.9673 354.349 38.9086 356.115 40.8181C356.131 42.4093 356.131 43.9845 356.131 45.528C354.587 43.8254 353.044 42.0909 351.469 40.3406C351.469 41.2158 351.469 42.075 351.453 42.9343L350.832 35.026Z" fill="#24AF52"/>
<path d="M379.536 146.189C379.536 146.937 379.567 147.669 379.567 148.416C378.438 148.114 377.324 147.812 376.194 147.493C375.048 146.443 373.903 145.409 372.773 144.359L372.152 139.999C374.603 142.051 377.085 144.136 379.536 146.189Z" fill="#24AF52"/>
<path d="M378.896 94.7282C378.944 96.3353 378.992 97.9583 379.055 99.5813C378.085 98.6743 377.082 97.7196 376.112 96.7807L375.332 91.7524C376.525 92.7231 377.719 93.7257 378.896 94.7282Z" fill="#24AF52"/>
<path d="M349.207 68.6483C350.735 70.0486 352.247 71.4489 353.774 72.8492C357.132 75.9361 360.505 79.0549 363.863 82.1737L364.165 82.444L364.706 86.3108L349.669 73.406C349.51 71.8148 349.335 70.2236 349.191 68.6483H349.207Z" fill="#24AF52"/>
<path d="M368.945 116.497L375.31 122.066L378.477 133.507L375.915 139.108L371.65 135.448L371.125 131.931L373.464 133.936L374.976 130.563L372.907 123.021L369.439 119.997L368.945 116.497Z" fill="#24AF52"/>
<path d="M350.02 99.9955L356.258 105.438L356.513 108.731L349.973 103.019L350.02 99.9955Z" fill="#24AF52"/>
<path d="M349.893 54.3909L352.375 56.5392L352.661 60.3579C352.359 61.1217 352.041 61.8537 351.707 62.5857C352.009 63.7313 352.295 64.8771 352.582 66.0068C352.773 66.1978 352.932 66.3409 353.123 66.5L353.377 69.7939L349.67 66.6115L348.047 58.6395L349.877 54.4068L349.893 54.3909Z" fill="#24AF52"/>
<path d="M377.219 102.812L378.762 105.024V112.661L377.219 102.812Z" fill="#24AF52"/>
<path d="M354.222 79.7391L354.381 79.8823L354.779 85.1493C353.538 85.0379 352.328 84.9424 351.119 84.8628C351.517 87.8702 351.946 90.8777 352.376 93.9169C353.49 94.8717 354.588 95.8422 355.702 96.7969L355.94 100.075L348.016 93.2008L347.762 80.837L354.206 79.7391H354.222Z" fill="#24AF52"/>
<path d="M354.001 114.889C353.746 117.356 353.508 119.854 353.237 122.32C354.813 123.625 356.372 124.946 357.947 126.266L358.234 129.704L353.237 125.407C353.444 128.287 353.667 131.183 353.906 134.095C352.553 132.934 351.2 131.788 349.832 130.626V111.261C351.216 112.471 352.585 113.68 354.001 114.889Z" fill="#24AF52"/>
<path d="M372.167 139.107L372.788 143.467C370.719 141.542 368.666 139.664 366.63 137.802L358.228 130.594L357.941 127.157C362.683 131.119 367.441 135.113 372.167 139.107Z" fill="#24AF52"/>
<path d="M356.258 104.546L368.94 115.605L369.433 119.106L356.512 107.84L356.258 104.546Z" fill="#24AF52"/>
<path d="M355.734 97.7041C359.776 101.205 363.818 104.69 367.875 108.222L368.369 111.723L355.973 100.982L355.734 97.7041Z" fill="#24AF52"/>
<path d="M365.787 93.7263C363.035 91.244 360.266 88.7457 357.513 86.2634C356.606 86.1997 355.699 86.1361 354.808 86.0565L354.41 80.7897L365.262 89.8914L365.803 93.742L365.787 93.7263Z" fill="#24AF52"/>
<path d="M353.137 66.516C356.399 69.5075 359.677 72.5309 362.939 75.5542L363.336 78.3229L353.391 69.7781L353.137 66.5001V66.516Z" fill="#24AF52"/>
<path d="M352.371 55.6479L361.346 63.4609L361.823 66.8502C358.832 64.3042 355.808 61.7104 352.801 59.1326C352.753 59.2281 352.705 59.3555 352.658 59.4669L352.371 55.6479Z" fill="#24AF52"/>
<path d="M352.121 43.6501L352.455 47.676C352.344 47.5487 352.217 47.4533 352.105 47.3419C352.121 46.1326 352.121 44.8913 352.121 43.6501Z" fill="#24AF52"/>
<path d="M362.795 145.265C366.773 149.052 370.719 152.856 374.665 156.627L375.238 160.621C372.262 157.788 369.319 154.94 366.343 152.108C366.741 157.168 367.155 162.228 367.584 167.272C365.245 165.299 362.938 163.342 360.631 161.384L360.328 157.534C361.633 158.727 362.938 159.905 364.259 161.098C363.781 155.831 363.304 150.58 362.811 145.297L362.795 145.265Z" fill="#24AF52"/>
<path d="M357.562 119.392L371.12 131.04L371.645 134.556L357.753 122.622C357.706 121.556 357.642 120.474 357.562 119.392Z" fill="#24AF52"/>
<path d="M370.771 95.4126L377.215 104.594L378.759 114.443V121.604L368.368 112.598L367.875 109.097C370.166 111.054 372.474 113.059 374.749 115.048C374.495 111.595 374.224 108.127 373.97 104.674C372.856 102.764 371.726 100.87 370.596 98.9451C369.005 97.513 367.414 96.065 365.807 94.6329L365.266 90.7821L370.787 95.4285L370.771 95.4126Z" fill="#24AF52"/>
<path d="M375.338 92.644L376.118 97.6723C373.365 95.0945 370.628 92.5008 367.891 89.9071L364.725 87.186L364.184 83.3195C367.923 86.4382 371.631 89.5252 375.338 92.644Z" fill="#24AF52"/>
<path d="M361.348 63.4611L369.367 70.4625L371.675 78.864L369.813 82.9854L363.337 77.4319L362.939 74.6631C363.862 75.5383 364.801 76.3817 365.724 77.2409C366.44 76.7317 367.156 76.2545 367.888 75.7612C367.299 74.0109 366.726 72.2923 366.153 70.5579L361.825 66.8345L361.348 63.4452V63.4611Z" fill="#24AF52"/>
<path d="M357.21 139.219V139.824L356.605 139.314V138.71L357.21 139.219Z" fill="#24AF52"/>
<path d="M370.152 116.48V117.085L369.547 116.56V115.955L370.152 116.48Z" fill="#24AF52"/>
<path d="M377.52 148.432C378.204 149.084 378.872 149.721 379.557 150.373C379.557 149.896 379.588 149.418 379.588 148.941C378.888 148.766 378.204 148.591 377.504 148.432H377.52Z" fill="#24AF52"/>
<path d="M379.203 58.6714C379.171 59.0056 379.139 59.3398 379.107 59.6739C378.71 58.9579 378.312 58.2259 377.914 57.5099C378.344 57.9077 378.773 58.2896 379.203 58.6874V58.6714Z" fill="#24AF52"/>
<path d="M379.664 177.694C379.966 177.615 380.269 177.519 380.571 177.44C380.571 177.806 380.603 178.156 380.619 178.522C380.301 178.251 379.998 177.981 379.68 177.694H379.664Z" fill="#24AF52"/>
<path d="M47.7953 78.8167C47.7476 77.846 47.7157 76.8912 47.668 75.9205H66.508L47.7953 78.8167Z" fill="#24AF52"/>
<path d="M44.3415 80.6942C43.7368 97.0042 43.1321 113.33 42.5275 129.64L26.5039 130.738C27.1881 114.873 27.8724 99.0092 28.5566 83.1447L44.3415 80.6942Z" fill="#24AF52"/>
<path d="M42.5726 48.0901C42.1589 59.1332 41.7451 70.1761 41.3473 81.2192L25.5625 83.6538C26.0399 72.5948 26.5172 61.5519 26.9945 50.4929L42.5726 48.0742V48.0901Z" fill="#24AF52"/>
<path d="M69.0073 148.432C53.5884 148.687 38.1535 148.925 22.7188 149.18C22.9893 143.022 23.2439 136.88 23.5144 130.738L39.5379 129.64C39.4902 131.088 39.4266 132.536 39.3788 133.984C43.3251 133.49 47.2872 132.997 51.2334 132.504C51.1857 131.279 51.1379 130.069 51.0902 128.844L68.689 127.651C68.8004 134.588 68.8959 141.51 69.0073 148.432Z" fill="#24AF52"/>
<path d="M133.912 123.704C133.8 126.935 133.609 132.456 133.498 135.686C133.45 137.103 133.291 141.701 133.243 143.117C124.349 144.629 115.454 146.156 106.575 147.684C99.0005 147.684 91.4104 147.684 83.8362 147.684C83.7567 144.263 83.693 140.842 83.6134 137.421C83.5339 134 83.4702 130.578 83.3906 127.157L97.2978 126.219C97.6161 128.717 97.9503 131.199 98.2686 133.697C104.904 132.711 111.539 131.74 118.191 130.753C118.127 128.78 118.079 126.791 118.016 124.818L133.912 123.72V123.704Z" fill="#24AF52"/>
<path d="M176.113 146.841C172.278 147 168.444 147.159 164.609 147.318C157.257 147.621 149.922 147.939 142.57 148.241C142.873 139.426 143.191 130.611 143.493 121.795L158.673 120.761C158.546 124.071 158.403 127.381 158.276 130.69C162.19 130.197 166.104 129.688 170.019 129.194C170.019 126.123 170.019 123.068 169.987 119.997L186.313 118.883C186.392 125.98 186.488 133.077 186.567 140.174C183.083 142.386 179.582 144.613 176.097 146.825L176.113 146.841Z" fill="#24AF52"/>
<path d="M186.295 65.6571C180.487 65.9117 174.679 66.1503 168.887 66.4049V60.8675L186.04 58.2101C186.135 60.6924 186.215 63.1748 186.295 65.6571Z" fill="#24AF52"/>
<path d="M187.724 117.085L171.542 119.583C171.542 119.583 171.43 118.294 171.414 118.231C171.398 118.008 171.207 115.86 171.191 115.637C171.239 115.637 174.835 115.16 174.883 115.144C175.138 115.112 183.173 114.046 183.428 114.014C184.796 114.46 186.181 114.889 187.549 115.335C187.613 115.924 187.661 116.512 187.724 117.101V117.085Z" fill="#24AF52"/>
<path d="M221.556 20.1959C220.57 31.3344 219.599 42.457 218.613 53.5955L202.637 56.062C202.987 45.0349 203.337 33.9918 203.687 22.9646L221.556 20.1959Z" fill="#24AF52"/>
<path d="M217.66 18.1909C217.613 18.6046 217.597 19.0184 217.549 19.4321L199.68 22.2008C199.727 21.087 199.743 19.9572 199.791 18.8274C205.742 18.6206 211.709 18.4137 217.66 18.1909Z" fill="#24AF52"/>
<path d="M256.452 31.4141C251.678 37.588 246.905 43.762 242.131 49.9518L221.875 53.0865C227.333 45.4168 232.791 37.7789 238.265 30.1251C244.327 30.5548 250.39 30.9685 256.452 31.3982V31.4141Z" fill="#24AF52"/>
<path d="M209.603 117.849V146.952C203.652 147.143 197.701 147.35 191.766 147.525C192.068 138.01 192.37 128.51 192.673 118.995L209.603 117.833V117.849Z" fill="#24AF52"/>
<path d="M284.519 148.416C265.695 148.13 246.871 147.843 228.047 147.541C226.599 137.325 225.166 127.11 223.734 116.894L240.028 115.78C240.331 121.111 240.633 126.457 240.951 131.788C255.368 131.088 269.8 130.388 284.232 129.703C284.328 135.941 284.439 142.178 284.519 148.432V148.416Z" fill="#24AF52"/>
<path d="M336.9 110.068C336.581 121.27 336.279 132.472 335.961 143.674C334.402 143.929 332.858 144.184 331.299 144.438C331.187 145.727 331.076 147.016 330.98 148.321C319.015 148.13 307.049 147.939 295.083 147.748C294.717 136.164 294.335 124.58 293.969 112.996L310.39 111.882C310.485 117.435 310.581 122.989 310.677 128.542C313.827 128.479 316.994 128.415 320.144 128.335C320.144 122.623 320.144 116.926 320.144 111.214L336.9 110.068Z" fill="#24AF52"/>
<path d="M341.422 26.5608C341.407 29.8387 341.375 33.1167 341.359 36.3946L324.126 39.0677V32.8938C320.434 32.2732 316.743 31.6687 313.051 31.0481C313.099 34.2942 313.163 37.5243 313.21 40.7545L295.755 43.4595C295.452 34.1031 295.15 24.7468 294.848 15.3904C304.856 15.2631 314.865 15.1358 324.858 15.0085C330.364 18.8434 335.885 22.6941 341.407 26.5449L341.422 26.5608Z" fill="#24AF52"/>
<path d="M339.374 36.3945C339.215 60.947 339.071 85.5153 338.912 110.084L322.157 111.229C322.157 87.1703 322.157 63.1269 322.141 39.0677L339.374 36.3945Z" fill="#24AF52"/>
<path d="M282.821 113.744C282.662 116.003 282.519 118.263 282.344 120.522C271.905 121.573 261.483 122.639 251.06 123.689C250.806 121.111 250.567 118.533 250.312 115.956L282.805 113.744H282.821Z" fill="#24AF52"/>
<path d="M73.524 20.4506V43.4913L58.0256 45.8941C57.8824 41.7251 57.7392 37.5721 57.6119 33.419C54.7636 33.5463 51.9312 33.6736 49.083 33.785C48.9079 38.304 48.7488 42.839 48.5897 47.3581L33.0117 49.7768C33.4413 40.0067 33.855 30.2366 34.2847 20.4665H73.54L73.524 20.4506Z" fill="#24AF52"/>
<path d="M127.865 29.4569C127.579 31.3346 127.293 33.2121 127.022 35.1056L83.9956 41.7729C83.932 34.4533 83.8683 27.1336 83.8047 19.8141C88.4988 19.5595 93.1929 19.3208 97.8711 19.0822C98.4757 22.1691 99.0963 25.256 99.7169 28.327C109.105 28.693 118.477 29.0591 127.865 29.441V29.4569Z" fill="#24AF52"/>
<path d="M171.879 60.406V51.4793H164.48C164.336 54.8527 164.209 58.242 164.066 61.6154L148.504 64.0181C148.759 56.5076 149.029 48.981 149.284 41.4705C162.252 38.7495 175.22 36.0286 188.189 33.3235C188.475 41.4546 188.762 49.6018 189.032 57.7329L171.879 60.3901V60.406Z" fill="#24AF52"/>
<path d="M69.518 45.3534V56.3963L54.3377 57.5103C54.2263 54.2642 54.115 51.0022 54.0195 47.7561L69.518 45.3534Z" fill="#24AF52"/>
<path d="M121.757 35.5671C121.232 39.02 120.102 46.4988 119.593 49.9517C119.211 52.4659 118.177 59.4193 117.795 61.9334C116.49 62.7927 115.17 63.6679 113.865 64.5271C110.237 64.7181 106.609 64.8933 102.981 65.0842C103.967 57.4305 104.954 49.7766 105.941 42.1229C101.994 41.9956 98.0323 41.8683 94.0861 41.741C94.277 52.068 94.4838 62.379 94.6589 72.6901L79.0172 75.1088C78.9217 64.1453 78.8103 53.1819 78.7148 42.2184L121.741 35.5511L121.757 35.5671Z" fill="#24AF52"/>
<path d="M243.023 115.542L226.729 116.656C226.203 113.028 225.694 109.384 225.185 105.756C221 103.019 216.799 100.298 212.599 97.5611V117.61L195.668 118.772C196.32 98.2136 196.973 77.6391 197.625 57.0647L213.601 54.5982C213.458 56.1417 213.33 57.6852 213.187 59.2287C214.413 57.5261 215.622 55.7917 216.863 54.0891L237.119 50.9545C229.625 60.6291 222.146 70.3355 214.651 80.0101C223.721 85.1815 232.791 90.3371 241.861 95.5085C242.243 102.192 242.625 108.859 243.007 115.542H243.023Z" fill="#24AF52"/>
<path d="M275.481 100.807C275.337 103.194 275.178 105.565 275.035 107.952C271.9 109.065 268.766 110.195 265.647 111.325V91.6416C272.314 90.9574 278.997 90.289 285.664 89.6048C285.442 76.3659 285.219 63.1271 284.98 49.9041C275.56 51.2089 266.14 52.5295 256.72 53.8343C254.174 56.8417 251.612 59.8333 249.066 62.8407C250.769 80.5191 252.472 98.1974 254.158 115.876C264.995 115.144 275.831 114.396 286.651 113.664C286.746 112.216 287.065 107.681 287.16 106.217C287.16 105.994 287.335 103.687 287.351 103.48C285.553 102.223 283.739 100.982 281.941 99.7249C279.777 100.091 277.629 100.441 275.465 100.807H275.481ZM264.358 69.4602C266.443 67.853 268.527 66.2299 270.596 64.6069C271.057 68.9986 271.519 73.3904 271.98 77.7822H264.024C264.135 75.0135 264.247 72.2289 264.358 69.4602Z" fill="#24AF52"/>
<path d="M312.415 111.882L295.993 112.996C295.245 89.8277 294.513 66.6276 293.766 43.4595L311.221 40.7545C311.619 64.4636 312.017 88.1727 312.415 111.882Z" fill="#24AF52"/>
<path d="M71.681 127.651L54.0822 128.844C53.4298 112.391 52.7774 95.9219 52.125 79.4687L70.8377 76.5728H70.8854C71.0286 85.6109 71.1718 94.6331 71.2991 103.655C71.4264 111.643 71.5537 119.647 71.6651 127.635L71.681 127.651Z" fill="#24AF52"/>
<path d="M97.2022 100.648C91.8875 101.635 86.5729 102.621 81.2742 103.608C81.1787 94.1082 81.0991 84.6086 81.0195 75.125L96.6612 72.7063C96.8362 82.0308 97.0113 91.3395 97.1863 100.648H97.2022Z" fill="#24AF52"/>
<path d="M135.537 74.1702C136.587 74.1384 137.653 74.0906 138.704 74.0587C138.099 90.496 137.51 106.918 136.905 123.355C131.607 123.721 126.308 124.087 121.009 124.453C120.962 123.211 120.93 121.986 120.898 120.745C113.976 122.098 107.07 123.466 100.148 124.819C100.196 125.169 100.244 125.519 100.292 125.869L86.3844 126.808C86.2889 121.795 86.1775 116.783 86.082 111.771C99.1777 109.543 112.273 107.331 125.353 105.103V87.6C122.028 87.4727 118.686 87.3454 115.345 87.2341C116.331 90.8461 117.302 94.4583 118.288 98.0703C114.867 98.2454 111.43 98.4363 108.009 98.6113C106.609 96.7973 105.193 94.9673 103.792 93.1533C103.57 86.9794 103.347 80.8057 103.124 74.6318C113.881 73.6293 124.637 72.6427 135.394 71.6403L135.505 74.1862L135.537 74.1702Z" fill="#24AF52"/>
<path d="M161.055 62.093C160.26 81.665 159.464 101.221 158.668 120.777L143.488 121.811C144.157 102.701 144.825 83.6061 145.493 64.5115L161.055 62.1089V62.093Z" fill="#24AF52"/>
<path d="M72.5847 130.42H70.707V132.297H72.5847V130.42Z" fill="#24AF52"/>
<path d="M222.288 16.3612H220.824V17.825H222.288V16.3612Z" fill="#24AF52"/>
<path d="M30.327 45.1941H28.2266V47.2944H30.327V45.1941Z" fill="#24AF52"/>
<path d="M114.484 65.6093C115.439 64.9887 116.394 64.384 117.349 63.7634C117.237 64.3999 117.126 65.0365 117.014 65.673C116.171 65.6412 115.328 65.6252 114.484 65.5934V65.6093Z" fill="#24AF52"/>
<path d="M104.555 97.1312C104.571 98.436 104.602 99.741 104.618 101.046C105.478 100.918 106.337 100.791 107.212 100.664C106.321 99.4864 105.446 98.3087 104.555 97.1312Z" fill="#24AF52"/>
<path d="M106.574 147.668C116.137 147.732 125.701 147.811 135.264 147.875C135.232 146.904 135.2 145.934 135.168 144.963C125.637 145.87 116.106 146.777 106.574 147.668Z" fill="#24AF52"/>
<path d="M186.309 113.903C187.263 114.253 188.202 114.619 189.157 114.969C189.125 114.523 189.093 114.094 189.046 113.648C188.139 113.728 187.216 113.807 186.309 113.903Z" fill="#24AF52"/>
<path d="M252.077 55.6799C250.501 57.4144 248.926 59.1488 247.351 60.8832C247.224 59.2761 247.08 57.6689 246.953 56.0618C248.656 55.9345 250.374 55.8072 252.077 55.6799Z" fill="#24AF52"/>
<path d="M285.715 100.855L288.961 103.114C288.977 102.271 288.993 101.443 289.009 100.6C287.911 100.68 286.813 100.759 285.715 100.855Z" fill="#24AF52"/>
<path d="M285.204 116.369C284.679 116.369 284.138 116.353 283.613 116.338V114.667C284.17 114.635 284.743 114.603 285.3 114.571L285.204 116.369Z" fill="#24AF52"/>
<path d="M137.682 73.0881C137.348 73.0881 137.014 73.0881 136.695 73.0722V72.0381C137.045 72.0222 137.396 72.0062 137.746 71.9744L137.682 73.1041V73.0881Z" fill="#24AF52"/>
<path d="M294.607 41.5503C294.081 41.598 293.556 41.6616 293.015 41.7094L292.809 40.0544C293.366 39.959 293.922 39.8636 294.463 39.7522L294.591 41.5503H294.607Z" fill="#24AF52"/>
<path d="M212.595 120.888C212.07 120.888 211.529 120.872 211.004 120.856V119.186C211.561 119.154 212.134 119.122 212.691 119.09L212.595 120.888Z" fill="#24AF52"/>
<path d="M332.434 145.472C332.354 146.554 332.29 147.652 332.211 148.734C333.675 148.814 335.123 148.878 336.587 148.957C336.73 147.652 336.889 146.332 337.032 145.027C335.505 145.17 333.961 145.329 332.434 145.472Z" fill="#24AF52"/>
<path d="M179.289 146.92C181.119 145.79 182.949 144.661 184.779 143.531V146.681C182.949 146.761 181.119 146.841 179.289 146.92Z" fill="#24AF52"/>
</svg>
