<svg width="402" height="223" viewBox="0 0 402 223" fill="none" xmlns="http://www.w3.org/2000/svg">
<path d="M401 220.403C384.499 218.366 368.014 216.329 351.513 214.292L351.163 219.766C321.36 219.957 291.556 220.148 261.769 220.355C261.912 219.098 262.071 217.825 262.214 216.568C232.49 217.507 202.75 218.446 173.026 219.384C171.578 218.366 170.13 217.364 168.682 216.345C128.329 216.488 87.9598 216.632 47.6066 216.775C32.0763 201.833 16.5303 186.876 1 171.934L2.82994 123.911L9.33796 126.076L10.4517 108.715L5.29621 104.435L7.98546 40.5636H15.3528L17.9306 6.97301C35.2589 7.02075 52.5871 7.06843 69.9155 7.11617C81.961 5.60451 94.0065 4.10882 106.068 2.59717L118.67 15.6451L143.716 16.934L153.884 29.2341L184.929 23.1874L186.233 8.35736L238.25 6.11369L252.094 19.9572C263.025 20.7051 273.973 21.453 284.905 22.1849C284.746 15.8837 284.603 9.5825 284.443 3.28128L337.51 3.56779C344.321 8.2937 351.131 13.0037 357.958 17.7297C371.69 31.0004 385.422 44.271 399.154 57.5417C399.775 111.834 400.395 166.111 401 220.403Z" fill="black"/>
<path d="M349.555 132.138C351.687 134.143 353.835 136.164 355.967 138.168L355.935 139.171C356.381 139.585 356.827 139.998 357.272 140.412C357.272 140.874 357.272 141.351 357.256 141.812C357.256 142.64 357.224 143.451 357.192 144.263C355.744 142.258 354.296 140.269 352.833 138.264C352.785 142.083 352.737 145.886 352.721 149.721C355.251 152.012 357.781 154.303 360.327 156.611L360.63 160.461C356.874 157.279 353.119 154.081 349.348 150.866L349.539 132.122L349.555 132.138Z" fill="white"/>
<path d="M370.191 163.994C372.117 166.126 374.074 168.274 375.999 170.407L376.54 174.21L370.239 168.704C370.223 167.145 370.223 165.569 370.191 163.994Z" fill="white"/>
<path d="M373.789 155.863C375.842 157.804 377.879 159.762 379.931 161.735C380.17 166.588 380.425 171.441 380.663 176.31C380.027 176.549 379.375 176.788 378.738 177.01C378.006 176.374 377.274 175.737 376.542 175.101C376.367 173.828 376.176 172.571 376.001 171.298C376.351 171.696 376.717 172.078 377.067 172.475C376.813 168.879 376.574 165.315 376.303 161.703C375.667 161.082 374.999 160.462 374.346 159.841L373.773 155.847L373.789 155.863Z" fill="white"/>
<path d="M379.5 61.2652C379.5 61.838 379.357 74.7905 379.357 75.3793C379.357 76.0953 379.198 90.4798 379.198 91.1959C377.654 89.7001 376.079 88.1886 374.536 86.6928L374.329 85.2925C374.679 83.3672 375.061 81.4736 375.443 79.5483C375.395 72.8652 375.379 66.2139 375.331 59.5149C373.374 57.7964 371.417 56.0779 369.46 54.3435L368.887 50.588C371.735 52.9907 374.583 55.3776 377.447 57.7803C378.02 58.7351 378.593 59.6899 379.166 60.6446C379.293 60.8515 379.405 61.0583 379.532 61.2652H379.5Z" fill="white"/>
<path d="M373.582 86.3268C373.646 86.0086 373.693 85.6426 373.773 85.3243L373.98 86.7246C373.837 86.5814 373.725 86.47 373.582 86.3268Z" fill="white"/>
<path d="M369.97 55.6802C368.904 54.7413 367.854 53.8184 366.804 52.8955C367.138 57.2555 367.472 61.6313 367.822 66.0071L361.378 60.4697L360.789 56.3167C361.696 57.1123 362.571 57.9237 363.478 58.7511C363.096 54.5025 362.714 50.2699 362.332 46.0214C364.687 47.9945 367.043 49.9996 369.398 51.9408L369.97 55.6961V55.6802Z" fill="white"/>
<path d="M352.328 47.7719C355.129 50.3019 357.961 52.8477 360.794 55.4255L361.383 59.5786C358.455 57.0644 355.559 54.5663 352.647 52.0521L352.312 47.7719H352.328Z" fill="white"/>
<path d="M348.651 33.387C349.526 34.3577 350.417 35.3284 351.261 36.2513L351.881 44.1755V44.43C351.881 45.6711 351.881 46.9124 351.865 48.1217C351.977 48.2172 352.104 48.3285 352.215 48.4558L352.549 52.7363L348.508 49.2673C348.556 43.9845 348.603 38.6698 348.651 33.3711V33.387Z" fill="white"/>
<path d="M350.832 35.026C352.598 36.9673 354.349 38.9086 356.115 40.8181C356.131 42.4093 356.131 43.9845 356.131 45.528C354.587 43.8254 353.044 42.0909 351.469 40.3406C351.469 41.2158 351.469 42.075 351.453 42.9343L350.832 35.026Z" fill="white"/>
<path d="M379.551 146.189C379.551 146.937 379.583 147.669 379.583 148.416C378.453 148.114 377.339 147.812 376.21 147.493C375.064 146.443 373.918 145.409 372.789 144.359L372.168 139.999C374.618 142.051 377.101 144.136 379.551 146.189Z" fill="white"/>
<path d="M378.912 94.7282C378.96 96.3353 379.007 97.9583 379.071 99.5813C378.1 98.6743 377.098 97.7196 376.127 96.7807L375.348 91.7524C376.541 92.7231 377.734 93.7257 378.912 94.7282Z" fill="white"/>
<path d="M349.219 68.6484C350.747 70.0487 352.258 71.449 353.786 72.8493C357.143 75.9362 360.517 79.055 363.874 82.1738L364.177 82.4442L364.717 86.3109L349.681 73.4062C349.521 71.8149 349.346 70.2237 349.203 68.6484H349.219Z" fill="white"/>
<path d="M368.938 116.497L375.318 122.066L378.485 133.507L375.907 139.108L371.658 135.448L371.133 131.931L373.457 133.936L374.984 130.563L372.916 123.021L369.447 119.997L368.938 116.497Z" fill="white"/>
<path d="M350.032 99.9955L356.254 105.438L356.524 108.731L349.984 103.019L350.032 99.9955Z" fill="white"/>
<path d="M349.904 54.3909L352.387 56.5392L352.673 60.3579C352.371 61.1217 352.052 61.8537 351.718 62.5857C352.021 63.7313 352.307 64.8771 352.594 66.0068C352.784 66.1978 352.944 66.3409 353.134 66.5L353.389 69.7939L349.682 66.6115L348.059 58.6395L349.889 54.4068L349.904 54.3909Z" fill="white"/>
<path d="M377.23 102.812L378.774 105.024V112.661L377.23 102.812Z" fill="white"/>
<path d="M354.234 79.7391L354.393 79.8823L354.791 85.1493C353.55 85.0379 352.34 84.9424 351.131 84.8628C351.529 87.8702 351.958 90.8777 352.388 93.9169C353.502 94.8717 354.6 95.8422 355.714 96.7969L355.952 100.075L348.028 93.2008L347.773 80.837L354.218 79.7391H354.234Z" fill="white"/>
<path d="M353.993 114.889C353.739 117.356 353.5 119.854 353.229 122.32C354.805 123.625 356.364 124.946 357.939 126.266L358.226 129.704L353.229 125.407C353.436 128.287 353.659 131.183 353.898 134.095C352.545 132.934 351.193 131.788 349.824 130.626V111.261C351.209 112.471 352.577 113.68 353.993 114.889Z" fill="white"/>
<path d="M372.179 139.107L372.799 143.467C370.731 141.542 368.678 139.664 366.641 137.802L358.24 130.594L357.953 127.157C362.695 131.119 367.453 135.113 372.179 139.107Z" fill="white"/>
<path d="M356.258 104.546L368.94 115.605L369.449 119.106L356.528 107.84L356.258 104.546Z" fill="white"/>
<path d="M355.73 97.7041C359.772 101.205 363.814 104.69 367.871 108.222L368.365 111.723L355.969 100.982L355.73 97.7041Z" fill="white"/>
<path d="M365.803 93.7263C363.05 91.244 360.281 88.7457 357.529 86.2634C356.622 86.1997 355.715 86.1361 354.824 86.0565L354.426 80.7897L365.278 89.8914L365.819 93.742L365.803 93.7263Z" fill="white"/>
<path d="M353.137 66.516C356.399 69.5075 359.677 72.5309 362.939 75.5542L363.336 78.3229L353.391 69.7781L353.137 66.5001V66.516Z" fill="white"/>
<path d="M352.387 55.6479L361.361 63.4609L361.839 66.8502C358.847 64.3042 355.824 61.7104 352.816 59.1326C352.769 59.2281 352.721 59.3555 352.673 59.4669L352.387 55.6479Z" fill="white"/>
<path d="M352.133 43.6501L352.467 47.676C352.356 47.5487 352.229 47.4533 352.117 47.3419C352.133 46.1326 352.133 44.8913 352.133 43.6501Z" fill="white"/>
<path d="M362.806 145.265C366.784 149.052 370.731 152.856 374.677 156.627L375.25 160.621C372.274 157.788 369.33 154.94 366.355 152.108C366.752 157.168 367.166 162.228 367.596 167.272C365.257 165.299 362.95 163.342 360.642 161.384L360.34 157.534C361.645 158.727 362.949 159.905 364.27 161.098C363.793 155.831 363.316 150.58 362.822 145.297L362.806 145.265Z" fill="white"/>
<path d="M357.574 119.392L371.131 131.04L371.656 134.556L357.765 122.622C357.717 121.556 357.654 120.474 357.574 119.392Z" fill="white"/>
<path d="M370.764 95.4126L377.208 104.594L378.751 114.443V121.604L368.361 112.598L367.867 109.097C370.159 111.054 372.466 113.059 374.742 115.048C374.487 111.595 374.217 108.127 373.962 104.674C372.848 102.764 371.718 100.87 370.589 98.9451C368.997 97.513 367.406 96.065 365.799 94.6329L365.258 90.7821L370.779 95.4285L370.764 95.4126Z" fill="white"/>
<path d="M375.35 92.644L376.129 97.6723C373.377 95.0945 370.64 92.5008 367.903 89.9071L364.736 87.186L364.195 83.3195C367.935 86.4382 371.642 89.5252 375.35 92.644Z" fill="white"/>
<path d="M361.348 63.4611L369.367 70.4625L371.675 78.864L369.813 82.9854L363.337 77.4319L362.939 74.6631C363.862 75.5383 364.801 76.3817 365.724 77.2409C366.44 76.7317 367.156 76.2545 367.888 75.7612C367.299 74.0109 366.726 72.2923 366.153 70.5579L361.825 66.8345L361.348 63.4452V63.4611Z" fill="white"/>
<path d="M357.206 139.219V139.824L356.617 139.314V138.71L357.206 139.219Z" fill="white"/>
<path d="M370.163 116.48V117.085L369.559 116.56V115.955L370.163 116.48Z" fill="white"/>
<path d="M377.532 148.432C378.216 149.084 378.884 149.721 379.568 150.373C379.568 149.896 379.6 149.418 379.6 148.941C378.9 148.766 378.216 148.591 377.516 148.432H377.532Z" fill="white"/>
<path d="M379.215 58.6714C379.183 59.0056 379.151 59.3398 379.119 59.6739C378.721 58.9579 378.324 58.2259 377.926 57.5099C378.355 57.9077 378.785 58.2896 379.215 58.6874V58.6714Z" fill="white"/>
<path d="M379.68 177.694C379.982 177.615 380.284 177.519 380.587 177.44C380.587 177.806 380.618 178.156 380.634 178.522C380.316 178.251 380.014 177.981 379.696 177.694H379.68Z" fill="white"/>
<path d="M47.7991 78.8167C47.7514 77.846 47.7196 76.8912 47.6719 75.9205H66.5118L47.7991 78.8167Z" fill="white"/>
<path d="M44.3611 80.6942C43.7564 97.0042 43.1518 113.33 42.5471 129.64L26.5234 130.738C27.2077 114.873 27.8919 99.0092 28.5762 83.1447L44.3611 80.6942Z" fill="white"/>
<path d="M42.5922 48.0901C42.1785 59.1332 41.7648 70.1761 41.367 81.2192L25.582 83.6538C26.0594 72.5948 26.5368 61.5519 27.0142 50.4929L42.5922 48.0742V48.0901Z" fill="white"/>
<path d="M69.023 148.432C53.6041 148.687 38.1692 148.925 22.7344 149.18C23.0049 143.022 23.2595 136.88 23.53 130.738L39.5536 129.64C39.5059 131.088 39.4423 132.536 39.3946 133.984C43.3408 133.49 47.3028 132.997 51.249 132.504C51.2013 131.279 51.1536 130.069 51.1059 128.844L68.7046 127.651C68.816 134.588 68.9116 141.51 69.023 148.432Z" fill="white"/>
<path d="M133.927 123.704C133.816 126.935 133.625 132.456 133.514 135.686C133.466 137.103 133.307 141.701 133.259 143.117C124.364 144.629 115.469 146.156 106.59 147.684C99.0162 147.684 91.426 147.684 83.8518 147.684C83.7723 144.263 83.7086 140.842 83.629 137.421C83.5495 134 83.4858 130.578 83.4062 127.157L97.3135 126.219C97.6317 128.717 97.966 131.199 98.2843 133.697C104.92 132.711 111.555 131.74 118.206 130.753C118.142 128.78 118.095 126.791 118.031 124.818L133.927 123.72V123.704Z" fill="white"/>
<path d="M176.129 146.841C172.294 147 168.459 147.159 164.624 147.318C157.273 147.621 149.937 147.939 142.586 148.241C142.888 139.426 143.206 130.611 143.509 121.795L158.689 120.761C158.562 124.071 158.419 127.381 158.291 130.69C162.206 130.197 166.12 129.688 170.034 129.194C170.034 126.123 170.034 123.068 170.003 119.997L186.328 118.883C186.408 125.98 186.504 133.077 186.583 140.174C183.098 142.386 179.598 144.613 176.113 146.825L176.129 146.841Z" fill="white"/>
<path d="M186.314 65.6571C180.506 65.9117 174.698 66.1503 168.906 66.4049V60.8675L186.059 58.2101C186.155 60.6924 186.235 63.1748 186.314 65.6571Z" fill="white"/>
<path d="M187.744 117.085L171.561 119.583C171.561 119.583 171.45 118.294 171.434 118.231C171.418 118.008 171.227 115.86 171.211 115.637C171.259 115.637 174.855 115.16 174.902 115.144C175.157 115.112 183.193 114.046 183.447 114.014C184.816 114.46 186.2 114.889 187.569 115.335C187.632 115.924 187.68 116.512 187.744 117.101V117.085Z" fill="white"/>
<path d="M221.576 20.1959C220.589 31.3344 219.619 42.457 218.632 53.5955L202.656 56.062C203.006 45.0349 203.356 33.9918 203.707 22.9646L221.576 20.1959Z" fill="white"/>
<path d="M217.676 18.1909C217.628 18.6046 217.612 19.0184 217.565 19.4321L199.695 22.2008C199.743 21.087 199.759 19.9572 199.807 18.8274C205.758 18.6206 211.725 18.4137 217.676 18.1909Z" fill="white"/>
<path d="M256.472 31.4141C251.698 37.588 246.924 43.762 242.151 49.9518L221.895 53.0865C227.352 45.4168 232.81 37.7789 238.284 30.1251C244.347 30.5548 250.409 30.9685 256.472 31.3982V31.4141Z" fill="white"/>
<path d="M209.623 117.849V146.952C203.671 147.143 197.72 147.35 191.785 147.525C192.087 138.01 192.39 128.51 192.692 118.995L209.623 117.833V117.849Z" fill="white"/>
<path d="M284.534 148.416C265.71 148.13 246.886 147.843 228.062 147.541C226.614 137.325 225.182 127.11 223.75 116.894L240.044 115.78C240.346 121.111 240.649 126.457 240.967 131.788C255.383 131.088 269.816 130.388 284.248 129.703C284.344 135.941 284.455 142.178 284.534 148.432V148.416Z" fill="white"/>
<path d="M336.919 110.068C336.601 121.27 336.299 132.472 335.981 143.674C334.421 143.929 332.878 144.184 331.318 144.438C331.207 145.727 331.095 147.016 331 148.321C319.034 148.13 307.068 147.939 295.102 147.748C294.736 136.164 294.354 124.58 293.988 112.996L310.41 111.882C310.505 117.435 310.601 122.989 310.696 128.542C313.847 128.479 317.013 128.415 320.164 128.335C320.164 122.623 320.164 116.926 320.164 111.214L336.919 110.068Z" fill="white"/>
<path d="M341.442 26.5608C341.426 29.8387 341.394 33.1167 341.378 36.3946L324.146 39.0677V32.8938C320.454 32.2732 316.762 31.6687 313.071 31.0481C313.119 34.2942 313.182 37.5243 313.23 40.7545L295.774 43.4595C295.472 34.1031 295.17 24.7468 294.867 15.3904C304.876 15.2631 314.885 15.1358 324.878 15.0085C330.383 18.8434 335.905 22.6941 341.426 26.5449L341.442 26.5608Z" fill="white"/>
<path d="M339.374 36.3945C339.215 60.947 339.071 85.5153 338.912 110.084L322.157 111.229C322.157 87.1703 322.157 63.1269 322.141 39.0677L339.374 36.3945Z" fill="white"/>
<path d="M282.837 113.744C282.678 116.003 282.534 118.263 282.359 120.522C271.921 121.573 261.498 122.639 251.076 123.689C250.821 121.111 250.583 118.533 250.328 115.956L282.821 113.744H282.837Z" fill="white"/>
<path d="M73.5436 20.4506V43.4913L58.0451 45.8941C57.9019 41.7251 57.7587 37.5721 57.6314 33.419C54.7831 33.5463 51.9508 33.6736 49.1025 33.785C48.9275 38.304 48.7682 42.839 48.6091 47.3581L33.0312 49.7768C33.4609 40.0067 33.8745 30.2366 34.3041 20.4665H73.5595L73.5436 20.4506Z" fill="white"/>
<path d="M127.885 29.4569C127.599 31.3346 127.312 33.2121 127.042 35.1056L84.0152 41.7729C83.9515 34.4533 83.8879 27.1336 83.8242 19.8141C88.5183 19.5595 93.2125 19.3208 97.8907 19.0822C98.4954 22.1691 99.1158 25.256 99.7364 28.327C109.125 28.693 118.497 29.0591 127.885 29.441V29.4569Z" fill="white"/>
<path d="M171.899 60.406V51.4793H164.499C164.356 54.8527 164.229 58.242 164.086 61.6154L148.523 64.0181C148.778 56.5076 149.049 48.981 149.303 41.4705C162.272 38.7495 175.24 36.0286 188.208 33.3235C188.495 41.4546 188.781 49.6018 189.052 57.7329L171.899 60.3901V60.406Z" fill="white"/>
<path d="M69.5375 45.3534V56.3963L54.3572 57.5103C54.2458 54.2642 54.1345 51.0022 54.0391 47.7561L69.5375 45.3534Z" fill="white"/>
<path d="M121.777 35.5671C121.252 39.02 120.122 46.4988 119.613 49.9517C119.231 52.4659 118.196 59.4193 117.815 61.9334C116.51 62.7927 115.189 63.6679 113.884 64.5271C110.256 64.7181 106.628 64.8933 103 65.0842C103.987 57.4305 104.974 49.7766 105.96 42.1229C102.014 41.9956 98.0518 41.8683 94.1056 41.741C94.2965 52.068 94.5034 62.379 94.6784 72.6901L79.0366 75.1088C78.9411 64.1453 78.8298 53.1819 78.7344 42.2184L121.761 35.5511L121.777 35.5671Z" fill="white"/>
<path d="M243.042 115.542L226.748 116.656C226.223 113.028 225.714 109.384 225.205 105.756C221.02 103.019 216.819 100.298 212.618 97.5611V117.61L195.688 118.772C196.34 98.2136 196.992 77.6391 197.645 57.0647L213.621 54.5982C213.477 56.1417 213.35 57.6852 213.207 59.2287C214.432 57.5261 215.641 55.7917 216.882 54.0891L237.139 50.9545C229.644 60.6291 222.165 70.3355 214.671 80.0101C223.741 85.1815 232.811 90.3371 241.881 95.5085C242.262 102.192 242.644 108.859 243.026 115.542H243.042Z" fill="white"/>
<path d="M275.5 100.807C275.357 103.194 275.198 105.565 275.055 107.952C271.92 109.065 268.785 110.195 265.666 111.325V91.6416C272.334 90.9574 279.017 90.289 285.684 89.6048C285.461 76.3659 285.238 63.1271 285 49.9041C275.58 51.2089 266.16 52.5295 256.74 53.8343C254.194 56.8417 251.632 59.8333 249.086 62.8407C250.789 80.5191 252.491 98.1974 254.178 115.876C265.014 115.144 275.85 114.396 286.67 113.664C286.766 112.216 287.084 107.681 287.18 106.217C287.18 105.994 287.355 103.687 287.371 103.48C285.573 102.223 283.759 100.982 281.961 99.7249C279.796 100.091 277.648 100.441 275.484 100.807H275.5ZM264.378 69.4602C266.462 67.853 268.547 66.2299 270.615 64.6069C271.077 68.9986 271.538 73.3904 271.999 77.7822H264.043C264.155 75.0135 264.266 72.2289 264.378 69.4602Z" fill="white"/>
<path d="M312.415 111.882L295.993 112.996C295.245 89.8277 294.513 66.6276 293.766 43.4595L311.221 40.7545C311.619 64.4636 312.017 88.1727 312.415 111.882Z" fill="white"/>
<path d="M71.7004 127.651L54.1017 128.844C53.4493 112.391 52.7969 95.9219 52.1445 79.4687L70.8573 76.5728H70.9048C71.0481 85.6109 71.1913 94.6331 71.3186 103.655C71.4459 111.643 71.5731 119.647 71.6845 127.635L71.7004 127.651Z" fill="white"/>
<path d="M97.2218 100.648C91.9071 101.635 86.5925 102.621 81.2937 103.608C81.1982 94.1082 81.1186 84.6086 81.0391 75.125L96.6808 72.7063C96.8559 82.0308 97.0308 91.3395 97.2059 100.648H97.2218Z" fill="white"/>
<path d="M135.553 74.1702C136.603 74.1384 137.669 74.0906 138.719 74.0587C138.114 90.496 137.526 106.918 136.921 123.355C131.622 123.721 126.324 124.087 121.025 124.453C120.977 123.211 120.945 121.986 120.913 120.745C113.992 122.098 107.086 123.466 100.164 124.819C100.212 125.169 100.259 125.519 100.307 125.869L86.3999 126.808C86.3044 121.795 86.1931 116.783 86.0977 111.771C99.1934 109.543 112.289 107.331 125.369 105.103V87.6C122.043 87.4727 118.702 87.3454 115.36 87.2341C116.347 90.8461 117.317 94.4583 118.304 98.0703C114.883 98.2454 111.446 98.4363 108.025 98.6113C106.624 96.7973 105.208 94.9673 103.808 93.1533C103.585 86.9794 103.362 80.8057 103.14 74.6318C113.896 73.6293 124.653 72.6427 135.409 71.6403C135.441 72.4836 135.489 73.3269 135.521 74.1862L135.553 74.1702Z" fill="white"/>
<path d="M161.075 62.093C160.279 81.665 159.484 101.221 158.688 120.777L143.508 121.811C144.176 102.701 144.844 83.6061 145.513 64.5115L161.075 62.1089V62.093Z" fill="white"/>
<path d="M72.6043 130.42H70.7266V132.297H72.6043V130.42Z" fill="white"/>
<path d="M222.308 16.3612H220.844V17.825H222.308V16.3612Z" fill="white"/>
<path d="M30.3425 45.1941H28.2422V47.2944H30.3425V45.1941Z" fill="white"/>
<path d="M114.504 65.6093C115.459 64.9887 116.413 64.384 117.368 63.7634C117.257 64.3999 117.145 65.0365 117.034 65.673C116.191 65.6412 115.347 65.6252 114.504 65.5934V65.6093Z" fill="white"/>
<path d="M104.57 97.1312C104.586 98.436 104.618 99.741 104.634 101.046C105.493 100.918 106.353 100.791 107.228 100.664C106.337 99.4864 105.461 98.3087 104.57 97.1312Z" fill="white"/>
<path d="M106.594 147.668C116.157 147.732 125.72 147.811 135.283 147.875C135.252 146.904 135.22 145.934 135.188 144.963C125.656 145.87 116.125 146.777 106.594 147.668Z" fill="white"/>
<path d="M186.328 113.903C187.283 114.253 188.222 114.619 189.176 114.969C189.145 114.523 189.113 114.094 189.065 113.648C188.158 113.728 187.235 113.807 186.328 113.903Z" fill="white"/>
<path d="M252.096 55.6799C250.521 57.4144 248.946 59.1488 247.37 60.8832C247.243 59.2761 247.1 57.6689 246.973 56.0618C248.675 55.9345 250.394 55.8072 252.096 55.6799Z" fill="white"/>
<path d="M285.734 100.855L288.981 103.114C288.996 102.271 289.012 101.443 289.028 100.6C287.93 100.68 286.832 100.759 285.734 100.855Z" fill="white"/>
<path d="M285.204 116.369C284.679 116.369 284.138 116.353 283.613 116.338V114.667C284.17 114.635 284.743 114.603 285.3 114.571L285.204 116.369Z" fill="white"/>
<path d="M137.701 73.0881C137.367 73.0881 137.033 73.0881 136.715 73.0722V72.0381C137.065 72.0222 137.415 72.0062 137.765 71.9744L137.701 73.1041V73.0881Z" fill="white"/>
<path d="M294.626 41.5503C294.101 41.598 293.576 41.6616 293.035 41.7094L292.828 40.0544C293.385 39.959 293.942 39.8636 294.483 39.7522L294.61 41.5503H294.626Z" fill="white"/>
<path d="M212.615 120.888C212.09 120.888 211.549 120.872 211.023 120.856V119.186C211.58 119.154 212.153 119.122 212.71 119.09L212.615 120.888Z" fill="white"/>
<path d="M332.449 145.472C332.37 146.554 332.306 147.652 332.227 148.734C333.69 148.814 335.138 148.878 336.602 148.957C336.746 147.652 336.905 146.332 337.048 145.027C335.52 145.17 333.977 145.329 332.449 145.472Z" fill="white"/>
<path d="M179.309 146.92C181.138 145.79 182.969 144.661 184.798 143.531V146.681C182.969 146.761 181.138 146.841 179.309 146.92Z" fill="white"/>
</svg>
