<svg width="355" height="324" viewBox="0 0 355 324" fill="none" xmlns="http://www.w3.org/2000/svg">
<path d="M328.587 282.498C328.342 291.076 328.043 299.654 327.798 308.231C258.032 312.806 188.266 317.408 118.527 321.983C118.446 310.655 118.363 299.3 118.281 287.971L328.615 282.471L328.587 282.498Z" fill="#1C6833"/>
<path d="M300.195 43.5449C311.85 51.9321 323.533 60.2921 335.187 68.6792C327.672 77.1209 320.183 85.5625 312.667 94.0041C248.838 103.263 185.007 112.549 121.178 121.807C121.096 112.195 121.015 102.228 120.933 92.6154C120.851 82.8939 120.769 73.1451 120.715 63.4237C180.542 56.8065 240.368 50.1893 300.167 43.5722L300.195 43.5449Z" fill="#1C6833"/>
<path d="M44.9646 39.7594L21.3555 43.1905C21.4372 36.2738 21.4905 29.3571 21.5722 22.4404C29.3603 28.2134 37.1765 33.9864 44.9646 39.7594Z" fill="#0F0F0F"/>
<path d="M126.651 287.998L71.5346 289.441C51.0841 277.432 30.6341 265.396 10.1836 253.387C10.5921 215.046 10.9724 176.704 11.3537 138.363L60.452 131.229L125.643 156.744C125.943 200.504 126.324 244.237 126.651 287.998Z" fill="black"/>
<path d="M40.0761 130.657C29.1565 132.073 18.2361 133.462 7.31641 134.878C7.37087 131.392 7.39821 127.879 7.42544 124.394C18.3179 126.49 29.1837 128.56 40.0761 130.657Z" fill="#0F0F0F"/>
<path d="M129.804 156.745L64.6133 131.23L129.56 121.808C129.614 133.435 129.695 145.09 129.804 156.718V156.745Z" fill="#0F0F0F"/>
<path d="M110.142 322.01C91.7068 311.144 73.2167 300.306 54.7812 289.441L109.898 287.998C109.979 299.326 110.061 310.682 110.142 322.01Z" fill="#0F0F0F"/>
<path d="M149.276 18.0305C115.074 22.9593 80.8989 27.8882 46.6967 32.7898C37.3564 26.0365 28.016 19.2559 18.6758 12.5026C55.1926 9.01704 91.7088 5.53148 128.253 2.0459C135.251 7.38319 142.278 12.6932 149.276 18.0305Z" fill="#24AF52"/>
<path d="M259.097 14.5165C229.551 17.9476 200.032 21.3515 170.487 24.7826C163.406 19.4181 156.354 14.0536 149.273 8.68906C180.235 6.45611 211.223 4.22318 242.185 1.99023C247.822 6.15659 253.46 10.3501 259.097 14.5165Z" fill="#24AF52"/>
<path d="M335.209 68.679C263.727 78.0465 192.246 87.4412 120.737 96.8087C95.467 78.1009 70.2236 59.366 44.9531 40.6582L256.075 9.99609C267.921 18.7917 286.356 32.4889 298.229 41.2846C307.787 48.3646 325.651 61.5989 335.209 68.679Z" fill="#24AF52"/>
<path d="M118.26 141.686C79.6735 133.87 41.0864 126.028 2.5 118.212C2.71785 95.3111 2.96293 72.437 3.18078 49.5357L39.6981 44.2256C64.9685 62.9333 90.2119 81.6683 115.482 100.376C116.408 114.128 117.334 127.907 118.26 141.658V141.686Z" fill="black"/>
<path d="M352.499 91.3896C350.974 141.304 349.422 191.164 347.897 241.079L139.307 157.942C139.171 146.315 139.09 134.66 139.062 123.032L352.499 91.4169V91.3896Z" fill="#1C6833"/>
<path d="M150.476 293.009C143.777 293.172 137.078 293.363 130.406 293.526C130.297 280.836 129.998 240.589 129.889 227.899C129.726 206.033 129.562 184.139 129.398 162.272C159.598 174.091 189.798 185.882 220.024 197.7C196.851 229.479 173.676 261.23 150.503 293.009H150.476Z" fill="#1C6833"/>
<path d="M234.376 195.794C212.047 224.632 189.689 253.442 167.359 282.28C228.52 280.728 289.654 279.176 350.815 277.623C351.115 265.696 351.388 253.742 351.688 241.814C312.584 226.483 273.48 211.152 234.376 195.821V195.794Z" fill="#1C6833"/>
<path d="M344.221 282.497H334.145V291.701H344.221V282.497Z" fill="#24AF52"/>
<path d="M334.777 75.8672C329.44 81.5585 324.103 87.2771 318.766 92.9684C324.076 92.2331 329.386 91.4978 334.696 90.7626C334.723 85.8065 334.751 80.8232 334.805 75.8672H334.777Z" fill="#24AF52"/>
</svg>
