<svg width="355" height="324" viewBox="0 0 355 324" fill="none" xmlns="http://www.w3.org/2000/svg">
<path d="M328.725 281.816C328.469 290.351 328.18 298.885 327.923 307.387C258.559 311.943 189.227 316.531 119.862 321.086C119.766 309.825 119.702 298.532 119.605 287.271L328.692 281.816H328.725Z" fill="#292826"/>
<path d="M300.493 44.2705C312.107 52.6122 323.69 60.9218 335.304 69.2635C327.828 77.6372 320.385 86.043 312.91 94.4168C249.449 103.625 185.988 112.865 122.559 122.073C122.463 112.512 122.398 102.598 122.302 93.0372C122.238 83.348 122.142 73.691 122.078 64.0018C181.561 57.4247 241.011 50.8476 300.493 44.2705Z" fill="#292826"/>
<path d="M46.75 40.4836L23.2969 43.8844C23.361 38.6549 23.3926 32.4307 23.5209 23.2549C31.253 28.9978 39.0179 34.7407 46.75 40.4836Z" fill="black"/>
<path d="M125.898 289.324L71.099 290.768C50.7582 278.833 30.4502 266.865 10.1094 254.898C10.5265 216.783 10.911 178.668 11.2639 140.553L60.0626 133.463L124.872 158.809C125.16 202.314 125.545 245.787 125.866 289.292L125.898 289.324Z" fill="black"/>
<path d="M41.8963 130.864C28.6459 132.564 18.0908 133.944 9.33203 135.067C9.3962 131.602 9.42841 128.105 9.46049 124.64C20.2726 126.725 31.0842 128.81 41.8963 130.864Z" fill="black"/>
<path d="M131.09 156.786L66.2812 131.441L130.865 122.072C130.929 135.836 130.993 147.033 131.122 156.786H131.09Z" fill="black"/>
<path d="M111.548 321.084C93.196 310.272 74.8439 299.524 56.4922 288.712L111.291 287.269C111.387 298.53 111.451 309.823 111.548 321.084Z" fill="black"/>
<path d="M150.438 18.892C116.43 23.8008 82.4533 28.6774 48.445 33.5862C39.1729 26.8487 29.8697 20.1433 20.5977 13.4058C56.916 9.94076 93.2013 6.47574 129.52 3.01074C136.482 8.30449 143.444 13.5983 150.438 18.892Z" fill="#787D80"/>
<path d="M259.618 15.3955C230.262 18.7963 200.906 22.1971 171.517 25.598C164.491 20.2721 157.464 14.9142 150.438 9.58838C181.238 7.37463 212.006 5.16087 242.806 2.91504C248.42 7.05379 254.003 11.2246 259.618 15.3634V15.3955Z" fill="#787D80"/>
<path d="M335.268 69.2308C264.204 78.5671 193.138 87.8712 122.074 97.2075C96.9525 78.5991 71.8314 59.9908 46.7422 41.3825L256.631 10.9033C268.406 19.6621 286.725 33.2654 298.532 41.9921C308.029 49.0504 325.771 62.2045 335.3 69.2308H335.268Z" fill="#787D80"/>
<path d="M117.583 143.857C79.2116 136.092 40.8717 128.296 2.5 120.532C2.72458 97.785 2.94904 75.0379 3.17362 52.2587L39.4601 46.9971C64.5813 65.6054 89.7025 84.2137 114.792 102.822C115.722 116.49 116.62 130.189 117.55 143.857H117.583Z" fill="black"/>
<path d="M352.499 91.8184C350.991 141.419 349.451 191.02 347.943 240.621L140.589 157.942C140.461 146.392 140.396 134.778 140.332 123.228L352.499 91.8184Z" fill="#292826"/>
<path d="M151.626 292.242L131.669 292.755C131.573 280.114 131.253 240.139 131.157 227.498C130.996 205.745 130.804 183.993 130.676 162.24C160.706 173.983 190.734 185.725 220.764 197.468C197.729 229.038 174.694 260.64 151.658 292.21L151.626 292.242Z" fill="#292826"/>
<path d="M235.038 195.607C212.836 224.258 190.635 252.94 168.434 281.591C229.232 280.051 290.028 278.511 350.826 276.971C351.115 265.1 351.404 253.229 351.692 241.358C312.807 226.119 273.956 210.879 235.071 195.607H235.038Z" fill="#292826"/>
<path d="M344.257 281.816H334.215V290.96H344.257V281.816Z" fill="#787D80"/>
<path d="M334.89 76.3857C329.596 82.0645 324.27 87.7111 318.977 93.3899C324.238 92.652 329.531 91.9141 334.793 91.2082L334.89 76.4178V76.3857Z" fill="#787D80"/>
</svg>
