<svg width="505" height="154" viewBox="0 0 505 154" fill="none" xmlns="http://www.w3.org/2000/svg">
<path d="M206.414 77.1179C206.379 76.2723 206.344 75.4501 206.309 74.6045H222.61L206.403 77.1179H206.414Z" fill="#EAEAEA"/>
<path d="M203.433 78.7266C202.916 92.8556 202.388 106.985 201.871 121.114L188 122.053C188.587 108.324 189.186 94.5821 189.773 80.8524L203.445 78.7266H203.433Z" fill="#EAEAEA"/>
<path d="M201.904 50.5156C201.552 60.0759 201.199 69.6363 200.835 79.1966L187.164 81.3106C187.575 71.7386 187.998 62.1665 188.397 52.6062L201.892 50.5156H201.904Z" fill="#EAEAEA"/>
<path d="M224.784 137.381C211.43 137.592 198.065 137.804 184.711 138.027C184.946 132.706 185.169 127.386 185.404 122.054L199.274 121.114C199.227 122.371 199.18 123.628 199.133 124.884C202.551 124.461 205.981 124.027 209.398 123.604C209.351 122.547 209.316 121.49 209.269 120.433L224.514 119.399C224.608 125.401 224.69 131.391 224.796 137.393L224.784 137.381Z" fill="#EAEAEA"/>
<path d="M280.984 115.981C280.89 118.777 280.725 123.569 280.62 126.352C280.573 127.574 280.444 131.555 280.397 132.777C272.704 134.092 264.999 135.407 257.306 136.723C250.741 136.723 244.175 136.723 237.622 136.723C237.563 133.763 237.493 130.803 237.434 127.832C237.375 124.872 237.305 121.913 237.246 118.941L249.285 118.131C249.566 120.292 249.848 122.441 250.13 124.602C255.885 123.757 261.617 122.899 267.372 122.054C267.325 120.339 267.278 118.624 267.219 116.909L280.984 115.97V115.981Z" fill="#EAEAEA"/>
<path d="M317.522 136.007C314.198 136.148 310.886 136.289 307.562 136.43C301.196 136.7 294.842 136.958 288.477 137.228C288.747 129.594 289.017 121.96 289.275 114.326L302.418 113.433C302.3 116.299 302.183 119.153 302.077 122.019C305.471 121.584 308.854 121.15 312.248 120.727C312.248 118.072 312.248 115.418 312.225 112.764L326.365 111.801C326.436 117.943 326.518 124.098 326.589 130.24C323.57 132.155 320.552 134.081 317.522 135.995V136.007Z" fill="#EAEAEA"/>
<path d="M326.326 65.7135C321.299 65.9249 316.273 66.1481 311.246 66.3596V61.5676L326.103 59.2656C326.185 61.4149 326.256 63.5642 326.326 65.7135Z" fill="#EAEAEA"/>
<path d="M327.575 110.238L313.563 112.399C313.563 112.399 313.469 111.284 313.457 111.225C313.446 111.037 313.281 109.17 313.258 108.97C313.293 108.97 316.417 108.559 316.452 108.547C316.664 108.524 323.64 107.596 323.852 107.572C325.038 107.948 326.236 108.336 327.422 108.712C327.469 109.217 327.516 109.722 327.575 110.238Z" fill="#EAEAEA"/>
<path d="M356.864 26.3564C356.019 35.999 355.162 45.6297 354.316 55.2722L340.48 57.4098C340.786 47.8613 341.091 38.3009 341.385 28.7524L356.853 26.3564H356.864Z" fill="#EAEAEA"/>
<path d="M353.496 24.6182C353.46 24.9705 353.437 25.3346 353.401 25.687L337.934 28.0829C337.969 27.1081 337.992 26.1333 338.027 25.1702C343.183 24.994 348.34 24.8061 353.496 24.6182Z" fill="#EAEAEA"/>
<path d="M387.07 36.0581C382.936 41.4138 378.802 46.7577 374.668 52.1016L357.133 54.8264C361.866 48.1906 366.588 41.5782 371.321 34.9541C376.571 35.3299 381.82 35.694 387.07 36.0581Z" fill="#EAEAEA"/>
<path d="M346.519 110.908V136.113C341.363 136.277 336.218 136.453 331.074 136.618C331.333 128.384 331.591 120.151 331.861 111.918L346.519 110.908Z" fill="#EAEAEA"/>
<path d="M411.375 137.38C395.073 137.134 378.783 136.875 362.481 136.617C361.236 127.773 359.991 118.929 358.746 110.085L372.852 109.122C373.122 113.738 373.38 118.365 373.65 122.981C386.135 122.37 398.631 121.771 411.128 121.172C411.21 126.575 411.304 131.978 411.375 137.38Z" fill="#EAEAEA"/>
<path d="M456.735 104.178C456.465 113.879 456.195 123.58 455.924 133.281C454.574 133.505 453.235 133.716 451.884 133.939C451.79 135.055 451.696 136.171 451.602 137.298C441.244 137.134 430.884 136.969 420.525 136.805C420.208 126.775 419.88 116.745 419.562 106.715L433.785 105.74C433.868 110.543 433.95 115.359 434.032 120.163C436.757 120.104 439.493 120.045 442.23 119.986C442.23 115.042 442.23 110.109 442.23 105.164L456.735 104.178Z" fill="#EAEAEA"/>
<path d="M460.644 31.865C460.633 34.7072 460.609 37.5377 460.597 40.38L445.681 42.6937V37.3498C442.487 36.8095 439.292 36.281 436.097 35.7525C436.144 38.5595 436.191 41.3548 436.238 44.1618L421.123 46.5107C420.864 38.4185 420.606 30.3029 420.348 22.2107C429.004 22.0932 437.671 21.9875 446.339 21.8818C451.107 25.2056 455.888 28.5411 460.668 31.8766L460.644 31.865Z" fill="#EAEAEA"/>
<path d="M458.869 40.3682C458.728 61.6263 458.599 82.8962 458.47 104.166L443.965 105.153C443.965 84.3291 443.965 63.5055 443.953 42.6819L458.869 40.3682Z" fill="#EAEAEA"/>
<path d="M409.907 107.349C409.766 109.31 409.636 111.26 409.495 113.221C400.464 114.125 391.432 115.053 382.412 115.958C382.2 113.726 381.977 111.495 381.766 109.263L409.907 107.349Z" fill="#EAEAEA"/>
<path d="M228.695 26.5684V46.5111L215.271 48.5899C215.153 44.9843 215.024 41.3786 214.907 37.7847C212.452 37.8904 209.986 37.9961 207.531 38.1018C207.378 42.0128 207.249 45.9356 207.096 49.8583L193.602 51.9489C193.977 43.4927 194.341 35.0246 194.706 26.5684H228.695Z" fill="#EAEAEA"/>
<path d="M275.745 34.3666C275.498 35.9991 275.252 37.62 275.005 39.2642L237.751 45.0427C237.704 38.7005 237.633 32.37 237.586 26.0278C241.65 25.8164 245.714 25.5932 249.765 25.3818C250.294 28.0479 250.834 30.7257 251.363 33.3918C259.49 33.7089 267.606 34.0377 275.733 34.3666H275.745Z" fill="#EAEAEA"/>
<path d="M313.857 61.18V53.4519H307.445C307.327 56.3763 307.21 59.3009 307.092 62.2371L293.621 64.3276C293.844 57.821 294.067 51.3143 294.302 44.8077C305.53 42.447 316.758 40.098 327.987 37.749C328.233 44.7842 328.48 51.8429 328.726 58.8781L313.869 61.18H313.857Z" fill="#EAEAEA"/>
<path d="M225.229 48.1436V57.7039L212.087 58.6669C211.993 55.8481 211.899 53.0411 211.805 50.2223L225.229 48.1436Z" fill="#EAEAEA"/>
<path d="M270.446 39.6631C270 42.658 269.013 49.1295 268.567 52.1244C268.238 54.2972 267.334 60.3223 267.005 62.5068C265.866 63.2585 264.738 64.0102 263.599 64.7501C260.463 64.9146 257.315 65.0672 254.18 65.2316C255.025 58.6075 255.883 51.9835 256.74 45.3594C253.322 45.2419 249.893 45.1479 246.475 45.0305C246.639 53.9683 246.815 62.8944 246.98 71.8205L233.438 73.9111C233.356 64.4213 233.262 54.9314 233.18 45.4416L270.435 39.6631H270.446Z" fill="#EAEAEA"/>
<path d="M375.458 108.9L361.353 109.863C360.906 106.715 360.46 103.568 360.014 100.42C356.384 98.0592 352.744 95.6867 349.115 93.326V110.685L334.457 111.695C335.021 93.8898 335.584 76.0846 336.16 58.2677L349.995 56.1301C349.878 57.469 349.76 58.8079 349.643 60.1351C350.7 58.6552 351.757 57.1636 352.826 55.6838L370.361 52.959C363.878 61.3448 357.394 69.7306 350.911 78.1164C358.769 82.5912 366.626 87.0661 374.472 91.5408C374.8 97.331 375.141 103.098 375.47 108.888L375.458 108.9Z" fill="#EAEAEA"/>
<path d="M403.551 96.1566C403.422 98.2119 403.293 100.279 403.163 102.334C400.45 103.309 397.737 104.284 395.036 105.259V88.217C400.814 87.6298 406.593 87.0425 412.371 86.4553C412.171 74.9923 411.984 63.5293 411.784 52.0781C403.621 53.2174 395.471 54.3449 387.308 55.4842C385.1 58.0798 382.892 60.6871 380.684 63.2828C382.152 78.5863 383.632 93.9015 385.1 109.205C394.484 108.571 403.856 107.925 413.24 107.291C413.322 106.034 413.605 102.099 413.687 100.843C413.698 100.655 413.839 98.6582 413.851 98.4703C412.289 97.3897 410.727 96.3092 409.165 95.2287C407.297 95.5458 405.43 95.8512 403.563 96.1683L403.551 96.1566ZM393.932 69.0142C395.729 67.6165 397.538 66.2189 399.335 64.8096C399.734 68.6149 400.133 72.4084 400.532 76.2138H393.638C393.732 73.8178 393.838 71.4101 393.932 69.0142Z" fill="#EAEAEA"/>
<path d="M435.524 105.729L421.301 106.703C420.655 86.6432 420.021 66.5596 419.375 46.4994L434.491 44.1504C434.831 64.6804 435.172 85.2104 435.524 105.729Z" fill="#EAEAEA"/>
<path d="M227.1 119.387L211.855 120.421C211.291 106.174 210.728 91.9162 210.164 77.6697L226.372 75.1562H226.419C226.536 82.9783 226.665 90.7886 226.783 98.6107C226.889 105.528 226.994 112.458 227.1 119.376V119.387Z" fill="#EAEAEA"/>
<path d="M249.191 96.0157C244.587 96.8731 239.995 97.7304 235.403 98.5761C235.321 90.3547 235.25 82.1333 235.191 73.9119L248.733 71.8213C248.886 79.89 249.038 87.9587 249.191 96.0157Z" fill="#EAEAEA"/>
<path d="M282.392 73.0889C283.308 73.0536 284.224 73.0184 285.14 72.9831C284.623 87.2061 284.107 101.441 283.59 115.664C278.998 115.981 274.417 116.298 269.825 116.603C269.79 115.535 269.754 114.466 269.731 113.385C263.741 114.56 257.751 115.746 251.773 116.909C251.82 117.214 251.855 117.52 251.891 117.813L239.852 118.624C239.77 114.29 239.676 109.944 239.582 105.61C250.916 103.684 262.25 101.77 273.595 99.8436V84.6928C270.706 84.5753 267.816 84.4813 264.939 84.3756C265.785 87.4998 266.642 90.6239 267.488 93.7598C264.516 93.9124 261.557 94.0769 258.585 94.2296C257.364 92.6558 256.154 91.0819 254.932 89.5081C254.744 84.1642 254.545 78.8204 254.357 73.4765C263.671 72.6191 272.984 71.75 282.298 70.8926L282.404 73.0889H282.392Z" fill="#EAEAEA"/>
<path d="M304.487 62.625C303.806 79.5611 303.113 96.5089 302.42 113.433L289.277 114.326C289.853 97.7891 290.429 81.2524 291.004 64.7156L304.475 62.625H304.487Z" fill="#EAEAEA"/>
<path d="M227.875 121.795H226.254V123.416H227.875V121.795Z" fill="#EAEAEA"/>
<path d="M357.499 23.0332H356.23V24.3017H357.499V23.0332Z" fill="#EAEAEA"/>
<path d="M191.289 48.002H189.469V49.8224H191.289V48.002Z" fill="#EAEAEA"/>
<path d="M264.164 65.6666C264.998 65.1381 265.82 64.6096 266.654 64.0693C266.56 64.6213 266.454 65.1733 266.36 65.7253C265.632 65.7018 264.904 65.6784 264.164 65.6666Z" fill="#EAEAEA"/>
<path d="M255.566 92.9736C255.59 94.1011 255.602 95.2287 255.625 96.3679C256.377 96.2622 257.117 96.1447 257.868 96.039C257.105 95.0172 256.342 93.9954 255.578 92.9736H255.566Z" fill="#EAEAEA"/>
<path d="M257.316 136.723C265.597 136.782 273.877 136.84 282.157 136.899C282.133 136.054 282.098 135.22 282.075 134.374C273.818 135.161 265.573 135.936 257.316 136.723Z" fill="#EAEAEA"/>
<path d="M326.352 107.478C327.174 107.783 327.996 108.089 328.806 108.406C328.771 108.03 328.748 107.642 328.712 107.267C327.925 107.337 327.138 107.408 326.34 107.478H326.352Z" fill="#EAEAEA"/>
<path d="M383.291 57.0811C381.929 58.5844 380.566 60.0878 379.204 61.5911C379.087 60.1935 378.969 58.8076 378.852 57.4099C380.331 57.3042 381.811 57.1868 383.291 57.0811Z" fill="#EAEAEA"/>
<path d="M412.418 96.1919C413.358 96.8496 414.285 97.4955 415.225 98.1532C415.237 97.4251 415.248 96.7086 415.272 95.9805C414.321 96.0509 413.369 96.1214 412.418 96.1919Z" fill="#EAEAEA"/>
<path d="M411.96 109.616C411.502 109.616 411.044 109.592 410.586 109.581V108.136C411.067 108.112 411.561 108.077 412.042 108.054L411.96 109.616Z" fill="#EAEAEA"/>
<path d="M284.248 72.1496C283.966 72.1496 283.673 72.1379 283.391 72.1261V71.2218C283.696 71.21 284.001 71.1865 284.295 71.1748L284.248 72.1496Z" fill="#EAEAEA"/>
<path d="M420.125 44.8433C419.667 44.8903 419.208 44.9372 418.75 44.9842L418.574 43.5513C419.056 43.4691 419.537 43.3752 420.007 43.293L420.113 44.8551L420.125 44.8433Z" fill="#EAEAEA"/>
<path d="M349.105 113.539C348.647 113.539 348.189 113.515 347.73 113.503V112.059C348.212 112.035 348.705 112 349.187 111.977L349.105 113.539Z" fill="#EAEAEA"/>
<path d="M452.856 134.82C452.797 135.76 452.727 136.711 452.668 137.651C453.936 137.709 455.193 137.78 456.462 137.839C456.591 136.699 456.72 135.572 456.849 134.433C455.522 134.562 454.195 134.691 452.868 134.82H452.856Z" fill="#EAEAEA"/>
<path d="M320.281 136.077C321.867 135.102 323.452 134.115 325.038 133.141V135.877C323.452 135.948 321.867 136.006 320.281 136.077Z" fill="#EAEAEA"/>
<path d="M471.95 118.143C474.052 118.319 476.154 118.483 478.245 118.659L478.21 119.669C478.644 119.705 479.079 119.728 479.525 119.763C479.525 120.233 479.513 120.691 479.502 121.161C479.49 121.983 479.466 122.805 479.443 123.616C478.022 122.864 476.589 122.148 475.168 121.396C475.121 125.178 475.074 128.971 475.05 132.753C477.528 132.871 480.03 132.988 482.532 133.105L482.837 136.629C479.149 136.676 475.45 136.699 471.762 136.723L471.95 118.143Z" fill="#EAEAEA"/>
<path d="M492.234 132.025C494.125 132.495 496.04 132.965 497.942 133.423L498.483 136.7L492.293 136.606C492.27 135.091 492.27 133.54 492.246 132.025H492.234Z" fill="#EAEAEA"/>
<path d="M495.758 121.009C497.766 121.197 499.775 121.385 501.783 121.596C502.018 126.165 502.264 130.722 502.499 135.291C501.865 136.066 501.243 136.829 500.609 137.604C499.892 137.604 499.176 137.593 498.459 137.581C498.283 136.489 498.095 135.396 497.919 134.304C498.271 134.398 498.624 134.468 498.976 134.562C498.718 131.239 498.483 127.95 498.224 124.626C497.59 124.556 496.944 124.509 496.31 124.438L495.746 120.997L495.758 121.009Z" fill="#EAEAEA"/>
<path d="M501.382 23.2449C501.382 23.8086 501.241 36.6575 501.241 37.2213C501.241 37.9377 501.089 52.1842 501.077 52.9006C499.562 52.7362 498.012 52.5718 496.497 52.4074L496.285 51.2211C496.637 49.0248 497.014 46.8521 497.389 44.6323C497.342 38.1139 497.319 31.5954 497.272 25.0418C495.346 25.0066 493.42 24.9596 491.493 24.9244L490.93 21.7181C493.725 21.6711 496.532 21.6241 499.327 21.5771C499.891 22.0352 500.455 22.4932 501.018 22.9395C501.136 23.0335 501.265 23.1392 501.382 23.2331V23.2449Z" fill="#EAEAEA"/>
<path d="M495.559 52.8648C495.629 52.489 495.676 52.0897 495.746 51.7139L495.958 52.9001C495.817 52.8766 495.7 52.8766 495.559 52.8532V52.8648Z" fill="#EAEAEA"/>
<path d="M492.012 25.8049C490.955 25.7814 489.933 25.7579 488.9 25.7344C489.229 29.7277 489.557 33.7562 489.91 37.7494H483.579L482.992 34.179C483.885 34.2025 484.742 34.2494 485.635 34.2964C485.259 30.4441 484.883 26.6036 484.507 22.7513C486.821 22.7043 489.135 22.6808 491.448 22.6104L492.012 25.8167V25.8049Z" fill="#EAEAEA"/>
<path d="M474.676 32.9219C477.436 33.0393 480.219 33.1568 482.991 33.2977L483.578 36.8681C480.701 36.8681 477.847 36.8682 475.005 36.8447L474.676 32.9219Z" fill="#EAEAEA"/>
<path d="M471.059 21.8936C471.928 22.105 472.785 22.3164 473.631 22.5043V22.5278L474.242 29.7744V30.0327C474.242 31.2424 474.242 32.4639 474.218 33.6737C474.336 33.6737 474.453 33.6737 474.57 33.6972L474.899 37.6199H470.93C470.977 32.3817 471.023 27.1318 471.07 21.8936H471.059Z" fill="#EAEAEA"/>
<path d="M473.219 21.6475C474.945 22.0703 476.683 22.4931 478.41 22.8807C478.433 24.4192 478.433 25.9695 478.433 27.4846C476.918 27.1088 475.392 26.7095 473.853 26.3219C473.853 27.191 473.853 28.0249 473.83 28.894L473.219 21.6475Z" fill="#EAEAEA"/>
<path d="M501.418 106.645C501.43 107.361 501.442 108.077 501.454 108.794C500.35 109.44 499.246 110.086 498.142 110.732C497.014 110.673 495.898 110.603 494.771 110.544L494.16 106.785C496.568 106.738 498.999 106.692 501.407 106.645H501.418Z" fill="#EAEAEA"/>
<path d="M500.801 56.623C500.848 58.1616 500.895 59.7119 500.965 61.2505C500.002 61.18 499.027 61.0861 498.064 60.9922L497.289 56.717C498.452 56.67 499.626 56.6465 500.789 56.623H500.801Z" fill="#EAEAEA"/>
<path d="M471.625 56.0479C473.117 56.1418 474.62 56.2358 476.112 56.3297C479.412 56.5411 482.724 56.7525 486.024 56.9874H486.33L486.87 60.3347H472.095C471.931 58.9136 471.766 57.4807 471.625 56.0596V56.0479Z" fill="#EAEAEA"/>
<path d="M491.004 86.4082L497.264 86.5022L500.376 95.0877L497.851 102.745H493.67L493.153 99.7386H495.443L496.935 95.1347L494.903 89.4737L491.497 89.4266L491.004 86.4082Z" fill="#EAEAEA"/>
<path d="M472.422 86.1494L478.541 86.2434L478.799 89.2618L472.375 89.1678L472.422 86.1494Z" fill="#EAEAEA"/>
<path d="M472.305 41.4609L474.736 41.4844L475.018 44.9844C474.713 45.9944 474.407 46.9693 474.078 47.9793C474.384 48.8484 474.665 49.7293 474.947 50.5984C475.135 50.6219 475.3 50.6219 475.488 50.6219V50.6454L475.746 53.6403H472.105L470.52 47.1689L472.317 41.4609H472.305Z" fill="#EAEAEA"/>
<path d="M499.129 65.9844L500.656 66.8535V74.3585L499.129 65.9844Z" fill="#EAEAEA"/>
<path d="M476.557 62.7188H476.721L477.121 67.5576C475.911 68.4972 474.713 69.4251 473.527 70.3647C473.926 72.9838 474.349 75.5793 474.76 78.1984C475.864 78.1984 476.933 78.222 478.037 78.222L478.272 81.2404L470.485 81.1699L470.227 69.2489L476.557 62.7305V62.7188Z" fill="#EAEAEA"/>
<path d="M476.322 97.4366C476.063 100.079 475.828 102.745 475.57 105.388C477.109 105.341 478.659 105.317 480.197 105.294L480.479 108.43H475.57C475.781 111.072 475.993 113.738 476.228 116.405C474.901 116.405 473.562 116.428 472.234 116.428V97.4014C473.585 97.4249 474.947 97.4483 476.322 97.4483V97.4366Z" fill="#EAEAEA"/>
<path d="M494.187 105.904L494.798 109.663C492.766 109.522 490.758 109.404 488.749 109.287H480.505L480.223 106.151C484.874 106.057 489.548 105.963 494.199 105.893L494.187 105.904Z" fill="#EAEAEA"/>
<path d="M478.543 85.375L491.004 85.5394L491.498 88.5578L478.801 88.3934L478.543 85.375Z" fill="#EAEAEA"/>
<path d="M478.031 79.0908C482.001 79.1143 485.982 79.1378 489.952 79.1848L490.445 82.2032L478.266 82.1093L478.031 79.0908Z" fill="#EAEAEA"/>
<path d="M487.912 66.7008C485.199 66.5833 482.486 66.4659 479.773 66.3484C478.88 67.0531 477.999 67.746 477.106 68.4272L476.707 63.5884L487.36 63.377L487.9 66.7008H487.912Z" fill="#EAEAEA"/>
<path d="M475.488 50.6455C478.695 50.8334 481.913 51.0448 485.119 51.2562L485.518 53.6404H475.747L475.488 50.6455Z" fill="#EAEAEA"/>
<path d="M474.734 40.6035L483.543 40.721L484.013 43.6455C481.065 43.669 478.105 43.669 475.157 43.669C475.11 43.8099 475.063 43.9743 475.016 44.1153L474.734 40.6153V40.6035Z" fill="#EAEAEA"/>
<path d="M474.488 29.0352L474.817 32.6995C474.7 32.6761 474.582 32.676 474.465 32.676C474.488 31.4663 474.488 30.2449 474.488 29.0352Z" fill="#EAEAEA"/>
<path d="M484.974 119.857C488.874 120.233 492.761 120.633 496.637 121.008L497.201 124.45C494.276 124.168 491.375 123.862 488.462 123.581C488.862 128.208 489.261 132.835 489.672 137.439C487.382 137.463 485.115 137.486 482.848 137.51L482.543 133.986C483.823 134.057 485.115 134.104 486.395 134.174C485.926 129.406 485.456 124.638 484.974 119.869V119.857Z" fill="#EAEAEA"/>
<path d="M479.832 98.8574H493.151L493.667 101.876H480.02C479.973 100.866 479.903 99.8675 479.832 98.8574Z" fill="#EAEAEA"/>
<path d="M492.801 64.1632L499.132 67.7336L500.647 76.0959V83.131L490.429 83.0606L489.935 80.0421C492.179 80.0421 494.445 80.0657 496.689 80.0892C496.43 76.9063 496.172 73.7351 495.914 70.5523C494.81 69.6127 493.717 68.7084 492.59 67.7688C491.028 67.6983 489.454 67.6278 487.892 67.5574L487.352 64.2336L492.778 64.1396L492.801 64.1632Z" fill="#EAEAEA"/>
<path d="M497.282 57.5977L498.057 61.8728C495.344 61.6614 492.655 61.4265 489.965 61.1916H486.853L486.312 57.8444C489.977 57.7504 493.63 57.6564 497.271 57.5859L497.282 57.5977Z" fill="#EAEAEA"/>
<path d="M483.543 40.7207L491.424 40.8381L493.69 47.1451L491.87 52.7592H485.516L485.117 50.3749C486.033 50.4454 486.937 50.4924 487.853 50.5629C488.558 49.4589 489.251 48.39 489.979 47.286C489.392 46.0763 488.828 44.8549 488.276 43.6452H484.024L483.555 40.7207H483.543Z" fill="#EAEAEA"/>
<path d="M479.478 118.624H478.891V119.211H479.478V118.624Z" fill="#EAEAEA"/>
<path d="M492.185 85.375H491.598V85.9622H492.185V85.375Z" fill="#EAEAEA"/>
<path d="M499.434 110.544C500.103 110.603 500.772 110.673 501.442 110.732C501.454 110.25 501.465 109.769 501.477 109.299C500.796 109.71 500.115 110.133 499.434 110.544Z" fill="#EAEAEA"/>
<path d="M501.089 20.9543C501.054 21.3066 501.03 21.659 500.995 22.0113C500.607 21.6355 500.22 21.2596 499.82 20.8838C500.243 20.9073 500.654 20.9308 501.077 20.9543H501.089Z" fill="#EAEAEA"/>
<path d="M501.535 137.487C501.829 137.146 502.122 136.805 502.416 136.477C502.428 136.817 502.439 137.158 502.451 137.498C502.146 137.498 501.841 137.498 501.523 137.487H501.535Z" fill="#EAEAEA"/>
<path d="M155.414 133.517C155.297 137.533 155.156 141.562 155.039 145.579C122.329 147.728 89.6199 149.889 56.8988 152.038C56.8636 146.73 56.8165 141.397 56.7812 136.089L155.403 133.517H155.414Z" fill="#545351"/>
<path d="M142.097 21.4707C147.57 25.3935 153.043 29.328 158.505 33.2508C154.981 37.2088 151.47 41.1668 147.946 45.1248C118.02 49.4704 88.0828 53.816 58.157 58.1616C58.1217 53.6516 58.0746 48.9771 58.0394 44.4671C58.0042 39.8984 57.9688 35.3413 57.9336 30.7726C85.9803 27.672 114.039 24.5713 142.086 21.4707H142.097Z" fill="#545351"/>
<path d="M22.4073 19.686L11.3438 21.2951C11.379 18.0535 11.4026 14.8119 11.4496 11.5703C15.1022 14.2716 18.7664 16.9847 22.4073 19.6977V19.686Z" fill="#EAEAEA"/>
<path d="M60.7073 136.089L34.8569 136.77C25.2614 131.144 15.6776 125.495 6.08203 119.858C6.28169 101.876 6.45783 83.9068 6.634 65.9254L29.654 62.5781L60.2256 74.5344C60.3665 95.0526 60.5429 115.559 60.6956 136.089H60.7073Z" fill="#EAEAEA"/>
<path d="M20.128 62.32C15.0072 62.9777 9.88638 63.6355 4.76562 64.2932C4.78911 62.6606 4.80092 61.0163 4.82441 59.3721C9.92167 60.3469 15.0307 61.3335 20.128 62.3083V62.32Z" fill="#EAEAEA"/>
<path d="M62.2008 74.5461L31.6289 62.5899L62.0832 58.1738C62.1067 63.6234 62.142 69.0965 62.2008 74.5461Z" fill="#EAEAEA"/>
<path d="M52.9794 152.038C44.3352 146.941 35.6677 141.867 27.0117 136.77L52.8621 136.089C52.8974 141.398 52.9442 146.73 52.9794 152.038Z" fill="#EAEAEA"/>
<path d="M71.3276 9.50298C55.2959 11.8167 39.264 14.1187 23.2323 16.4325C18.8514 13.2614 14.4707 10.0902 10.0898 6.9191C27.2138 5.28657 44.3378 3.6423 61.4735 2.00977C64.7621 4.51142 68.0508 7.01307 71.3276 9.50298Z" fill="#989897"/>
<path d="M122.829 7.84707C108.982 9.45611 95.1349 11.0534 81.276 12.6624C77.9639 10.149 74.6519 7.6239 71.3281 5.1105C85.8448 4.06521 100.373 3.01993 114.89 1.96289C117.532 3.92428 120.175 5.88567 122.817 7.83531L122.829 7.84707Z" fill="#989897"/>
<path d="M158.506 33.2516C124.986 37.6441 91.4659 42.0484 57.9462 46.441C46.0956 37.6676 34.2568 28.8825 22.4062 20.1091L121.404 5.7334C126.959 9.85584 135.603 16.2803 141.17 20.4027C145.657 23.7265 154.019 29.9278 158.506 33.2516Z" fill="#989897"/>
<path d="M56.7846 67.4872C38.6858 63.8229 20.5988 60.1467 2.5 56.4823C2.6057 45.7475 2.71144 35.0128 2.82889 24.278L19.953 21.7881C31.8035 30.5615 43.6423 39.3466 55.4929 48.12C55.9274 54.5679 56.3618 61.0276 56.7964 67.4755L56.7846 67.4872Z" fill="#EAEAEA"/>
<path d="M166.625 43.9033C165.908 67.3108 165.18 90.683 164.475 114.09L66.6644 75.0976C66.6057 69.648 66.5704 64.1749 66.5469 58.7253L166.625 43.9033Z" fill="#545351"/>
<path d="M71.8894 138.438C68.7535 138.52 65.6058 138.602 62.47 138.685C62.423 132.73 62.2703 113.868 62.2234 107.913C62.1412 97.6599 62.0587 87.3948 62 77.1416C76.1643 82.6852 90.3288 88.2169 104.493 93.7488C93.6291 108.641 82.7533 123.545 71.8894 138.438Z" fill="#545351"/>
<path d="M111.23 92.8564C100.754 106.375 90.2772 119.893 79.8125 133.411C108.482 132.683 137.163 131.955 165.832 131.227C165.973 125.625 166.102 120.034 166.243 114.432C147.909 107.244 129.575 100.044 111.23 92.8564Z" fill="#545351"/>
<path d="M162.745 133.517H158.012V137.827H162.745V133.517Z" fill="#989897"/>
<path d="M158.317 36.6221C155.816 39.2999 153.314 41.9659 150.801 44.6437C153.291 44.3031 155.781 43.9509 158.271 43.6103C158.282 41.2848 158.306 38.9593 158.317 36.6338V36.6221Z" fill="#989897"/>
</svg>
