<svg width="455" height="170" viewBox="0 0 455 170" fill="none" xmlns="http://www.w3.org/2000/svg">
<path d="M33.2499 81.6926C33.1973 80.4993 33.1445 79.3236 33.1094 78.1304H56.2028L33.267 81.6926H33.2499Z" fill="white"/>
<path d="M29.0272 83.9741C28.2902 103.979 27.5352 123.984 26.8158 143.988L7.17969 145.322C8.02199 125.879 8.8646 106.436 9.68935 86.9748L29.0444 83.9741H29.0272Z" fill="white"/>
<path d="M26.8522 44.0342C26.3433 57.5637 25.8522 71.1109 25.3433 84.6404L5.98828 87.6235C6.58491 74.0764 7.16399 60.5293 7.74308 46.9822L26.8522 44.0342Z" fill="white"/>
<path d="M59.2498 167.029C40.3507 167.327 21.4167 167.625 2.5 167.941C2.83341 160.396 3.14938 152.868 3.48279 145.322L23.1189 143.988C23.0662 145.761 22.9787 147.55 22.9261 149.323C27.7693 148.726 32.6122 148.112 37.4554 147.515C37.4028 146.024 37.3324 144.532 37.2798 143.023L58.8643 141.549C59.0046 150.042 59.127 158.536 59.2498 167.029Z" fill="white"/>
<path d="M138.831 136.723C138.69 140.672 138.462 147.463 138.322 151.411C138.269 153.131 138.077 158.781 138.006 160.519C127.109 162.379 116.212 164.239 105.297 166.116C95.9963 166.116 86.7132 166.116 77.4128 166.116C77.3251 161.922 77.2375 157.728 77.1498 153.534C77.062 149.34 76.9745 145.146 76.8867 140.952L93.9257 139.794C94.3118 142.848 94.7148 145.901 95.1184 148.954C103.261 147.761 111.386 146.55 119.528 145.357C119.458 142.935 119.387 140.496 119.317 138.075L138.796 136.741L138.831 136.723Z" fill="white"/>
<path d="M190.56 165.081C185.857 165.274 181.172 165.467 176.469 165.678C167.467 166.064 158.465 166.432 149.445 166.818C149.831 156.009 150.199 145.199 150.568 134.389L169.187 133.126C169.029 137.18 168.853 141.233 168.695 145.287C173.503 144.673 178.294 144.058 183.085 143.462C183.085 139.689 183.085 135.951 183.049 132.178L203.071 130.81C203.176 139.513 203.282 148.217 203.387 156.921C199.106 159.641 194.824 162.361 190.56 165.081Z" fill="white"/>
<path d="M203.039 65.5484C195.932 65.8467 188.808 66.1625 181.684 66.4608V59.6873L202.706 56.4233C202.811 59.4592 202.917 62.5125 203.022 65.5484H203.039Z" fill="white"/>
<path d="M204.805 128.599L184.976 131.652C184.976 131.652 184.836 130.073 184.836 129.985C184.818 129.722 184.572 127.072 184.555 126.791C184.607 126.791 189.03 126.194 189.082 126.194C189.381 126.159 199.26 124.843 199.558 124.808C201.242 125.352 202.928 125.879 204.612 126.423C204.683 127.142 204.752 127.862 204.822 128.581L204.805 128.599Z" fill="white"/>
<path d="M246.255 9.8335C245.062 23.4859 243.85 37.1207 242.657 50.7731L223.074 53.8089C223.495 40.2794 223.934 26.7674 224.355 13.2378L246.255 9.8335Z" fill="white"/>
<path d="M241.486 7.35889C241.433 7.86778 241.398 8.37667 241.345 8.88556L219.445 12.2899C219.498 10.9211 219.533 9.53489 219.586 8.16614C226.886 7.90292 234.186 7.65722 241.486 7.37645V7.35889Z" fill="white"/>
<path d="M289.037 23.5734C283.193 31.1542 277.332 38.7174 271.471 46.2982L246.641 50.1412C253.344 40.753 260.03 31.3824 266.733 21.9941C274.156 22.5206 281.596 23.0295 289.037 23.5559V23.5734Z" fill="white"/>
<path d="M231.628 129.546V165.221C224.328 165.449 217.028 165.695 209.746 165.941C210.115 154.271 210.483 142.637 210.869 130.967L231.628 129.546Z" fill="white"/>
<path d="M323.454 167.029C300.378 166.678 277.303 166.327 254.228 165.958C252.455 153.446 250.7 140.917 248.945 128.388L268.915 127.019C269.301 133.547 269.669 140.11 270.038 146.638C287.726 145.778 305.415 144.918 323.103 144.076C323.226 151.727 323.349 159.378 323.454 167.029Z" fill="white"/>
<path d="M387.681 120C387.295 133.74 386.927 147.463 386.541 161.203C384.628 161.519 382.733 161.817 380.82 162.133C380.68 163.712 380.557 165.309 380.416 166.888C365.746 166.66 351.076 166.432 336.424 166.187C335.968 151.99 335.511 137.776 335.055 123.58L355.183 122.211C355.288 129.02 355.411 135.828 355.534 142.637C359.394 142.549 363.272 142.479 367.15 142.391C367.15 135.39 367.15 128.406 367.15 121.404L387.681 120Z" fill="white"/>
<path d="M393.212 17.6247C393.194 21.6432 393.159 25.6617 393.142 29.6802L372.014 32.9617V25.3985C367.487 24.6439 362.96 23.8893 358.432 23.1347C358.485 27.1006 358.572 31.0665 358.625 35.0499L337.234 38.3665C336.866 26.9076 336.497 15.4311 336.129 3.95468C348.395 3.79675 360.66 3.63889 372.926 3.48096C379.682 8.18384 386.456 12.9043 393.212 17.6247Z" fill="white"/>
<path d="M390.697 29.6802C390.504 59.7751 390.31 89.9051 390.135 120.018L369.604 121.421C369.604 91.9231 369.603 62.46 369.586 32.9617L390.714 29.6802H390.697Z" fill="white"/>
<path d="M321.387 124.51C321.194 127.282 321.001 130.055 320.808 132.828C308.016 134.109 295.223 135.407 282.448 136.706C282.149 133.547 281.833 130.388 281.535 127.23L321.369 124.527L321.387 124.51Z" fill="white"/>
<path d="M64.7995 10.1313V38.3662L45.7949 41.3143C45.6194 36.2078 45.4439 31.1188 45.2859 26.0299C41.8114 26.1703 38.3199 26.3282 34.8454 26.4862C34.6348 32.0313 34.4416 37.5765 34.2311 43.1217L15.1211 46.0698C15.6475 34.0844 16.1567 22.1167 16.6831 10.1313H64.8166H64.7995Z" fill="white"/>
<path d="M131.403 21.1696C131.052 23.4684 130.701 25.7848 130.368 28.1011L77.6185 36.2786C77.5484 27.3115 77.4608 18.3444 77.3906 9.3598C83.1464 9.06148 88.8838 8.74558 94.6396 8.44727C95.3941 12.2201 96.1487 16.0105 96.9033 19.7834C108.397 20.2396 119.909 20.6958 131.403 21.152V21.1696Z" fill="white"/>
<path d="M185.363 59.1257V48.1933H176.291C176.115 52.3347 175.957 56.4759 175.782 60.6348L156.707 63.583C157.023 54.3703 157.339 45.1575 157.673 35.9448C173.571 32.6107 189.469 29.2765 205.35 25.9424C205.701 35.9097 206.052 45.8945 206.385 55.8618L185.363 59.1257Z" fill="white"/>
<path d="M59.8874 40.665V54.1945L41.2684 55.5633C41.128 51.5799 41.0056 47.5965 40.8828 43.6131L59.8874 40.665Z" fill="white"/>
<path d="M123.913 28.6626C123.282 32.8917 121.895 42.0693 121.246 46.2984C120.79 49.3868 119.509 57.9152 119.035 60.9861C117.439 62.039 115.824 63.1094 114.227 64.1623C109.787 64.3904 105.33 64.6186 100.89 64.8467C102.083 55.4585 103.312 46.0878 104.523 36.6996C99.6799 36.5417 94.8362 36.4013 89.993 36.2258C90.2211 48.8779 90.4671 61.5301 90.7127 74.1647L71.5325 77.1303C71.4097 63.6885 71.2869 50.2467 71.1641 36.8049L123.913 28.6274V28.6626Z" fill="white"/>
<path d="M272.603 126.704L252.634 128.073C252.002 123.615 251.371 119.158 250.739 114.701C245.597 111.349 240.456 107.997 235.314 104.663V129.248L214.555 130.67C215.344 105.453 216.152 80.254 216.959 55.0199L236.543 51.984C236.367 53.8792 236.209 55.7745 236.034 57.6697C237.525 55.5815 239.035 53.4581 240.526 51.3699L265.356 47.5269C256.179 59.3893 247.001 71.2869 237.824 83.1494C248.949 89.4843 260.074 95.8191 271.182 102.154C271.656 110.349 272.13 118.526 272.586 126.721L272.603 126.704Z" fill="white"/>
<path d="M312.379 108.646C312.204 111.559 312.011 114.49 311.835 117.402C307.992 118.771 304.168 120.158 300.325 121.544V97.4152C308.502 96.5905 316.679 95.7482 324.874 94.9059C324.593 78.6914 324.33 62.442 324.031 46.2275C312.485 47.8244 300.938 49.4388 289.374 51.0357C286.251 54.7208 283.127 58.3883 280.004 62.0734C282.092 83.7452 284.163 105.417 286.251 127.089C299.535 126.194 312.818 125.282 326.084 124.387C326.207 122.614 326.593 117.051 326.716 115.262C326.733 114.998 326.927 112.173 326.945 111.91C324.734 110.383 322.522 108.839 320.311 107.312L312.379 108.628V108.646ZM298.745 70.2157C301.289 68.2328 303.852 66.2498 306.396 64.2669C306.958 69.6542 307.519 75.0239 308.081 80.4111H298.324C298.464 77.0068 298.604 73.6025 298.745 70.2157Z" fill="white"/>
<path d="M357.629 122.211L337.502 123.58C336.589 95.1695 335.694 66.7416 334.781 38.3313L356.172 35.0146C356.663 64.0742 357.137 93.1514 357.629 122.211Z" fill="white"/>
<path d="M62.5333 141.549L40.9496 143.023C40.16 122.86 39.3522 102.662 38.5625 82.4997L61.4982 78.9375H61.5505C61.726 90.0103 61.9015 101.066 62.0595 112.138C62.1998 121.93 62.3582 131.74 62.5162 141.549H62.5333Z" fill="white"/>
<path d="M93.8195 108.453C87.3092 109.664 80.7987 110.875 74.306 112.086C74.2007 100.452 74.0956 88.7997 74.0078 77.1653L93.188 74.1997C93.4162 85.6235 93.6085 97.0472 93.8367 108.453H93.8195Z" fill="white"/>
<path d="M140.815 75.9892C142.114 75.9366 143.413 75.9016 144.711 75.8489C143.974 95.9941 143.237 116.139 142.518 136.284C136.025 136.723 129.532 137.179 123.04 137.618C122.987 136.091 122.934 134.582 122.899 133.073C114.406 134.74 105.948 136.407 97.4724 138.057C97.5251 138.478 97.5779 138.917 97.6481 139.338L80.6082 140.496C80.4854 134.354 80.363 128.212 80.2227 122.07C96.279 119.351 112.318 116.631 128.374 113.911V92.4493C124.285 92.2914 120.197 92.1511 116.109 91.9932C117.302 96.4153 118.512 100.855 119.706 105.277C115.512 105.505 111.3 105.716 107.106 105.944C105.386 103.715 103.667 101.487 101.93 99.258C101.649 91.6948 101.385 84.1316 101.105 76.5684C114.301 75.34 127.48 74.1292 140.676 72.9009C140.728 73.9362 140.763 74.9715 140.815 76.0068V75.9892Z" fill="white"/>
<path d="M172.117 61.1787C171.152 85.1669 170.169 109.155 169.204 133.126L150.586 134.389C151.411 110.963 152.218 87.5534 153.042 64.1442L172.117 61.1962V61.1787Z" fill="white"/>
<path d="M63.6426 144.953H61.3438V147.252H63.6426V144.953Z" fill="white"/>
<path d="M247.153 5.13037H245.363V6.9202H247.153V5.13037Z" fill="white"/>
<path d="M11.8369 40.4727H9.25781V43.0523H11.8369V40.4727Z" fill="white"/>
<path d="M115.023 65.4961C116.199 64.7415 117.374 63.987 118.55 63.2324C118.41 64.0221 118.27 64.7941 118.129 65.5838C117.094 65.5487 116.059 65.5312 115.023 65.4961Z" fill="white"/>
<path d="M102.84 104.154C102.857 105.751 102.893 107.348 102.91 108.945C103.963 108.787 105.033 108.629 106.086 108.489C104.998 107.05 103.91 105.593 102.84 104.154Z" fill="white"/>
<path d="M105.309 166.099C117.031 166.186 128.753 166.274 140.475 166.344C140.44 165.151 140.405 163.958 140.352 162.764C128.665 163.87 116.978 164.975 105.309 166.081V166.099Z" fill="white"/>
<path d="M203.059 124.703C204.217 125.141 205.374 125.58 206.55 126.001C206.515 125.457 206.463 124.931 206.428 124.387C205.305 124.492 204.199 124.597 203.076 124.685L203.059 124.703Z" fill="white"/>
<path d="M283.685 53.335C281.754 55.4583 279.824 57.5816 277.893 59.7225C277.735 57.7571 277.56 55.7742 277.402 53.8088C279.491 53.6509 281.596 53.4929 283.685 53.3525V53.335Z" fill="white"/>
<path d="M324.922 108.717C326.256 109.647 327.571 110.559 328.904 111.489C328.922 110.472 328.94 109.436 328.958 108.418C327.606 108.524 326.273 108.629 324.922 108.717Z" fill="white"/>
<path d="M324.28 127.721C323.631 127.721 322.981 127.686 322.332 127.686V125.633C323.016 125.598 323.701 125.563 324.403 125.51L324.28 127.721Z" fill="white"/>
<path d="M143.437 74.6734C143.034 74.6734 142.63 74.6559 142.227 74.6383V73.3573C142.648 73.3397 143.086 73.3047 143.508 73.2871L143.437 74.6559V74.6734Z" fill="white"/>
<path d="M335.826 35.9977C335.177 36.0679 334.527 36.1205 333.878 36.1907L333.633 34.1552C334.317 34.0323 334.983 33.9095 335.668 33.7866C335.72 34.5236 335.774 35.2607 335.826 35.9977Z" fill="white"/>
<path d="M235.276 133.266C234.626 133.266 233.977 133.231 233.328 133.231V131.178C234.012 131.143 234.697 131.108 235.399 131.055L235.276 133.266Z" fill="white"/>
<path d="M382.187 163.396C382.1 164.73 382.012 166.063 381.906 167.397C383.696 167.485 385.486 167.572 387.276 167.678C387.452 166.063 387.645 164.466 387.82 162.852C385.942 163.028 384.065 163.221 382.187 163.396Z" fill="white"/>
<path d="M194.457 165.169C196.703 163.783 198.949 162.396 201.195 161.01V164.871C198.949 164.958 196.703 165.064 194.457 165.151V165.169Z" fill="white"/>
<path d="M409.229 139.795C412.195 140.04 415.178 140.286 418.144 140.532L418.109 141.953C418.723 141.988 419.355 142.041 419.969 142.076C419.969 142.725 419.951 143.392 419.934 144.059C419.916 145.217 419.881 146.375 419.864 147.533C417.846 146.48 415.828 145.445 413.81 144.392C413.74 149.762 413.669 155.114 413.652 160.484C417.161 160.642 420.706 160.817 424.233 160.975L424.672 165.976C419.443 166.047 414.214 166.082 408.984 166.117L409.247 139.812L409.229 139.795Z" fill="white"/>
<path d="M437.936 159.448C440.621 160.115 443.323 160.764 446.008 161.431L446.762 166.064L437.988 165.923C437.953 163.765 437.953 161.589 437.918 159.431L437.936 159.448Z" fill="white"/>
<path d="M442.938 143.83C445.78 144.093 448.623 144.356 451.484 144.655C451.817 151.112 452.168 157.588 452.501 164.045C451.607 165.133 450.711 166.239 449.833 167.327C448.816 167.327 447.799 167.309 446.798 167.292C446.553 165.748 446.288 164.203 446.043 162.659C446.534 162.8 447.044 162.887 447.535 163.028C447.167 158.325 446.832 153.657 446.481 148.972C445.586 148.866 444.657 148.814 443.762 148.708L442.972 143.848L442.938 143.83Z" fill="white"/>
<path d="M450.886 5.42864C450.886 6.23585 450.695 24.4156 450.677 25.2228C450.677 26.223 450.447 46.4209 450.447 47.4211C448.289 47.193 446.114 46.9649 443.955 46.7192L443.657 45.0346C444.148 41.9286 444.675 38.8402 445.219 35.6991C445.149 26.4688 445.114 17.2385 445.061 7.97313C442.341 7.92048 439.604 7.86779 436.884 7.81515L436.094 3.28772C440.06 3.21752 444.026 3.14734 447.992 3.07715C448.781 3.72643 449.589 4.37577 450.379 5.0075C450.554 5.14788 450.711 5.28825 450.886 5.42864Z" fill="white"/>
<path d="M442.656 47.3513C442.762 46.8249 442.814 46.2633 442.919 45.7368L443.217 47.4215C443.024 47.3864 442.849 47.3864 442.656 47.3513Z" fill="white"/>
<path d="M437.639 9.0611C436.147 9.026 434.69 8.99091 433.234 8.95581C433.69 14.6063 434.164 20.3094 434.655 25.9599H425.688L424.863 20.8885C426.127 20.9236 427.337 20.9937 428.601 21.0463C428.074 15.5889 427.548 10.1666 427.005 4.69165C430.286 4.62145 433.549 4.58628 436.831 4.49854L437.621 9.02597L437.639 9.0611Z" fill="white"/>
<path d="M413.066 19.1338C416.98 19.2917 420.91 19.4672 424.841 19.6602L425.665 24.7316C421.594 24.7316 417.558 24.7316 413.522 24.6965L413.066 19.1338Z" fill="white"/>
<path d="M407.958 3.51611C409.187 3.81443 410.415 4.11273 411.591 4.37595V4.41108L412.451 14.6768V15.0452C412.451 16.7649 412.451 18.4846 412.416 20.2043C412.574 20.2043 412.749 20.2044 412.907 20.2395L413.363 25.8022H407.73C407.801 18.3969 407.871 10.939 407.923 3.53368L407.958 3.51611Z" fill="white"/>
<path d="M411.02 3.16504C413.476 3.76167 415.916 4.35831 418.373 4.91985C418.408 7.09581 418.407 9.28937 418.407 11.4478C416.249 10.9213 414.108 10.3598 411.915 9.79826C411.915 11.0266 411.915 12.2199 411.88 13.4307L411.02 3.16504Z" fill="white"/>
<path d="M450.952 123.492C450.97 124.51 450.988 125.528 451.005 126.546C449.444 127.458 447.882 128.388 446.32 129.301C444.723 129.213 443.145 129.125 441.548 129.037L440.688 123.703C444.092 123.633 447.531 123.562 450.952 123.51V123.492Z" fill="white"/>
<path d="M450.059 52.686C450.129 54.862 450.199 57.0555 450.287 59.2314C448.936 59.1261 447.532 59.0034 446.181 58.863L445.094 52.8089C446.743 52.7387 448.41 52.7036 450.059 52.6685V52.686Z" fill="white"/>
<path d="M408.746 51.8613C410.869 52.0017 412.975 52.1246 415.099 52.265C419.766 52.5633 424.469 52.8616 429.137 53.195H429.576L430.331 57.933H409.414C409.185 55.915 408.957 53.8969 408.746 51.8789V51.8613Z" fill="white"/>
<path d="M436.199 94.854L445.061 94.9944L449.466 107.138L445.886 118H439.972L439.235 113.718H442.482L444.605 107.208L441.727 99.1884L436.884 99.1357L436.199 94.854Z" fill="white"/>
<path d="M409.876 94.5029L418.563 94.6258L418.914 98.8899L409.824 98.7671L409.876 94.5029Z" fill="white"/>
<path d="M409.718 31.207L413.158 31.2421L413.561 36.2082C413.122 37.6296 412.701 39.0159 412.245 40.4373C412.684 41.6657 413.07 42.9116 413.474 44.1399C413.737 44.175 413.965 44.1751 414.228 44.1751V44.2101L414.596 48.4392H409.437L407.191 39.2791L409.735 31.207H409.718Z" fill="white"/>
<path d="M447.703 65.9346L449.862 67.163V77.7971L447.703 65.9346Z" fill="white"/>
<path d="M415.737 61.3016H415.965L416.526 68.1454C414.807 69.4615 413.122 70.7952 411.438 72.1113C411.999 75.8139 412.596 79.4991 413.192 83.2017C414.754 83.2017 416.263 83.2367 417.825 83.2367L418.159 87.501L407.138 87.3956L406.77 70.5144L415.737 61.2842V61.3016Z" fill="white"/>
<path d="M415.398 110.472C415.03 114.209 414.697 117.982 414.346 121.72C416.522 121.65 418.716 121.615 420.892 121.579L421.295 126.019H414.346C414.644 129.757 414.942 133.53 415.276 137.302C413.398 137.302 411.503 137.338 409.625 137.338V110.401C411.538 110.436 413.469 110.472 415.416 110.472H415.398Z" fill="white"/>
<path d="M440.692 122.457L441.552 127.791C438.675 127.598 435.831 127.423 432.988 127.265H421.302L420.898 122.825C427.479 122.685 434.094 122.562 440.692 122.457Z" fill="white"/>
<path d="M418.555 93.3975L436.19 93.6256L436.875 97.8898L418.905 97.6616L418.555 93.3975Z" fill="white"/>
<path d="M417.82 84.4829C423.453 84.518 429.068 84.5531 434.701 84.6233L435.403 88.8875L418.171 88.7471L417.837 84.4829H417.82Z" fill="white"/>
<path d="M431.827 66.9524C427.984 66.7945 424.158 66.6189 420.315 66.461C419.052 67.4612 417.806 68.4439 416.543 69.4091L415.98 62.5654L431.072 62.2671L431.827 66.97V66.9524Z" fill="white"/>
<path d="M414.227 44.21C418.754 44.4732 423.334 44.7715 427.861 45.0698L428.423 48.4391H414.595L414.227 44.21Z" fill="white"/>
<path d="M413.16 29.9961L425.637 30.154L426.303 34.2954C422.127 34.3305 417.933 34.3304 413.757 34.3304C413.686 34.5234 413.616 34.7692 413.564 34.9622L413.16 29.9961Z" fill="white"/>
<path d="M412.809 13.6235L413.265 18.8178C413.107 18.7827 412.931 18.7827 412.773 18.7827C412.809 17.063 412.809 15.3432 412.809 13.6235Z" fill="white"/>
<path d="M427.652 142.216C433.179 142.742 438.672 143.304 444.165 143.83L444.955 148.691C440.813 148.288 436.707 147.867 432.583 147.463C433.144 154.008 433.706 160.571 434.303 167.082C431.056 167.117 427.845 167.152 424.634 167.187L424.195 162.186C426.02 162.291 427.828 162.344 429.652 162.449C428.986 155.693 428.337 148.954 427.635 142.198L427.652 142.216Z" fill="white"/>
<path d="M420.371 112.49H439.235L439.955 116.754H420.634C420.564 115.333 420.476 113.911 420.371 112.49Z" fill="white"/>
<path d="M438.743 63.355L447.71 68.4263L449.869 80.2712V90.2386L435.409 90.1333L434.706 85.8691C437.883 85.8691 441.094 85.9042 444.27 85.9393C443.902 81.447 443.551 76.9372 443.182 72.4449C441.62 71.1288 440.077 69.8302 438.48 68.5141C436.269 68.4088 434.04 68.321 431.829 68.2157L431.074 63.5129L438.76 63.3725L438.743 63.355Z" fill="white"/>
<path d="M445.095 54.0546L446.182 60.1087C442.339 59.8104 438.531 59.477 434.741 59.1435H430.337L429.582 54.4056C434.776 54.2652 439.936 54.1424 445.095 54.0371V54.0546Z" fill="white"/>
<path d="M425.637 30.1714L436.798 30.3294L440.008 39.2613L437.429 47.2106H428.427L427.865 43.8414C429.164 43.9467 430.445 43.9993 431.743 44.1046C432.744 42.5428 433.727 41.0336 434.762 39.4718C433.937 37.7521 433.148 36.0324 432.341 34.3127H426.321L425.655 30.1714H425.637Z" fill="white"/>
<path d="M419.051 140.461V141.303H419.893V140.461H419.051Z" fill="white"/>
<path d="M437.039 93.3799V94.2222H437.881V93.3799H437.039Z" fill="white"/>
<path d="M448.125 129.037C449.073 129.125 450.02 129.213 450.968 129.3C450.986 128.616 451.002 127.949 451.019 127.265C450.054 127.862 449.09 128.441 448.125 129.037Z" fill="white"/>
<path d="M450.479 2.16485C450.444 2.6562 450.391 3.16505 450.356 3.6564C449.812 3.12996 449.251 2.58601 448.707 2.05957C449.304 2.09467 449.899 2.12974 450.496 2.14729L450.479 2.16485Z" fill="white"/>
<path d="M451.113 167.187C451.534 166.713 451.955 166.222 452.358 165.748C452.376 166.239 452.392 166.713 452.41 167.204C451.971 167.204 451.532 167.204 451.094 167.187H451.113Z" fill="white"/>
</svg>
