<svg width="455" height="170" viewBox="0 0 455 170" fill="none" xmlns="http://www.w3.org/2000/svg">
<path d="M33.2443 81.6926C33.1916 80.4994 33.1406 79.3236 33.1055 78.1304H56.1972L33.2631 81.6926H33.2443Z" fill="#24AF52"/>
<path d="M29.0312 83.9907C28.2942 103.996 27.54 124 26.8206 144.005L7.18359 145.339C8.0259 125.896 8.86765 106.452 9.69241 86.9915L29.0483 83.9907H29.0312Z" fill="#24AF52"/>
<path d="M26.8522 44.0342C26.3434 57.5638 25.8514 71.1109 25.3425 84.6404L5.98828 87.6236C6.58491 74.0765 7.164 60.5294 7.74308 46.9822L26.8522 44.0342Z" fill="#24AF52"/>
<path d="M59.25 167.029C40.3508 167.327 21.4168 167.625 2.5 167.941C2.83341 160.395 3.14852 152.867 3.48193 145.322L23.1189 143.988C23.0663 145.76 22.9779 147.55 22.9253 149.323C27.7685 148.726 32.6122 148.112 37.4555 147.515C37.4029 146.024 37.3333 144.532 37.2807 143.023L58.8644 141.549C59.0048 150.042 59.1271 158.535 59.25 167.029Z" fill="#24AF52"/>
<path d="M138.833 136.723C138.692 140.671 138.464 147.462 138.324 151.411C138.271 153.13 138.077 158.781 138.007 160.518C127.109 162.378 116.213 164.238 105.298 166.116C95.9973 166.116 86.715 166.116 77.4145 166.116C77.3268 161.922 77.2384 157.728 77.1506 153.534C77.0629 149.34 76.9745 145.146 76.8867 140.952L93.9258 139.794C94.3118 142.847 94.7166 145.901 95.1202 148.954C103.262 147.761 111.387 146.55 119.53 145.357C119.46 142.935 119.389 140.496 119.319 138.074L138.797 136.74L138.833 136.723Z" fill="#24AF52"/>
<path d="M190.56 165.081C185.857 165.274 181.171 165.467 176.468 165.678C167.466 166.064 158.465 166.432 149.445 166.818C149.831 156.009 150.199 145.199 150.568 134.389L169.187 133.126C169.029 137.179 168.853 141.233 168.695 145.287C173.503 144.673 178.294 144.058 183.085 143.462C183.085 139.689 183.084 135.951 183.049 132.178L203.071 130.81C203.177 139.513 203.283 148.217 203.388 156.921C199.107 159.641 194.824 162.361 190.56 165.081Z" fill="#24AF52"/>
<path d="M203.035 65.5479C195.929 65.8462 188.804 66.162 181.68 66.4604V59.6868L202.701 56.4229C202.807 59.4587 202.911 62.5121 203.017 65.5479H203.035Z" fill="#24AF52"/>
<path d="M204.809 128.599L184.98 131.652C184.98 131.652 184.84 130.073 184.84 129.985C184.822 129.722 184.576 127.072 184.559 126.791C184.611 126.791 189.033 126.195 189.086 126.195C189.384 126.16 199.263 124.843 199.562 124.808C201.246 125.352 202.931 125.879 204.615 126.423C204.686 127.142 204.756 127.862 204.826 128.581L204.809 128.599Z" fill="#24AF52"/>
<path d="M246.259 9.83301C245.066 23.4854 243.855 37.1203 242.662 50.7727L223.078 53.8085C223.499 40.2789 223.937 26.7669 224.358 13.2373L246.259 9.83301Z" fill="#24AF52"/>
<path d="M241.506 7.37598C241.453 7.88487 241.418 8.39381 241.366 8.90271L219.465 12.307C219.517 10.9382 219.553 9.55198 219.605 8.18323C226.905 7.92001 234.206 7.67431 241.506 7.39354V7.37598Z" fill="#24AF52"/>
<path d="M289.041 23.573C283.197 31.1537 277.337 38.717 271.476 46.2978L246.645 50.1408C253.348 40.7526 260.034 31.3819 266.737 21.9937C274.16 22.5201 281.6 23.029 289.041 23.5554V23.573Z" fill="#24AF52"/>
<path d="M231.622 129.546V165.221C224.322 165.45 217.021 165.695 209.738 165.941C210.107 154.271 210.476 142.637 210.862 130.968L231.622 129.546Z" fill="#24AF52"/>
<path d="M323.458 167.029C300.382 166.678 277.306 166.327 254.231 165.958C252.458 153.446 250.704 140.917 248.949 128.388L268.919 127.019C269.305 133.547 269.673 140.11 270.041 146.638C287.729 145.778 305.418 144.918 323.107 144.076C323.23 151.727 323.353 159.378 323.458 167.029Z" fill="#24AF52"/>
<path d="M387.682 120.017C387.296 133.757 386.926 147.48 386.54 161.22C384.628 161.536 382.733 161.834 380.82 162.15C380.68 163.729 380.558 165.326 380.417 166.906C365.747 166.677 351.076 166.449 336.424 166.204C335.968 152.007 335.511 137.793 335.055 123.597L355.183 122.228C355.289 129.037 355.41 135.846 355.533 142.654C359.394 142.566 363.272 142.496 367.15 142.408C367.15 135.407 367.15 128.423 367.15 121.421L387.682 120.017Z" fill="#24AF52"/>
<path d="M393.225 17.6243C393.207 21.6428 393.172 25.6613 393.155 29.6798L372.027 32.9613V25.3981C367.499 24.6435 362.971 23.8889 358.444 23.1344C358.497 27.1002 358.585 31.0661 358.638 35.0495L337.246 38.3661C336.877 26.9072 336.509 15.4308 336.141 3.9543C348.407 3.79637 360.672 3.6384 372.938 3.48047C379.694 8.18336 386.469 12.9038 393.225 17.6243Z" fill="#24AF52"/>
<path d="M390.699 29.6797C390.506 59.7747 390.314 89.9047 390.138 120.017L369.607 121.421C369.607 91.9228 369.607 62.4595 369.59 32.9612L390.718 29.6797H390.699Z" fill="#24AF52"/>
<path d="M321.387 124.51C321.194 127.282 321 130.055 320.807 132.828C308.015 134.109 295.223 135.407 282.449 136.706C282.15 133.547 281.833 130.388 281.535 127.23L321.369 124.527L321.387 124.51Z" fill="#24AF52"/>
<path d="M64.7988 10.1313V38.3662L45.7941 41.3143C45.6186 36.2078 45.4431 31.1189 45.2852 26.0299C41.8107 26.1703 38.3183 26.3282 34.8438 26.4862C34.6332 32.0314 34.4408 37.5766 34.2303 43.1218L15.1211 46.0699C15.6475 34.0845 16.1558 22.1167 16.6822 10.1313H64.8159H64.7988Z" fill="#24AF52"/>
<path d="M131.408 21.1691C131.057 23.4679 130.706 25.7843 130.373 28.1006L77.6224 36.278C77.5523 27.311 77.4647 18.3439 77.3945 9.35926C83.1503 9.06094 88.8886 8.74509 94.6444 8.44678C95.3989 12.2196 96.1536 16.01 96.9081 19.7828C108.402 20.2391 119.914 20.6953 131.408 21.1516V21.1691Z" fill="#24AF52"/>
<path d="M185.363 59.1253V48.1929H176.291C176.115 52.3342 175.957 56.4756 175.782 60.6345L156.707 63.5825C157.023 54.3698 157.338 45.157 157.672 35.9443C173.57 32.6101 189.469 29.276 205.35 25.9419C205.701 35.9092 206.053 45.8941 206.386 55.8614L185.363 59.1253Z" fill="#24AF52"/>
<path d="M59.8835 40.6646V54.1942L41.2645 55.5629C41.1241 51.5795 41.0017 47.5961 40.8789 43.6127L59.8835 40.6646Z" fill="#24AF52"/>
<path d="M123.914 28.662C123.283 32.8911 121.895 42.0688 121.246 46.2979C120.79 49.3864 119.509 57.9147 119.036 60.9856C117.439 62.0385 115.824 63.109 114.227 64.1618C109.787 64.39 105.331 64.6181 100.891 64.8462C102.084 55.458 103.312 46.0873 104.522 36.6991C99.6792 36.5412 94.8371 36.4007 89.9939 36.2253C90.222 48.8774 90.4663 61.5296 90.7119 74.1642L71.5325 77.1299C71.4097 63.688 71.2869 50.2462 71.1641 36.8044L123.914 28.627V28.662Z" fill="#24AF52"/>
<path d="M272.6 126.703L252.63 128.072C251.999 123.615 251.367 119.158 250.735 114.7C245.593 111.349 240.452 107.997 235.31 104.663V129.248L214.551 130.669C215.34 105.453 216.148 80.2536 216.955 55.0194L236.539 51.9836C236.363 53.8788 236.205 55.774 236.03 57.6692C237.522 55.5809 239.03 53.4576 240.521 51.3694L265.353 47.5264C256.175 59.3889 246.997 71.2865 237.819 83.149C248.944 89.4839 260.071 95.8187 271.179 102.154C271.653 110.349 272.126 118.526 272.583 126.721L272.6 126.703Z" fill="#24AF52"/>
<path d="M312.38 108.664C312.205 111.577 312.013 114.508 311.837 117.421C307.994 118.789 304.168 120.176 300.325 121.562V97.4334C308.502 96.6086 316.68 95.7663 324.875 94.924C324.594 78.7096 324.332 62.46 324.033 46.2456C312.487 47.8425 300.94 49.4569 289.376 51.0538C286.252 54.7389 283.127 58.4064 280.004 62.0915C282.092 83.7634 284.164 105.435 286.252 127.107C299.536 126.212 312.82 125.3 326.086 124.405C326.209 122.632 326.594 117.07 326.717 115.28C326.734 115.017 326.927 112.191 326.945 111.928C324.734 110.401 322.524 108.857 320.313 107.331C317.663 107.769 315.03 108.208 312.38 108.647V108.664ZM298.746 70.2338C301.291 68.2509 303.852 66.268 306.396 64.285C306.958 69.6723 307.519 75.042 308.081 80.4293H298.325C298.465 77.0249 298.606 73.6206 298.746 70.2338Z" fill="#24AF52"/>
<path d="M357.636 122.211L337.509 123.579C336.596 95.169 335.702 66.7411 334.789 38.3308L356.179 35.0142C356.67 64.0738 357.144 93.151 357.636 122.211Z" fill="#24AF52"/>
<path d="M62.5334 141.549L40.9496 143.023C40.16 122.86 39.3522 102.662 38.5625 82.4993L61.4983 78.937H61.5514C61.7269 90.0099 61.9024 101.065 62.0604 112.138C62.2008 121.93 62.3583 131.739 62.5162 141.549H62.5334Z" fill="#24AF52"/>
<path d="M93.8196 108.454C87.3093 109.664 80.7988 110.875 74.306 112.086C74.2007 100.452 74.0956 88.7997 74.0078 77.1653L93.1872 74.1997C93.4154 85.6235 93.6086 97.0473 93.8367 108.454H93.8196Z" fill="#24AF52"/>
<path d="M140.813 76.0069C142.111 75.9543 143.409 75.9192 144.708 75.8665C143.971 96.0117 143.234 116.157 142.514 136.302C136.021 136.741 129.529 137.197 123.037 137.636C122.984 136.109 122.931 134.6 122.896 133.091C114.403 134.758 105.944 136.425 97.4686 138.075C97.5212 138.496 97.5732 138.934 97.6434 139.356L80.6043 140.514C80.4815 134.372 80.3591 128.23 80.2188 122.088C96.2752 119.368 112.315 116.648 128.371 113.928V92.4671C124.283 92.3091 120.193 92.1687 116.105 92.0108C117.298 96.4329 118.509 100.873 119.702 105.295C115.508 105.523 111.297 105.733 107.103 105.962C105.383 103.733 103.663 101.504 101.926 99.2757C101.645 91.7125 101.382 84.1492 101.102 76.586C114.298 75.3576 127.476 74.1468 140.672 72.9185L140.813 76.0245V76.0069Z" fill="#24AF52"/>
<path d="M172.122 61.1963C171.157 85.1845 170.174 109.173 169.209 133.143L150.59 134.407C151.415 110.98 152.222 87.5711 153.047 64.1619L172.122 61.2139V61.1963Z" fill="#24AF52"/>
<path d="M63.6379 144.954H61.3398V147.252H63.6379V144.954Z" fill="#24AF52"/>
<path d="M247.156 5.12988H245.367V6.91982H247.156V5.12988Z" fill="#24AF52"/>
<path d="M11.8347 40.4722H9.25391V43.0517H11.8347V40.4722Z" fill="#24AF52"/>
<path d="M115.02 65.4957C116.195 64.7411 117.371 63.9865 118.546 63.2319C118.406 64.0216 118.265 64.7937 118.125 65.5834C117.089 65.5483 116.055 65.5307 115.02 65.4957Z" fill="#24AF52"/>
<path d="M102.84 104.154C102.857 105.751 102.893 107.348 102.91 108.945C103.963 108.787 105.034 108.629 106.087 108.489C104.999 107.05 103.91 105.593 102.84 104.154Z" fill="#24AF52"/>
<path d="M105.312 166.099C117.035 166.187 128.757 166.274 140.479 166.344C140.444 165.151 140.408 163.958 140.355 162.765C128.668 163.87 116.982 164.976 105.312 166.081V166.099Z" fill="#24AF52"/>
<path d="M203.055 124.703C204.213 125.141 205.371 125.58 206.547 126.001C206.512 125.457 206.459 124.931 206.424 124.387C205.301 124.492 204.195 124.597 203.072 124.685L203.055 124.703Z" fill="#24AF52"/>
<path d="M283.689 53.3345C281.758 55.4578 279.828 57.5811 277.898 59.722C277.74 57.7566 277.564 55.7737 277.406 53.8083C279.494 53.6504 281.6 53.4924 283.689 53.352V53.3345Z" fill="#24AF52"/>
<path d="M324.926 108.716C326.259 109.646 327.575 110.559 328.908 111.489C328.926 110.471 328.944 109.436 328.961 108.418C327.61 108.523 326.277 108.629 324.926 108.716Z" fill="#24AF52"/>
<path d="M324.296 127.721C323.647 127.721 322.997 127.686 322.348 127.686V125.633C323.032 125.598 323.718 125.562 324.419 125.51L324.296 127.721Z" fill="#24AF52"/>
<path d="M143.442 74.6734C143.038 74.6734 142.634 74.6559 142.23 74.6383V73.3573C142.652 73.3398 143.091 73.3047 143.512 73.2871L143.442 74.6559V74.6734Z" fill="#24AF52"/>
<path d="M335.822 36.0148C335.173 36.085 334.523 36.1377 333.874 36.2078L333.629 34.1723C334.313 34.0494 334.98 33.9265 335.665 33.8037C335.717 34.5407 335.77 35.2778 335.822 36.0148Z" fill="#24AF52"/>
<path d="M235.273 133.266C234.623 133.266 233.973 133.231 233.324 133.231V131.178C234.009 131.143 234.692 131.108 235.394 131.055L235.273 133.266Z" fill="#24AF52"/>
<path d="M382.191 163.397C382.103 164.73 382.015 166.064 381.91 167.397C383.7 167.485 385.489 167.573 387.279 167.678C387.455 166.064 387.649 164.467 387.824 162.853C385.946 163.028 384.069 163.221 382.191 163.397Z" fill="#24AF52"/>
<path d="M194.461 165.186C196.707 163.8 198.955 162.414 201.201 161.027V164.888C198.955 164.976 196.707 165.081 194.461 165.169V165.186Z" fill="#24AF52"/>
<path d="M409.223 139.794C412.189 140.04 415.172 140.286 418.138 140.531L418.102 141.953C418.716 141.988 419.349 142.04 419.963 142.075C419.963 142.725 419.944 143.392 419.927 144.058C419.909 145.217 419.874 146.375 419.857 147.533C417.839 146.48 415.82 145.445 413.802 144.392C413.732 149.761 413.662 155.114 413.645 160.483C417.154 160.641 420.699 160.817 424.227 160.975L424.665 165.976C419.436 166.046 414.206 166.081 408.977 166.116L409.24 139.812L409.223 139.794Z" fill="#1A1717"/>
<path d="M437.931 159.448C440.616 160.115 443.319 160.764 446.004 161.431L446.758 166.064L437.984 165.923C437.949 163.765 437.949 161.589 437.914 159.431L437.931 159.448Z" fill="#1A1717"/>
<path d="M442.938 143.847C445.78 144.111 448.623 144.374 451.484 144.672C451.817 151.13 452.168 157.605 452.502 164.063C451.607 165.151 450.711 166.256 449.833 167.344C448.816 167.344 447.799 167.327 446.798 167.309C446.553 165.765 446.288 164.221 446.043 162.676C446.534 162.817 447.044 162.905 447.535 163.045C447.167 158.342 446.832 153.674 446.481 148.989C445.586 148.884 444.657 148.831 443.762 148.726L442.972 143.865L442.938 143.847Z" fill="#1A1717"/>
<path d="M450.886 5.4281C450.886 6.23531 450.695 24.4151 450.677 25.2223C450.677 26.2226 450.447 46.4204 450.447 47.4207C448.289 47.1925 446.114 46.9644 443.956 46.7188L443.658 45.0342C444.149 41.9281 444.675 38.8397 445.219 35.6986C445.149 26.4683 445.114 17.238 445.061 7.97259C442.341 7.91995 439.604 7.86726 436.884 7.81461L436.094 3.28723C440.06 3.21704 444.026 3.14685 447.992 3.07666C448.781 3.72594 449.589 4.37523 450.379 5.00696C450.554 5.14735 450.711 5.28771 450.886 5.4281Z" fill="#1A1717"/>
<path d="M442.656 47.3683C442.762 46.8419 442.815 46.2803 442.92 45.7539L443.218 47.4385C443.025 47.4034 442.849 47.4034 442.656 47.3683Z" fill="#1A1717"/>
<path d="M437.641 9.06056C436.149 9.02547 434.693 8.99037 433.237 8.95528C433.693 14.6058 434.166 20.3089 434.657 25.9594H425.691L424.867 20.888C426.131 20.9231 427.341 20.9932 428.605 21.0459C428.078 15.5884 427.552 10.1661 427.008 4.69105C430.289 4.62086 433.552 4.58579 436.834 4.49805L437.624 9.02543L437.641 9.06056Z" fill="#1A1717"/>
<path d="M413.066 19.1333C416.98 19.2912 420.91 19.4667 424.841 19.6597L425.667 24.7311C421.596 24.7311 417.56 24.7312 413.524 24.6961L413.066 19.1333Z" fill="#1A1717"/>
<path d="M407.962 3.51562C409.191 3.81394 410.42 4.11224 411.595 4.37546V4.41054L412.456 14.6762V15.0447C412.456 16.7644 412.455 18.4841 412.42 20.2038C412.577 20.2038 412.753 20.2039 412.911 20.239L413.367 25.8017H407.734C407.805 18.3964 407.875 10.9384 407.928 3.53314L407.962 3.51562Z" fill="#1A1717"/>
<path d="M411.02 3.16455C413.476 3.76119 415.916 4.35782 418.373 4.91936C418.408 7.09532 418.407 9.28884 418.407 11.4473C416.249 10.9208 414.108 10.3593 411.914 9.79773C411.914 11.0261 411.915 12.2194 411.88 13.4302L411.02 3.16455Z" fill="#1A1717"/>
<path d="M450.952 123.51C450.97 124.527 450.988 125.545 451.006 126.563C449.444 127.475 447.882 128.405 446.32 129.318C444.723 129.23 443.145 129.142 441.548 129.055L440.688 123.72C444.092 123.65 447.531 123.58 450.952 123.527V123.51Z" fill="#1A1717"/>
<path d="M450.06 52.6855C450.13 54.8615 450.2 57.055 450.288 59.231C448.937 59.1257 447.533 59.0029 446.182 58.8625L445.094 52.8084C446.743 52.7382 448.41 52.7031 450.06 52.668V52.6855Z" fill="#1A1717"/>
<path d="M408.75 51.8608C410.873 52.0012 412.979 52.1241 415.103 52.2645C419.77 52.5628 424.473 52.8611 429.141 53.1945H429.58L430.334 57.9325H409.417C409.188 55.9144 408.961 53.8964 408.75 51.8784V51.8608Z" fill="#1A1717"/>
<path d="M436.203 94.8706L445.065 94.9935L449.469 107.137L445.889 117.999H439.975L439.238 113.717H442.485L444.609 107.207L441.73 99.205L436.887 99.1348L436.203 94.8706Z" fill="#1A1717"/>
<path d="M409.894 94.5024L418.562 94.6252L418.914 98.907L409.824 98.7666L409.894 94.5024Z" fill="#1A1717"/>
<path d="M409.717 31.2065L413.157 31.2416L413.561 36.2078C413.122 37.6292 412.701 39.0155 412.245 40.4369C412.684 41.6652 413.07 42.9111 413.474 44.1395C413.737 44.1746 413.965 44.1746 414.228 44.1746V44.2097L414.596 48.4388H409.438L407.191 39.2787L409.736 31.2065H409.717Z" fill="#1A1717"/>
<path d="M447.707 65.9517L449.866 67.1625V77.7966L447.707 65.9517Z" fill="#1A1717"/>
<path d="M415.733 61.3193H415.961L416.523 68.1631C414.804 69.4792 413.118 70.8128 411.434 72.129C411.995 75.8316 412.592 79.5167 413.188 83.2193C414.75 83.2193 416.259 83.2544 417.821 83.2544L418.155 87.5186L407.134 87.4133L406.766 70.5321L415.733 61.3018V61.3193Z" fill="#1A1717"/>
<path d="M415.402 110.472C415.034 114.209 414.701 117.982 414.35 121.72C416.526 121.65 418.719 121.615 420.895 121.579L421.299 126.019H414.35C414.648 129.757 414.947 133.53 415.281 137.303C413.403 137.303 411.507 137.338 409.629 137.338V110.401C411.542 110.436 413.472 110.472 415.419 110.472H415.402Z" fill="#1A1717"/>
<path d="M440.693 122.457L441.553 127.791C438.675 127.598 435.833 127.423 432.99 127.265H421.303L420.898 122.825C427.479 122.685 434.095 122.562 440.693 122.457Z" fill="#1A1717"/>
<path d="M418.559 93.3965L436.196 93.6246L436.879 97.8888L418.91 97.6607L418.559 93.3965Z" fill="#1A1717"/>
<path d="M417.824 84.4824C423.457 84.5175 429.073 84.5526 434.706 84.6228L435.408 88.887L418.176 88.7466L417.843 84.4824H417.824Z" fill="#1A1717"/>
<path d="M431.827 66.952C427.984 66.794 424.157 66.6186 420.314 66.4606C419.051 67.4609 417.806 68.4435 416.543 69.4087L415.98 62.5649L431.073 62.2666L431.827 66.9695V66.952Z" fill="#1A1717"/>
<path d="M414.227 44.2095C418.754 44.4727 423.335 44.771 427.862 45.0693L428.423 48.4386H414.595L414.227 44.2095Z" fill="#1A1717"/>
<path d="M413.16 29.9956L425.637 30.1535L426.304 34.2949C422.128 34.33 417.935 34.33 413.758 34.33C413.688 34.523 413.617 34.7687 413.565 34.9617L413.16 29.9956Z" fill="#1A1717"/>
<path d="M412.813 13.623L413.269 18.8173C413.111 18.7822 412.935 18.7822 412.777 18.7822C412.812 17.0625 412.813 15.3428 412.813 13.623Z" fill="#1A1717"/>
<path d="M427.654 142.216C433.181 142.742 438.674 143.304 444.166 143.83L444.955 148.691C440.813 148.287 436.708 147.866 432.584 147.462C433.145 154.008 433.708 160.571 434.304 167.081C431.058 167.116 427.845 167.151 424.634 167.186L424.195 162.185C426.02 162.291 427.828 162.343 429.653 162.449C428.987 155.692 428.337 148.954 427.635 142.198L427.654 142.216Z" fill="#1A1717"/>
<path d="M420.371 112.489H439.235L439.955 116.753H420.635C420.565 115.332 420.476 113.911 420.371 112.489Z" fill="#1A1717"/>
<path d="M438.741 63.355L447.709 68.4264L449.868 80.2713V90.2386L435.408 90.1333L434.705 85.8692C437.882 85.8692 441.093 85.9043 444.269 85.9394C443.901 81.4471 443.55 76.9372 443.181 72.4449C441.62 71.1288 440.076 69.8302 438.479 68.5141C436.268 68.4088 434.039 68.3211 431.828 68.2158L431.074 63.5129L438.76 63.3725L438.741 63.355Z" fill="#1A1717"/>
<path d="M445.094 54.0541L446.182 60.1082C442.339 59.8099 438.532 59.4765 434.742 59.1431H430.336L429.582 54.4051C434.776 54.2647 439.935 54.1419 445.094 54.0366V54.0541Z" fill="#1A1717"/>
<path d="M425.633 30.1709L436.794 30.3288L440.005 39.2608L437.425 47.2101H428.423L427.862 43.8408C429.161 43.9461 430.442 43.9988 431.74 44.1041C432.741 42.5423 433.723 41.0331 434.758 39.4714C433.933 37.7517 433.144 36.0319 432.337 34.3122H426.317L425.65 30.1709H425.633Z" fill="#1A1717"/>
<path d="M419.055 140.46V141.303H419.897V140.46H419.055Z" fill="#1A1717"/>
<path d="M437.039 93.3966V94.2397H437.881V93.3966H437.039Z" fill="#1A1717"/>
<path d="M448.129 129.037C449.076 129.125 450.024 129.212 450.972 129.3C450.989 128.616 451.006 127.949 451.023 127.265C450.058 127.861 449.094 128.44 448.129 129.037Z" fill="#1A1717"/>
<path d="M450.479 2.16437C450.444 2.65571 450.391 3.16462 450.356 3.65596C449.812 3.12952 449.251 2.58552 448.707 2.05908C449.304 2.09418 449.899 2.12931 450.496 2.14685L450.479 2.16437Z" fill="#1A1717"/>
<path d="M451.113 167.187C451.534 166.713 451.955 166.221 452.358 165.748C452.376 166.239 452.392 166.713 452.41 167.204C451.971 167.204 451.532 167.204 451.094 167.187H451.113Z" fill="#1A1717"/>
</svg>
