<svg width="505" height="154" viewBox="0 0 505 154" fill="none" xmlns="http://www.w3.org/2000/svg">
<path d="M208.383 82.4129C208.351 81.5793 208.309 80.7564 208.277 79.9229H224.473L208.383 82.4129Z" fill="#0F0F0F"/>
<path d="M205.415 84.0166C204.898 98.0494 204.371 112.082 203.854 126.115L190.074 127.054C190.655 113.412 191.256 99.7692 191.836 86.1268L205.415 84.0166Z" fill="#0F0F0F"/>
<path d="M203.9 55.9932C203.552 65.489 203.193 74.9849 202.845 84.4807L189.266 86.5803C189.677 77.0739 190.089 67.5675 190.5 58.0611L203.9 55.9932Z" fill="#0F0F0F"/>
<path d="M226.625 142.279C213.363 142.49 200.089 142.701 186.816 142.912C187.049 137.626 187.27 132.34 187.502 127.054L201.282 126.115C201.24 127.36 201.187 128.605 201.145 129.86C204.542 129.438 207.939 129.006 211.337 128.583C211.295 127.539 211.252 126.484 211.21 125.439L226.351 124.405C226.446 130.367 226.53 136.317 226.625 142.279Z" fill="#0F0F0F"/>
<path d="M282.448 121.019C282.353 123.793 282.184 128.552 282.089 131.327C282.047 132.54 281.91 136.497 281.867 137.71C274.218 139.018 266.568 140.327 258.93 141.635C252.409 141.635 245.889 141.635 239.368 141.635C239.305 138.691 239.242 135.748 239.178 132.815C239.115 129.881 239.052 126.927 238.988 123.994L250.943 123.181C251.217 125.323 251.502 127.465 251.776 129.607C257.484 128.763 263.192 127.919 268.9 127.075C268.847 125.376 268.805 123.667 268.753 121.968L282.427 121.029L282.448 121.019Z" fill="#0F0F0F"/>
<path d="M318.745 140.918C315.453 141.055 312.15 141.192 308.859 141.329C302.539 141.593 296.218 141.857 289.898 142.121C290.162 134.545 290.437 126.959 290.69 119.373L303.752 118.487C303.636 121.335 303.52 124.174 303.404 127.022C306.78 126.59 310.135 126.157 313.501 125.746C313.501 123.108 313.501 120.47 313.48 117.832L327.523 116.883C327.597 122.992 327.671 129.09 327.745 135.199C324.748 137.109 321.741 139.019 318.745 140.918Z" fill="#0F0F0F"/>
<path d="M327.491 71.0812C322.501 71.2922 317.5 71.5138 312.52 71.7248V66.9663L327.27 64.6768C327.344 66.808 327.417 68.9393 327.491 71.0812Z" fill="#0F0F0F"/>
<path d="M328.738 115.321L314.822 117.474C314.822 117.474 314.727 116.355 314.716 116.302C314.695 116.112 314.537 114.256 314.516 114.066C314.558 114.066 317.649 113.654 317.691 113.644C317.902 113.612 324.824 112.705 325.035 112.673C326.217 113.053 327.398 113.422 328.58 113.802C328.633 114.308 328.675 114.815 328.728 115.311L328.738 115.321Z" fill="#0F0F0F"/>
<path d="M357.812 31.9901C356.968 41.5598 356.124 51.14 355.28 60.7097L341.543 62.8304C341.849 53.3451 342.144 43.8493 342.45 34.364L357.812 31.9795V31.9901Z" fill="#0F0F0F"/>
<path d="M354.469 30.2695C354.437 30.6177 354.405 30.987 354.374 31.3352L339.012 33.7196C339.043 32.7595 339.075 31.7888 339.107 30.8181C344.224 30.6388 349.352 30.4594 354.469 30.2695Z" fill="#0F0F0F"/>
<path d="M387.829 41.6334C383.725 46.9511 379.61 52.2583 375.506 57.5759L358.086 60.277C362.781 53.6826 367.476 47.1199 372.171 40.5361C377.384 40.9054 382.596 41.2641 387.819 41.6334H387.829Z" fill="#0F0F0F"/>
<path d="M347.547 115.985V141.023C342.43 141.181 337.313 141.36 332.195 141.519C332.449 133.342 332.712 125.165 332.976 116.988L347.536 115.985H347.547Z" fill="#0F0F0F"/>
<path d="M411.973 142.268C395.787 142.014 379.592 141.772 363.407 141.508C362.172 132.73 360.927 123.941 359.703 115.152L373.715 114.202C373.979 118.792 374.242 123.381 374.506 127.961C386.914 127.359 399.322 126.758 411.73 126.167C411.814 131.537 411.899 136.897 411.983 142.268H411.973Z" fill="#0F0F0F"/>
<path d="M457.023 109.286C456.759 118.919 456.485 128.552 456.221 138.196C454.881 138.417 453.552 138.628 452.212 138.85C452.117 139.958 452.022 141.076 451.927 142.184C441.64 142.026 431.353 141.857 421.066 141.699C420.749 131.739 420.433 121.768 420.105 111.808L434.233 110.848C434.307 115.617 434.391 120.407 434.476 125.176C437.187 125.113 439.899 125.06 442.621 125.007C442.621 120.09 442.621 115.195 442.621 110.278L457.034 109.297L457.023 109.286Z" fill="#0F0F0F"/>
<path d="M460.907 37.4656C460.886 40.2827 460.875 43.0998 460.854 45.9169L446.03 48.217V42.9098C442.854 42.3717 439.678 41.8547 436.503 41.3166C436.545 44.1021 436.598 46.8876 436.64 49.673L421.626 52.0048C421.372 43.9649 421.109 35.9146 420.855 27.8642C429.454 27.7481 438.064 27.6426 446.674 27.5371C451.411 30.8396 456.159 34.1526 460.896 37.4656H460.907Z" fill="#0F0F0F"/>
<path d="M459.135 45.9168C458.998 67.0398 458.872 88.1628 458.734 109.286L444.322 110.267C444.322 89.5766 444.322 68.8968 444.301 48.2063L459.125 45.9062L459.135 45.9168Z" fill="#0F0F0F"/>
<path d="M410.517 112.44C410.38 114.382 410.253 116.334 410.116 118.275C401.148 119.182 392.169 120.09 383.211 120.997C383 118.782 382.779 116.566 382.578 114.35L410.528 112.451L410.517 112.44Z" fill="#0F0F0F"/>
<path d="M230.509 32.2107V52.0254L217.172 54.0934C217.056 50.5166 216.93 46.9398 216.814 43.363C214.366 43.4686 211.929 43.5741 209.481 43.6796C209.333 47.5729 209.196 51.4662 209.048 55.3489L195.648 57.4169C196.018 49.0078 196.376 40.6093 196.746 32.2002H230.509V32.2107Z" fill="#0F0F0F"/>
<path d="M277.247 39.9556C277.004 41.5699 276.761 43.1947 276.519 44.8196L239.516 50.5593C239.464 44.2604 239.4 37.972 239.348 31.6731C243.378 31.4621 247.419 31.2405 251.45 31.04C251.977 33.6883 252.505 36.3471 253.043 38.9954C261.114 39.312 269.186 39.6285 277.247 39.9556Z" fill="#0F0F0F"/>
<path d="M315.096 66.576V58.9055H308.733C308.617 61.8175 308.501 64.719 308.385 67.6311L294.996 69.6991C295.218 63.2419 295.439 56.7742 295.671 50.3064C306.824 47.9641 317.976 45.6218 329.128 43.29C329.371 50.2853 329.614 57.2806 329.856 64.2759L315.106 66.5654L315.096 66.576Z" fill="#0F0F0F"/>
<path d="M227.071 53.6299V63.1257L214.009 64.0858C213.914 61.2898 213.819 58.4938 213.734 55.6978L227.071 53.6299Z" fill="#0F0F0F"/>
<path d="M271.993 45.21C271.539 48.1853 270.579 54.6109 270.126 57.5863C269.799 59.7492 268.902 65.7315 268.575 67.8945C267.446 68.6436 266.327 69.3822 265.198 70.1313C262.075 70.2895 258.963 70.4478 255.84 70.6061C256.684 64.0223 257.538 57.449 258.382 50.8653C254.985 50.7492 251.588 50.6542 248.19 50.5382C248.359 59.4115 248.528 68.2849 248.686 77.1582L235.234 79.2368C235.149 69.8042 235.065 60.3822 234.98 50.9497L271.983 45.21H271.993Z" fill="#0F0F0F"/>
<path d="M376.289 113.991L362.277 114.941C361.834 111.818 361.391 108.684 360.948 105.561C357.34 103.208 353.731 100.866 350.123 98.5129V115.764L335.562 116.766C336.122 99.0826 336.681 81.3887 337.251 63.6948L350.988 61.574C350.872 62.9034 350.756 64.2329 350.64 65.5623C351.684 64.0957 352.739 62.608 353.795 61.1415L371.214 58.4404C364.768 66.7651 358.331 75.1004 351.895 83.4251C359.692 87.8776 367.5 92.3089 375.297 96.7614C375.624 102.512 375.962 108.241 376.289 113.991Z" fill="#0F0F0F"/>
<path d="M404.196 101.32C404.069 103.367 403.942 105.413 403.805 107.46C401.115 108.42 398.424 109.391 395.723 110.372V93.4381C401.463 92.8578 407.202 92.2669 412.942 91.6866C412.742 80.3021 412.552 68.9177 412.362 57.5332C404.259 58.6622 396.156 59.7806 388.053 60.9095C385.858 63.4945 383.663 66.069 381.469 68.6539C382.925 83.8579 384.391 99.0617 385.858 114.266C395.174 113.633 404.491 113 413.807 112.366C413.892 111.121 414.166 107.218 414.25 105.962C414.261 105.772 414.398 103.789 414.419 103.609C412.868 102.533 411.317 101.457 409.766 100.381C407.909 100.687 406.052 101.003 404.196 101.309V101.32ZM394.636 74.362C396.43 72.9798 398.213 71.5871 400.007 70.1943C400.408 73.9716 400.798 77.7489 401.199 81.5261H394.351C394.446 79.1416 394.552 76.7465 394.647 74.3725L394.636 74.362Z" fill="#0F0F0F"/>
<path d="M435.955 110.836L421.828 111.797C421.195 91.8658 420.551 71.9246 419.918 51.9938L434.932 49.6621C435.28 70.0465 435.607 90.4415 435.955 110.836Z" fill="#0F0F0F"/>
<path d="M228.924 124.405L213.783 125.439C213.224 111.29 212.665 97.131 212.105 82.9822L228.196 80.4922H228.238C228.354 88.2577 228.481 96.0232 228.597 103.789C228.702 110.657 228.808 117.547 228.913 124.416L228.924 124.405Z" fill="#0F0F0F"/>
<path d="M250.871 101.182C246.302 102.037 241.734 102.881 237.176 103.725C237.102 95.5589 237.028 87.3924 236.965 79.226L250.417 77.1475C250.576 85.1662 250.723 93.1743 250.871 101.182Z" fill="#0F0F0F"/>
<path d="M283.844 78.4139C284.752 78.3823 285.659 78.3506 286.577 78.3189C286.06 92.4466 285.543 106.585 285.037 120.713C280.479 121.029 275.921 121.335 271.363 121.652C271.331 120.586 271.289 119.531 271.268 118.465C265.317 119.636 259.366 120.808 253.426 121.968C253.468 122.274 253.5 122.57 253.542 122.876L241.588 123.688C241.504 119.383 241.419 115.068 241.324 110.763C252.582 108.853 263.84 106.944 275.108 105.034V89.9777C272.249 89.8616 269.369 89.7667 266.509 89.6612C267.353 92.7632 268.197 95.8757 269.041 98.9777C266.098 99.136 263.143 99.2837 260.2 99.4419C258.986 97.8804 257.784 96.3083 256.57 94.7467C256.38 89.4396 256.19 84.1325 256 78.8253C265.254 77.9707 274.507 77.1162 283.76 76.251L283.855 78.435L283.844 78.4139Z" fill="#0F0F0F"/>
<path d="M305.797 68.0215C305.121 84.8502 304.425 101.668 303.75 118.487L290.688 119.373C291.268 102.945 291.827 86.5173 292.407 70.0895L305.797 68.0215Z" fill="#0F0F0F"/>
<path d="M229.708 126.79H228.094V128.404H229.708V126.79Z" fill="#0F0F0F"/>
<path d="M358.457 28.6982H357.191V29.9643H358.457V28.6982Z" fill="#0F0F0F"/>
<path d="M193.355 53.4922H191.551V55.2964H193.355V53.4922Z" fill="#0F0F0F"/>
<path d="M265.746 71.0494C266.569 70.5219 267.392 69.9943 268.215 69.4668C268.12 70.0154 268.015 70.5641 267.92 71.1127C267.192 71.0916 266.464 71.0705 265.746 71.0494Z" fill="#0F0F0F"/>
<path d="M257.203 98.165C257.224 99.2834 257.235 100.412 257.256 101.531C257.994 101.425 258.744 101.309 259.482 101.204C258.722 100.191 257.963 99.1779 257.203 98.165Z" fill="#0F0F0F"/>
<path d="M258.932 141.625C267.152 141.688 275.381 141.741 283.601 141.804C283.569 140.971 283.548 140.137 283.516 139.293C275.318 140.074 267.12 140.844 258.922 141.625H258.932Z" fill="#0F0F0F"/>
<path d="M327.516 112.578C328.328 112.884 329.141 113.19 329.964 113.496C329.932 113.116 329.9 112.747 329.868 112.367C329.088 112.441 328.296 112.504 327.516 112.578Z" fill="#0F0F0F"/>
<path d="M384.078 62.5137C382.728 64.0014 381.367 65.4996 380.016 66.9873C379.9 65.6051 379.784 64.2229 379.668 62.8407C381.135 62.7352 382.612 62.6297 384.078 62.5137Z" fill="#0F0F0F"/>
<path d="M413.008 101.362C413.936 102.006 414.865 102.66 415.793 103.304C415.804 102.586 415.825 101.869 415.835 101.151C414.896 101.225 413.947 101.299 413.008 101.362Z" fill="#0F0F0F"/>
<path d="M412.551 114.698C412.098 114.698 411.644 114.677 411.18 114.667V113.232C411.665 113.2 412.15 113.179 412.625 113.147L412.541 114.698H412.551Z" fill="#0F0F0F"/>
<path d="M285.687 77.4853C285.402 77.4853 285.117 77.4747 284.832 77.4642V76.5674C285.138 76.5463 285.433 76.5358 285.739 76.5146L285.687 77.4748V77.4853Z" fill="#0F0F0F"/>
<path d="M420.655 50.3588C420.201 50.401 419.748 50.4537 419.294 50.4959L419.125 49.0716C419.6 48.9872 420.075 48.9028 420.549 48.8184L420.655 50.3693V50.3588Z" fill="#0F0F0F"/>
<path d="M350.11 118.592C349.656 118.592 349.203 118.571 348.738 118.56V117.125C349.224 117.094 349.709 117.073 350.184 117.041L350.099 118.592H350.11Z" fill="#0F0F0F"/>
<path d="M453.174 139.736C453.111 140.675 453.048 141.604 452.984 142.543C454.24 142.606 455.495 142.669 456.751 142.733C456.878 141.604 457.004 140.475 457.131 139.346C455.812 139.472 454.493 139.599 453.174 139.726V139.736Z" fill="#0F0F0F"/>
<path d="M321.477 140.98C323.049 140.01 324.621 139.039 326.203 138.068V140.78C324.631 140.843 323.059 140.917 321.477 140.98Z" fill="#0F0F0F"/>
<path d="M472.147 123.16C474.236 123.329 476.315 123.498 478.404 123.677L478.372 124.679C478.805 124.711 479.237 124.743 479.67 124.774C479.67 125.239 479.659 125.703 479.649 126.167C479.638 126.98 479.617 127.792 479.596 128.604C478.182 127.866 476.768 127.138 475.344 126.399C475.302 130.155 475.249 133.922 475.228 137.678C477.686 137.794 480.176 137.91 482.656 138.026L482.962 141.529C479.29 141.572 475.629 141.603 471.957 141.624L472.147 123.171V123.16Z" fill="#0F0F0F"/>
<path d="M492.285 136.95C494.163 137.414 496.073 137.879 497.951 138.343L498.489 141.593L492.338 141.498C492.317 139.989 492.317 138.459 492.296 136.95H492.285Z" fill="#0F0F0F"/>
<path d="M495.789 126.009C497.783 126.199 499.777 126.378 501.782 126.589C502.025 131.126 502.257 135.663 502.499 140.189C501.877 140.959 501.244 141.719 500.621 142.489C499.915 142.489 499.197 142.468 498.49 142.468C498.311 141.381 498.131 140.305 497.952 139.219C498.3 139.314 498.648 139.377 498.997 139.472C498.743 136.18 498.511 132.899 498.258 129.607C497.635 129.533 496.981 129.491 496.359 129.417L495.8 126.009H495.789Z" fill="#0F0F0F"/>
<path d="M501.37 28.9086C501.37 29.4678 501.233 42.2345 501.223 42.7937C501.223 43.5006 501.064 57.66 501.064 58.3669C499.556 58.2087 498.026 58.0398 496.517 57.8816L496.306 56.6999C496.654 54.5158 497.023 52.3634 497.393 50.1583C497.35 43.68 497.319 37.2017 497.277 30.7023C495.367 30.6601 493.457 30.6285 491.547 30.5863L490.988 27.4104C493.774 27.3577 496.549 27.3155 499.334 27.2627C499.893 27.7164 500.452 28.1701 501.012 28.6238C501.128 28.7188 501.254 28.8137 501.37 28.9192V28.9086Z" fill="#0F0F0F"/>
<path d="M495.586 58.325C495.66 57.9557 495.702 57.5548 495.776 57.1855L495.987 58.3672C495.85 58.3461 495.734 58.3461 495.596 58.325H495.586Z" fill="#0F0F0F"/>
<path d="M492.075 31.4511C491.03 31.43 490.007 31.4088 488.984 31.3772C489.311 35.3443 489.638 39.3432 489.986 43.3103H483.698L483.117 39.7546C484.003 39.7757 484.858 39.8285 485.744 39.8707C485.375 36.0407 485.006 32.2318 484.626 28.4018C486.926 28.3596 489.226 28.328 491.516 28.2646L492.075 31.4405V31.4511Z" fill="#0F0F0F"/>
<path d="M474.846 38.5205C477.59 38.6366 480.343 38.7526 483.108 38.8898L483.688 42.4454C480.829 42.4454 478.001 42.4454 475.163 42.4243L474.836 38.5205H474.846Z" fill="#0F0F0F"/>
<path d="M471.254 27.5584C472.109 27.7694 472.974 27.9805 473.808 28.1598V28.1809L474.409 35.3766V35.6299C474.409 36.8327 474.409 38.0461 474.388 39.2489C474.504 39.2489 474.62 39.2488 474.736 39.2699L475.063 43.1738H471.117C471.159 37.9722 471.212 32.7495 471.254 27.5479V27.5584Z" fill="#0F0F0F"/>
<path d="M473.398 27.3154C475.118 27.7375 476.838 28.1489 478.547 28.5499C478.568 30.0798 478.568 31.6097 478.568 33.1184C477.06 32.7492 475.551 32.3482 474.021 31.9578C474.021 32.8124 474.021 33.6565 474 34.5111L473.398 27.3154Z" fill="#0F0F0F"/>
<path d="M501.411 111.744C501.421 112.451 501.432 113.169 501.453 113.875C500.355 114.519 499.258 115.163 498.161 115.806C497.042 115.743 495.935 115.68 494.816 115.616L494.215 111.881C496.61 111.839 499.016 111.786 501.411 111.744Z" fill="#0F0F0F"/>
<path d="M500.785 62.0596C500.827 63.5895 500.88 65.1193 500.944 66.6598C499.994 66.5859 499.013 66.5015 498.063 66.4066L497.293 62.1545C498.454 62.1123 499.614 62.0807 500.775 62.0596H500.785Z" fill="#0F0F0F"/>
<path d="M471.816 61.4795C473.304 61.5745 474.792 61.6694 476.269 61.7538C479.54 61.9648 482.842 62.1758 486.113 62.4079H486.419L486.957 65.7315H472.281C472.122 64.3177 471.954 62.9039 471.816 61.4795Z" fill="#0F0F0F"/>
<path d="M491.062 91.6445L497.288 91.7395L500.368 100.265L497.868 107.872H493.711L493.194 104.875H495.473L496.96 100.307L494.935 94.6938L491.548 94.641L491.062 91.6445Z" fill="#0F0F0F"/>
<path d="M472.611 91.3916L478.689 91.4865L478.942 94.483L472.559 94.388L472.611 91.3916Z" fill="#0F0F0F"/>
<path d="M472.493 46.9932L474.909 47.0143L475.183 50.4961C474.877 51.4984 474.582 52.4691 474.255 53.4715C474.561 54.3261 474.835 55.2124 475.11 56.067C475.299 56.0881 475.458 56.0881 475.648 56.0881V56.1092L475.901 59.0846H472.282L470.699 52.659L472.482 46.9932H472.493Z" fill="#0F0F0F"/>
<path d="M499.145 71.3555L500.653 72.2207V79.6696L499.145 71.3555Z" fill="#0F0F0F"/>
<path d="M476.713 68.1053H476.871L477.262 72.906C476.059 73.8344 474.867 74.7629 473.685 75.6914C474.075 78.287 474.497 80.8719 474.919 83.4675C476.006 83.4675 477.082 83.4886 478.169 83.4886L478.401 86.485L470.667 86.4111L470.414 74.573L476.702 68.0947L476.713 68.1053Z" fill="#0F0F0F"/>
<path d="M476.481 102.597C476.228 105.224 475.996 107.862 475.743 110.489C477.273 110.447 478.802 110.415 480.343 110.394L480.617 113.506H475.743C475.954 116.134 476.165 118.771 476.397 121.42C475.078 121.42 473.749 121.441 472.43 121.441V102.544C473.78 102.565 475.12 102.586 476.492 102.586L476.481 102.597Z" fill="#0F0F0F"/>
<path d="M494.213 111.006L494.815 114.741C492.799 114.604 490.795 114.488 488.801 114.372H480.602L480.328 111.259C484.949 111.164 489.592 111.069 494.213 111.006Z" fill="#0F0F0F"/>
<path d="M478.684 90.6211L491.06 90.7793L491.545 93.7758L478.937 93.607L478.684 90.6211Z" fill="#0F0F0F"/>
<path d="M478.18 84.375C482.126 84.3961 486.072 84.4172 490.018 84.47L490.503 87.4664L478.412 87.3715L478.18 84.375Z" fill="#0F0F0F"/>
<path d="M487.992 72.0614C485.301 71.9454 482.611 71.8293 479.91 71.7132C479.023 72.4096 478.148 73.106 477.261 73.7812L476.871 68.9806L487.454 68.7695L487.992 72.0614Z" fill="#0F0F0F"/>
<path d="M475.648 56.119C478.824 56.3089 482.032 56.5094 485.218 56.7204L485.608 59.0838H475.902L475.648 56.1084V56.119Z" fill="#0F0F0F"/>
<path d="M474.91 46.1484L483.667 46.2645L484.132 49.166C481.209 49.1871 478.255 49.1871 475.332 49.1871C475.29 49.3243 475.237 49.4931 475.195 49.6302L474.921 46.1484H474.91Z" fill="#0F0F0F"/>
<path d="M474.654 34.6592L474.981 38.2993C474.865 38.2782 474.749 38.2781 474.633 38.2781C474.654 37.0753 474.654 35.862 474.654 34.6592Z" fill="#0F0F0F"/>
<path d="M485.072 124.869C488.945 125.238 492.806 125.639 496.657 126.009L497.216 129.417C494.315 129.142 491.435 128.836 488.533 128.562C488.923 133.162 489.324 137.752 489.736 142.331C487.457 142.352 485.209 142.373 482.962 142.405L482.656 138.902C483.933 138.976 485.21 139.018 486.486 139.092C486.022 134.354 485.558 129.617 485.072 124.88V124.869Z" fill="#0F0F0F"/>
<path d="M479.96 104.01H493.191L493.697 107.006H480.139C480.097 106.004 480.023 105.012 479.949 104.01H479.96Z" fill="#0F0F0F"/>
<path d="M492.845 69.5506L499.133 73.1063L500.642 81.4204V88.4051L490.492 88.3313L490.007 85.3348C492.233 85.3348 494.491 85.3559 496.717 85.377C496.464 82.2223 496.21 79.0676 495.947 75.9023C494.86 74.9738 493.763 74.0664 492.655 73.1379C491.104 73.0641 489.542 73.0008 487.991 72.9269L487.453 69.635L492.834 69.54L492.845 69.5506Z" fill="#0F0F0F"/>
<path d="M497.307 63.0195L498.077 67.2716C495.386 67.0606 492.717 66.8284 490.048 66.5963H486.956L486.418 63.2727C490.058 63.1778 493.688 63.0828 497.307 63.0195Z" fill="#0F0F0F"/>
<path d="M483.656 46.2646L491.485 46.3807L493.732 52.648L491.918 58.2189H485.608L485.218 55.8555C486.125 55.9293 487.033 55.9715 487.929 56.0454C488.626 54.9586 489.322 53.8824 490.04 52.7957C489.459 51.5929 488.9 50.3795 488.341 49.1767H484.121L483.656 46.2752V46.2646Z" fill="#0F0F0F"/>
<path d="M479.031 123.645V124.236H479.622V123.645H479.031Z" fill="#0F0F0F"/>
<path d="M491.664 90.6211V91.2119H492.255V90.6211H491.664Z" fill="#0F0F0F"/>
<path d="M499.441 115.616C500.106 115.68 500.771 115.743 501.436 115.806C501.446 115.331 501.457 114.857 501.478 114.382C500.803 114.793 500.127 115.205 499.452 115.616H499.441Z" fill="#0F0F0F"/>
<path d="M501.085 26.619C501.053 26.9671 501.022 27.3153 501.001 27.6741C500.61 27.3048 500.23 26.9249 499.84 26.5557C500.262 26.5768 500.673 26.5979 501.095 26.619H501.085Z" fill="#0F0F0F"/>
<path d="M501.527 142.384C501.823 142.047 502.118 141.709 502.403 141.382C502.414 141.719 502.424 142.057 502.445 142.405C502.139 142.405 501.833 142.405 501.527 142.395V142.384Z" fill="#0F0F0F"/>
<path d="M154.383 133.131C154.267 137.13 154.13 141.118 154.014 145.117C121.517 147.248 89.0309 149.4 56.534 151.532C56.4918 146.256 56.4602 140.97 56.418 135.695L154.383 133.141V133.131Z" fill="#1C6833"/>
<path d="M141.151 21.8389C146.585 25.7427 152.018 29.6465 157.452 33.5398C153.96 37.4648 150.457 41.4003 146.965 45.3252C117.232 49.6406 87.5099 53.9665 57.7774 58.2818C57.7352 53.7977 57.7035 49.1658 57.6613 44.6816C57.6297 40.1447 57.5875 35.6183 57.5664 31.0814C85.4314 28.0006 113.296 24.9197 141.151 21.8389Z" fill="#1C6833"/>
<path d="M22.2713 20.0666L11.2773 21.6598C11.3195 18.4312 11.3406 15.2237 11.3828 11.9951C15.0124 14.6856 18.6418 17.3761 22.2713 20.0666Z" fill="#0F0F0F"/>
<path d="M60.3116 135.695L34.6412 136.37C25.1137 130.778 15.5861 125.165 6.05859 119.573C6.24851 101.71 6.4279 83.8582 6.60726 65.9954L29.4818 62.6719L59.8474 74.5522C59.9846 94.9367 60.1639 115.311 60.3116 135.695Z" fill="black"/>
<path d="M20.0028 62.4079C14.9173 63.0621 9.83165 63.7163 4.74609 64.3704C4.7672 62.7456 4.78835 61.1102 4.7989 59.4854C9.86335 60.456 14.9384 61.4372 20.0028 62.4079Z" fill="#0F0F0F"/>
<path d="M61.7992 74.5518L31.4336 62.6714L61.6832 58.2822C61.7043 63.6949 61.7465 69.1286 61.7992 74.5518Z" fill="#0F0F0F"/>
<path d="M52.6341 151.531C44.0456 146.467 35.4361 141.424 26.8477 136.37L52.5181 135.694C52.5603 140.97 52.5919 146.256 52.6341 151.531Z" fill="#0F0F0F"/>
<path d="M70.8614 9.94799C54.94 12.2375 39.008 14.5377 23.0867 16.8272C18.7397 13.6725 14.3821 10.5283 10.0352 7.37355C27.0433 5.74871 44.0619 4.12387 61.0701 2.49902C64.3303 4.9785 67.6011 7.46852 70.8614 9.94799Z" fill="#24AF52"/>
<path d="M122.011 8.31301C108.253 9.9062 94.4946 11.4994 80.7468 13.0926C77.4549 10.592 74.163 8.09142 70.8711 5.59084C85.2942 4.5463 99.7174 3.51232 114.151 2.46777C116.778 4.40915 119.395 6.36107 122.022 8.30244L122.011 8.31301Z" fill="#24AF52"/>
<path d="M157.459 33.5398C124.16 37.9079 90.8613 42.276 57.5625 46.6441C45.7982 37.929 34.0338 29.2034 22.2695 20.4883L120.604 6.21289C126.123 10.3172 134.711 16.6795 140.229 20.7838C144.682 24.0862 152.996 30.2479 157.459 33.5504V33.5398Z" fill="#24AF52"/>
<path d="M56.4154 67.5359C38.4472 63.8958 20.4683 60.2451 2.5 56.605C2.60551 45.9486 2.71108 35.2816 2.82714 24.6251L19.8353 22.1562C31.5996 30.8713 43.3638 39.5969 55.1281 48.312C55.5607 54.7164 55.9828 61.1314 56.4154 67.5359Z" fill="black"/>
<path d="M165.513 44.1123C164.806 67.356 164.078 90.5892 163.371 113.833L66.2176 75.1004C66.1649 69.6878 66.1227 64.2541 66.1016 58.8309L165.513 44.1123Z" fill="#1C6833"/>
<path d="M71.4206 138.026C68.2976 138.111 65.185 138.184 62.062 138.269C62.0092 132.35 61.8721 113.622 61.8193 107.703C61.7349 97.5106 61.661 87.3289 61.5977 77.1367C75.6621 82.6338 89.737 88.1414 103.801 93.6384C93.0078 108.441 82.2143 123.234 71.4206 138.037V138.026Z" fill="#1C6833"/>
<path d="M110.487 92.752C100.084 106.183 89.6806 119.604 79.2773 133.035C107.765 132.307 136.242 131.59 164.729 130.862C164.867 125.302 165.004 119.741 165.13 114.181C146.919 107.038 128.698 99.8949 110.487 92.752Z" fill="#1C6833"/>
<path d="M161.66 133.131H156.965V137.415H161.66V133.131Z" fill="#24AF52"/>
<path d="M157.26 36.8848C154.77 39.5436 152.291 42.1919 149.801 44.8508C152.27 44.5131 154.749 44.1649 157.218 43.8273C157.229 41.5166 157.25 39.206 157.26 36.8953V36.8848Z" fill="#24AF52"/>
</svg>
