<svg width="505" height="154" viewBox="0 0 505 154" fill="none" xmlns="http://www.w3.org/2000/svg">
<path d="M206.404 77.1096C206.37 76.2701 206.335 75.4421 206.301 74.6025H222.608L206.404 77.1096Z" fill="#0F0F0F"/>
<path d="M203.43 78.7195C202.912 92.8422 202.383 106.976 201.866 121.099L187.996 122.042C188.583 108.31 189.18 94.5672 189.767 80.8356L203.43 78.708V78.7195Z" fill="#0F0F0F"/>
<path d="M201.896 50.5088C201.54 60.0657 201.183 69.6342 200.827 79.1911L187.164 81.3072C187.578 71.7387 187.992 62.1703 188.406 52.6019L201.896 50.5203V50.5088Z" fill="#0F0F0F"/>
<path d="M224.775 137.373C211.423 137.591 198.059 137.798 184.695 138.017C184.925 132.692 185.155 127.379 185.385 122.042L199.255 121.099C199.209 122.353 199.163 123.606 199.117 124.871C202.533 124.446 205.96 124.009 209.375 123.595C209.329 122.537 209.284 121.479 209.249 120.421L224.487 119.386C224.579 125.389 224.671 131.381 224.763 137.384L224.775 137.373Z" fill="#0F0F0F"/>
<path d="M280.975 115.97C280.883 118.764 280.71 123.548 280.618 126.343C280.572 127.562 280.446 131.553 280.4 132.772C272.706 134.083 265.001 135.405 257.307 136.716C250.74 136.716 244.185 136.716 237.618 136.716C237.561 133.749 237.492 130.794 237.434 127.827C237.377 124.859 237.308 121.904 237.25 118.937L249.291 118.12C249.567 120.271 249.855 122.433 250.131 124.583C255.881 123.732 261.62 122.881 267.37 122.042C267.312 120.328 267.278 118.615 267.22 116.901L280.987 115.958L280.975 115.97Z" fill="#0F0F0F"/>
<path d="M317.511 136.004C314.188 136.142 310.876 136.28 307.552 136.418C301.192 136.682 294.832 136.947 288.473 137.223C288.737 129.598 289.013 121.95 289.266 114.325L302.411 113.428C302.296 116.292 302.181 119.155 302.066 122.019C305.459 121.582 308.851 121.156 312.233 120.731C312.233 118.074 312.233 115.418 312.21 112.761L326.355 111.795C326.424 117.936 326.505 124.089 326.574 130.23C323.549 132.151 320.536 134.071 317.511 135.992V136.004Z" fill="#0F0F0F"/>
<path d="M326.319 65.701C321.293 65.9196 316.268 66.1381 311.242 66.3451V61.5608L326.089 59.2607C326.17 61.4113 326.239 63.5504 326.319 65.701Z" fill="#0F0F0F"/>
<path d="M327.576 110.231L313.569 112.393C313.569 112.393 313.465 111.277 313.465 111.22C313.453 111.024 313.281 109.161 313.27 108.966C313.304 108.966 316.421 108.552 316.467 108.54C316.685 108.517 323.654 107.597 323.861 107.562C325.046 107.942 326.242 108.322 327.427 108.701C327.473 109.207 327.53 109.713 327.576 110.219V110.231Z" fill="#0F0F0F"/>
<path d="M356.857 26.3464C356.006 35.9839 355.155 45.6213 354.316 55.2588L340.48 57.3978C340.779 47.8409 341.09 38.2955 341.389 28.7386L356.857 26.335V26.3464Z" fill="#0F0F0F"/>
<path d="M353.486 24.6094C353.452 24.9659 353.428 25.3339 353.394 25.6789L337.926 28.0825C337.96 27.1165 337.983 26.1389 338.018 25.1614C343.17 24.9774 348.334 24.7934 353.486 24.6094Z" fill="#0F0F0F"/>
<path d="M387.069 36.0531C382.94 41.4008 378.8 46.7486 374.671 52.0963L357.133 54.8104C361.86 48.1746 366.586 41.5618 371.313 34.9375C376.557 35.3055 381.813 35.6736 387.069 36.0416V36.0531Z" fill="#0F0F0F"/>
<path d="M346.519 110.898V136.096C341.367 136.257 336.215 136.43 331.074 136.602C331.339 128.368 331.592 120.145 331.868 111.899L346.531 110.898H346.519Z" fill="#0F0F0F"/>
<path d="M411.369 137.372C395.072 137.119 378.776 136.866 362.48 136.613C361.238 127.769 359.984 118.925 358.742 110.081L372.853 109.115C373.118 113.727 373.382 118.35 373.647 122.973C386.136 122.364 398.626 121.766 411.115 121.168C411.207 126.573 411.288 131.978 411.369 137.384V137.372Z" fill="#0F0F0F"/>
<path d="M456.729 104.159C456.464 113.854 456.188 123.56 455.924 133.255C454.578 133.474 453.232 133.692 451.887 133.911C451.795 135.026 451.703 136.153 451.611 137.269C441.249 137.108 430.898 136.947 420.536 136.774C420.214 126.746 419.892 116.706 419.57 106.678L433.785 105.712C433.866 110.519 433.946 115.337 434.027 120.133C436.752 120.076 439.489 120.018 442.226 119.961C442.226 115.015 442.226 110.082 442.226 105.136L456.729 104.147V104.159Z" fill="#0F0F0F"/>
<path d="M460.637 31.8551C460.626 34.6957 460.603 37.5248 460.58 40.3655L445.664 42.6771V37.3293C442.466 36.7888 439.269 36.2598 436.072 35.7307C436.118 38.5369 436.164 41.3315 436.21 44.1376L421.099 46.4837C420.834 38.3874 420.581 30.2795 420.316 22.1831C428.976 22.0681 437.648 21.9531 446.308 21.8496C451.08 25.1733 455.865 28.5084 460.626 31.8436L460.637 31.8551Z" fill="#0F0F0F"/>
<path d="M458.853 40.3652C458.715 61.6297 458.589 82.8942 458.451 104.159L443.949 105.148C443.949 84.3202 443.949 63.5043 443.926 42.6769L458.842 40.3652H458.853Z" fill="#0F0F0F"/>
<path d="M409.896 107.345C409.758 109.3 409.631 111.255 409.493 113.221C400.465 114.13 391.426 115.05 382.409 115.959C382.191 113.728 381.973 111.496 381.766 109.265L409.907 107.356L409.896 107.345Z" fill="#0F0F0F"/>
<path d="M228.682 26.5645V46.5064L215.261 48.5879C215.134 44.9883 215.019 41.3771 214.893 37.789C212.431 37.8925 209.97 38.0075 207.509 38.111C207.36 42.0212 207.222 45.9428 207.072 49.8645L193.582 51.9461C193.95 43.4817 194.318 35.0288 194.686 26.5645H228.682Z" fill="#0F0F0F"/>
<path d="M275.729 34.3625C275.488 35.9956 275.235 37.6172 274.993 39.2502L237.743 45.0235C237.685 38.6867 237.628 32.35 237.582 26.0132C241.642 25.7947 245.701 25.5761 249.761 25.3691C250.29 28.0373 250.831 30.7168 251.36 33.385C259.479 33.707 267.61 34.029 275.729 34.351V34.3625Z" fill="#0F0F0F"/>
<path d="M313.843 61.1695V53.4411H307.437C307.31 56.3738 307.207 59.2949 307.08 62.2275L293.602 64.3091C293.832 57.8113 294.05 51.2905 294.28 44.7927C305.516 42.4351 316.741 40.0776 327.954 37.7314C328.195 44.7698 328.448 51.8196 328.69 58.8579L313.843 61.158V61.1695Z" fill="#0F0F0F"/>
<path d="M225.222 48.1279V57.6849L212.077 58.6509C211.985 55.8333 211.881 53.0271 211.801 50.2095L225.222 48.1279Z" fill="#0F0F0F"/>
<path d="M270.442 39.6521C269.993 42.6423 269.015 49.1171 268.567 52.1072C268.245 54.2808 267.336 60.3071 267.003 62.4807C265.864 63.2282 264.737 63.9757 263.599 64.7233C260.459 64.8843 257.319 65.0453 254.18 65.2063C255.031 58.582 255.882 51.9577 256.744 45.3334C253.329 45.2184 249.902 45.1149 246.486 44.9999C246.647 53.9358 246.819 62.8602 246.992 71.7961L233.444 73.8892C233.352 64.4012 233.272 54.9018 233.18 45.4139L270.43 39.6406L270.442 39.6521Z" fill="#0F0F0F"/>
<path d="M375.441 108.897L361.33 109.863C360.881 106.723 360.433 103.572 359.996 100.421C356.361 98.052 352.727 95.6944 349.105 93.3253V110.691L334.441 111.692C335.005 93.8888 335.568 76.086 336.143 58.2717L349.979 56.1326C349.852 57.4667 349.749 58.8122 349.622 60.1463C350.68 58.6627 351.738 57.1792 352.796 55.6956L370.334 52.9814C363.848 61.3653 357.374 69.7607 350.887 78.1446C358.742 82.6183 366.597 87.092 374.452 91.5657C374.785 97.3505 375.119 103.124 375.452 108.908L375.441 108.897Z" fill="#0F0F0F"/>
<path d="M403.539 96.1432C403.412 98.2018 403.274 100.26 403.148 102.331C400.434 103.297 397.731 104.274 395.017 105.263V88.2194C400.79 87.6329 406.575 87.0463 412.36 86.4483C412.164 74.9938 411.969 63.5278 411.773 52.0732C403.619 53.2118 395.454 54.3389 387.3 55.4774C385.092 58.0765 382.884 60.6757 380.676 63.2748C382.148 78.582 383.62 93.8892 385.092 109.196C394.477 108.564 403.849 107.92 413.234 107.287C413.326 106.034 413.59 102.101 413.683 100.847C413.694 100.663 413.832 98.6619 413.843 98.4779C412.279 97.3968 410.715 96.3158 409.151 95.2347L403.55 96.1663L403.539 96.1432ZM393.924 69.002C395.73 67.6104 397.524 66.2074 399.33 64.8043C399.732 68.611 400.123 72.4062 400.526 76.2129H393.637C393.729 73.8093 393.832 71.4056 393.936 69.0135L393.924 69.002Z" fill="#0F0F0F"/>
<path d="M435.522 105.723L421.307 106.689C420.663 86.6206 420.031 66.5522 419.387 46.4838L434.498 44.1377C434.843 64.6661 435.177 85.1946 435.533 105.723H435.522Z" fill="#0F0F0F"/>
<path d="M227.093 119.374L211.855 120.409C211.291 106.16 210.728 91.9105 210.164 77.6614L226.368 75.1543H226.414C226.541 82.9747 226.656 90.7835 226.783 98.6039C226.886 105.527 227.001 112.45 227.104 119.374H227.093Z" fill="#0F0F0F"/>
<path d="M249.188 96.0047C244.587 96.8673 239.987 97.7183 235.398 98.5694C235.318 90.3465 235.249 82.1236 235.18 73.9007L248.727 71.8076C248.888 79.881 249.027 87.9429 249.188 96.0047Z" fill="#0F0F0F"/>
<path d="M282.379 73.0841C283.299 73.0496 284.208 73.0151 285.128 72.9806C284.61 87.2067 284.093 101.433 283.575 115.659C278.987 115.97 274.398 116.292 269.809 116.602C269.775 115.533 269.74 114.463 269.717 113.393C263.725 114.566 257.745 115.751 251.753 116.913C251.799 117.212 251.834 117.522 251.88 117.821L239.839 118.638C239.747 114.302 239.666 109.955 239.574 105.619C250.914 103.698 262.242 101.778 273.581 99.8458V84.6881C270.695 84.5731 267.808 84.4696 264.921 84.3661C265.772 87.4942 266.623 90.6224 267.463 93.7505C264.496 93.9115 261.529 94.061 258.562 94.2221C257.343 92.6465 256.124 91.0709 254.905 89.4953C254.709 84.1476 254.525 78.8113 254.329 73.4636C263.645 72.6011 272.96 71.7385 282.276 70.876L282.379 73.0726V73.0841Z" fill="#0F0F0F"/>
<path d="M304.485 62.6191C303.806 79.5594 303.105 96.4997 302.427 113.428L289.281 114.325C289.856 97.7877 290.431 81.25 291.018 64.7122L304.496 62.6307L304.485 62.6191Z" fill="#0F0F0F"/>
<path d="M227.864 121.789H226.242V123.411H227.864V121.789Z" fill="#0F0F0F"/>
<path d="M357.476 23.0225H356.211V24.2875H357.476V23.0225Z" fill="#0F0F0F"/>
<path d="M191.282 47.9902H189.465V49.8073H191.282V47.9902Z" fill="#0F0F0F"/>
<path d="M264.16 65.6662C264.988 65.1372 265.816 64.6081 266.644 64.0791C266.54 64.6311 266.448 65.1832 266.345 65.7352C265.609 65.7122 264.884 65.6892 264.148 65.6777L264.16 65.6662Z" fill="#0F0F0F"/>
<path d="M255.547 92.9688C255.57 94.0958 255.581 95.2228 255.604 96.3614C256.352 96.2464 257.099 96.1429 257.847 96.0279C257.076 95.0043 256.317 93.9923 255.547 92.9688Z" fill="#0F0F0F"/>
<path d="M257.309 136.717C265.589 136.775 273.869 136.832 282.15 136.901C282.127 136.062 282.092 135.222 282.069 134.371L257.309 136.717Z" fill="#0F0F0F"/>
<path d="M326.348 107.471C327.164 107.782 327.992 108.081 328.809 108.391C328.774 108.012 328.751 107.632 328.717 107.253C327.923 107.322 327.141 107.391 326.348 107.471Z" fill="#0F0F0F"/>
<path d="M383.283 57.0762C381.914 58.5827 380.557 60.0778 379.189 61.5844C379.074 60.1928 378.959 58.8013 378.844 57.4097C380.327 57.3062 381.799 57.1912 383.283 57.0877V57.0762Z" fill="#0F0F0F"/>
<path d="M412.402 96.1892C413.334 96.8447 414.277 97.4888 415.208 98.1443C415.22 97.4198 415.231 96.6952 415.254 95.9707C414.3 96.0397 413.357 96.1202 412.402 96.1892Z" fill="#0F0F0F"/>
<path d="M411.955 109.61C411.494 109.61 411.034 109.587 410.574 109.575V108.126C411.057 108.103 411.552 108.069 412.035 108.046L411.955 109.598V109.61Z" fill="#0F0F0F"/>
<path d="M284.241 72.1418C283.954 72.1418 283.666 72.1303 283.379 72.1188V71.2218C283.678 71.2103 283.988 71.1873 284.287 71.1758L284.241 72.1418Z" fill="#0F0F0F"/>
<path d="M420.107 44.8387C419.647 44.8847 419.187 44.9307 418.739 44.9767L418.566 43.5391C419.049 43.4586 419.521 43.3666 420.004 43.2861L420.107 44.8387Z" fill="#0F0F0F"/>
<path d="M349.095 113.52C348.635 113.52 348.175 113.497 347.715 113.486V112.037C348.198 112.014 348.692 111.979 349.175 111.956L349.095 113.509V113.52Z" fill="#0F0F0F"/>
<path d="M452.852 134.807C452.783 135.75 452.725 136.693 452.656 137.636C453.921 137.705 455.186 137.763 456.451 137.832C456.578 136.693 456.704 135.566 456.842 134.428C455.52 134.554 454.186 134.681 452.863 134.819L452.852 134.807Z" fill="#0F0F0F"/>
<path d="M320.273 136.062C321.861 135.084 323.448 134.106 325.023 133.129V135.855C323.436 135.924 321.849 135.993 320.273 136.062Z" fill="#0F0F0F"/>
<path d="M471.945 118.132C474.05 118.304 476.143 118.477 478.248 118.649L478.213 119.661C478.65 119.696 479.087 119.719 479.524 119.753C479.524 120.213 479.513 120.685 479.501 121.145C479.49 121.973 479.467 122.789 479.444 123.594C478.018 122.847 476.592 122.122 475.166 121.375C475.12 125.158 475.074 128.942 475.051 132.737C477.523 132.852 480.03 132.967 482.526 133.082L482.825 136.613C479.133 136.659 475.442 136.682 471.75 136.705L471.934 118.12L471.945 118.132Z" fill="#0F0F0F"/>
<path d="M492.215 132.013C494.112 132.484 496.022 132.944 497.919 133.416L498.46 136.693L492.261 136.601C492.238 135.083 492.238 133.542 492.215 132.024V132.013Z" fill="#0F0F0F"/>
<path d="M495.75 120.996C497.762 121.18 499.775 121.375 501.776 121.582C502.018 126.148 502.259 130.714 502.501 135.28C501.868 136.05 501.247 136.821 500.614 137.591C499.901 137.591 499.177 137.58 498.464 137.568C498.28 136.476 498.108 135.383 497.924 134.29C498.269 134.382 498.625 134.451 498.97 134.543C498.717 131.22 498.476 127.931 498.223 124.607C497.59 124.538 496.934 124.492 496.302 124.423L495.738 120.984L495.75 120.996Z" fill="#0F0F0F"/>
<path d="M501.372 23.241C501.372 23.8046 501.234 36.6507 501.223 37.2257C501.223 37.9387 501.062 52.1878 501.062 52.9124C499.544 52.7514 498.003 52.5904 496.485 52.4179L496.277 51.2218C496.622 49.0252 497.002 46.8516 497.381 44.632C497.335 38.1112 497.312 31.5904 497.266 25.0466C495.346 25.0121 493.414 24.9661 491.493 24.9316L490.93 21.7345C493.736 21.6885 496.531 21.6425 499.337 21.585C499.9 22.045 500.464 22.4935 501.027 22.9535C501.142 23.057 501.269 23.149 501.384 23.2525L501.372 23.241Z" fill="#0F0F0F"/>
<path d="M495.551 52.8551C495.62 52.4756 495.665 52.0846 495.734 51.7051L495.941 52.9011C495.803 52.8781 495.689 52.8781 495.539 52.8551H495.551Z" fill="#0F0F0F"/>
<path d="M492.012 25.8055C490.966 25.7825 489.931 25.7595 488.907 25.7365C489.229 29.7387 489.562 33.7524 489.907 37.7546H483.571L482.984 34.1779C483.87 34.2009 484.732 34.2469 485.629 34.2929C485.25 30.4403 484.882 26.5991 484.502 22.7464C486.814 22.7004 489.125 22.6774 491.449 22.6084L492.012 25.8055Z" fill="#0F0F0F"/>
<path d="M474.668 32.9248C477.428 33.0398 480.211 33.1548 482.983 33.3043L483.569 36.881C480.694 36.881 477.842 36.881 474.99 36.858L474.668 32.9363V32.9248Z" fill="#0F0F0F"/>
<path d="M471.056 21.8845C471.919 22.0915 472.781 22.3101 473.632 22.4941V22.5171L474.242 29.7624V30.0154C474.242 31.2345 474.242 32.442 474.219 33.6611C474.334 33.6611 474.449 33.6611 474.564 33.6841L474.886 37.6058H470.918C470.964 32.373 471.01 27.1173 471.056 21.873V21.8845Z" fill="#0F0F0F"/>
<path d="M473.207 21.6426C474.932 22.0681 476.668 22.4821 478.393 22.8847C478.416 24.4257 478.417 25.9668 478.417 27.4849C476.898 27.1053 475.38 26.7143 473.839 26.3118C473.839 27.1743 473.839 28.0139 473.816 28.8879L473.207 21.6426Z" fill="#0F0F0F"/>
<path d="M501.417 106.632C501.428 107.345 501.44 108.069 501.451 108.782C500.347 109.426 499.243 110.082 498.139 110.726C497.012 110.657 495.897 110.6 494.77 110.531L494.16 106.77C496.564 106.724 499.002 106.678 501.405 106.632H501.417Z" fill="#0F0F0F"/>
<path d="M500.781 56.6162C500.827 58.1573 500.873 59.6983 500.942 61.2394C499.987 61.1704 498.998 61.0784 498.044 60.9864L497.273 56.7082C498.446 56.6622 499.608 56.6392 500.781 56.6162Z" fill="#0F0F0F"/>
<path d="M471.617 56.0293C473.112 56.1213 474.607 56.2133 476.102 56.3053C479.403 56.5123 482.715 56.7308 486.016 56.9608H486.315L486.855 60.3075H472.089C471.928 58.8814 471.767 57.4554 471.617 56.0293Z" fill="#0F0F0F"/>
<path d="M490.988 86.4023L497.256 86.4944L500.361 95.0737L497.843 102.745H493.656L493.139 99.7314H495.427L496.934 95.1198L494.898 89.4615L491.483 89.4155L490.988 86.4023Z" fill="#0F0F0F"/>
<path d="M472.413 86.1494L478.532 86.2414L478.796 89.2546L472.367 89.1625L472.413 86.1494Z" fill="#0F0F0F"/>
<path d="M472.298 41.4463L474.724 41.4693L475 44.977C474.701 45.9775 474.391 46.9666 474.069 47.9671C474.368 48.8296 474.655 49.7152 474.932 50.5892C475.116 50.6122 475.276 50.6122 475.472 50.6122V50.6352L475.725 53.6253H472.079L470.492 47.1505L472.286 41.4463H472.298Z" fill="#0F0F0F"/>
<path d="M499.129 65.9775L500.647 66.8401V74.3499L499.129 65.9775Z" fill="#0F0F0F"/>
<path d="M476.54 62.7109H476.701L477.104 67.5527C475.885 68.4842 474.7 69.4273 473.504 70.3588C473.906 72.9809 474.32 75.5685 474.746 78.1907C475.85 78.1907 476.92 78.2137 478.024 78.2137L478.254 81.2268L470.468 81.1578L470.215 69.2433L476.552 62.7224L476.54 62.7109Z" fill="#0F0F0F"/>
<path d="M476.309 97.4191C476.056 100.064 475.814 102.721 475.561 105.366C477.102 105.32 478.644 105.297 480.185 105.274L480.461 108.402H475.55C475.757 111.047 475.975 113.704 476.205 116.372C474.871 116.372 473.537 116.395 472.215 116.395V97.373C473.572 97.396 474.929 97.4191 476.309 97.4191Z" fill="#0F0F0F"/>
<path d="M494.173 105.896L494.782 109.656C492.746 109.518 490.734 109.403 488.733 109.277H480.487L480.211 106.149C484.857 106.057 489.538 105.965 494.184 105.896H494.173Z" fill="#0F0F0F"/>
<path d="M478.531 85.3672L490.986 85.5282L491.481 88.5413L478.796 88.3803L478.531 85.3672Z" fill="#0F0F0F"/>
<path d="M478.016 79.0762C481.983 79.0992 485.962 79.1222 489.93 79.1682L490.425 82.1813L478.246 82.0893L478.016 79.0762Z" fill="#0F0F0F"/>
<path d="M487.905 66.6901C485.19 66.5751 482.488 66.4601 479.774 66.345C478.888 67.0466 478.003 67.7481 477.106 68.4266L476.703 63.5849L487.364 63.3779L487.905 66.7016V66.6901Z" fill="#0F0F0F"/>
<path d="M475.473 50.6357C478.67 50.8198 481.901 51.0383 485.098 51.2453L485.501 53.6259H475.737L475.484 50.6357H475.473Z" fill="#0F0F0F"/>
<path d="M474.723 40.5957L483.532 40.7107L484.004 43.6318C481.06 43.6548 478.092 43.6548 475.148 43.6548C475.102 43.7929 475.056 43.9538 475.01 44.1033L474.734 40.5957H474.723Z" fill="#0F0F0F"/>
<path d="M474.472 29.0264L474.794 32.695C474.679 32.672 474.564 32.672 474.449 32.672C474.472 31.453 474.472 30.2454 474.472 29.0264Z" fill="#0F0F0F"/>
<path d="M484.958 119.846C488.857 120.225 492.744 120.616 496.62 120.996L497.183 124.434C494.262 124.158 491.364 123.848 488.443 123.572C488.845 128.195 489.236 132.83 489.662 137.43C487.373 137.453 485.108 137.476 482.842 137.499L482.543 133.968C483.831 134.037 485.119 134.083 486.396 134.152C485.924 129.38 485.464 124.618 484.97 119.846H484.958Z" fill="#0F0F0F"/>
<path d="M479.82 98.8457H493.138L493.655 101.859H480.004C479.958 100.858 479.889 99.8462 479.82 98.8457Z" fill="#0F0F0F"/>
<path d="M492.791 64.1602L499.128 67.7368L500.646 76.1092V83.1475L490.434 83.0785L489.939 80.0654C492.182 80.0654 494.448 80.0884 496.69 80.1114C496.437 76.9372 496.173 73.7516 495.92 70.5775C494.816 69.6459 493.723 68.7259 492.596 67.7943C491.032 67.7253 489.468 67.6563 487.904 67.5873L487.363 64.2637L492.78 64.1717L492.791 64.1602Z" fill="#0F0F0F"/>
<path d="M497.276 57.582L498.047 61.8602C495.333 61.6532 492.653 61.4117 489.962 61.1817H486.857L486.316 57.835C489.985 57.743 493.631 57.651 497.276 57.582Z" fill="#0F0F0F"/>
<path d="M483.535 40.7109L491.413 40.8259L493.678 47.1397L491.85 52.752H485.49L485.087 50.3714C485.996 50.4404 486.916 50.4864 487.825 50.5554C488.526 49.4513 489.228 48.3818 489.952 47.2777C489.366 46.0587 488.802 44.8511 488.25 43.632H483.995L483.523 40.7109H483.535Z" fill="#0F0F0F"/>
<path d="M478.879 118.615V119.213H479.477V118.615H478.879Z" fill="#0F0F0F"/>
<path d="M491.594 85.3668V85.9648H492.192V85.3668H491.594Z" fill="#0F0F0F"/>
<path d="M499.426 110.53C500.093 110.587 500.76 110.656 501.427 110.714C501.438 110.231 501.45 109.759 501.461 109.276C500.783 109.69 500.104 110.104 499.426 110.518V110.53Z" fill="#0F0F0F"/>
<path d="M501.082 20.9411C501.047 21.2976 501.024 21.6426 500.989 21.9991C500.598 21.6196 500.207 21.2516 499.816 20.8721C500.242 20.8951 500.656 20.9181 501.082 20.9411Z" fill="#0F0F0F"/>
<path d="M501.531 137.476C501.83 137.142 502.118 136.797 502.417 136.464C502.428 136.809 502.44 137.154 502.451 137.487C502.141 137.487 501.83 137.487 501.531 137.476Z" fill="#0F0F0F"/>
<path d="M155.414 133.508C155.299 137.533 155.161 141.558 155.046 145.572C122.338 147.722 89.6192 149.884 56.9117 152.023C56.8772 146.71 56.8314 141.385 56.7969 136.072L155.425 133.496L155.414 133.508Z" fill="#292826"/>
<path d="M142.095 21.4697C147.569 25.4029 153.032 29.3246 158.506 33.2578C154.987 37.2139 151.468 41.1701 147.948 45.1263C118.024 49.4735 88.0881 53.8207 58.1638 58.1679C58.1178 53.6597 58.0831 48.9905 58.0486 44.4708C58.0141 39.9051 57.9798 35.3394 57.9453 30.7736C85.9951 27.6685 114.045 24.5749 142.095 21.4697Z" fill="#292826"/>
<path d="M22.4071 19.6867L11.3438 21.2968C11.3783 18.0537 11.4129 14.8105 11.4474 11.5674C15.093 14.27 18.7614 16.9841 22.4071 19.6867Z" fill="#0F0F0F"/>
<path d="M60.7017 136.084L34.8485 136.763C25.2571 131.128 15.6657 125.481 6.07422 119.846C6.26973 101.859 6.44221 83.895 6.62622 65.9082L29.6503 62.5615L60.2188 74.5221C60.3568 95.0505 60.5292 115.556 60.6902 136.073L60.7017 136.084Z" fill="black"/>
<path d="M20.1184 62.3084C15.0007 62.9639 9.88314 63.6309 4.75391 64.2865C4.77691 62.6534 4.78846 61.0088 4.81147 59.3643C9.9177 60.3418 15.0122 61.3193 20.1184 62.3084Z" fill="#0F0F0F"/>
<path d="M62.1974 74.533L31.6289 62.5724L62.0823 58.1562C62.1053 63.6075 62.1399 69.0818 62.1974 74.533Z" fill="#0F0F0F"/>
<path d="M52.9761 152.035C44.3277 146.94 35.6562 141.869 27.0078 136.763L52.8612 136.084C52.8957 141.397 52.9416 146.722 52.9761 152.035Z" fill="#0F0F0F"/>
<path d="M71.3225 9.49735C55.2908 11.809 39.2593 14.1205 23.2275 16.4207C18.8458 13.2465 14.4639 10.0724 10.0938 6.90973C27.218 5.27666 44.3425 3.6321 61.4668 1.99902C64.7559 4.49464 68.0449 7.00174 71.3225 9.49735Z" fill="#787D80"/>
<path d="M122.82 7.84159C108.973 9.45167 95.1266 11.0502 81.2684 12.6603C77.9563 10.1417 74.644 7.62308 71.3203 5.10446C85.8455 4.05792 100.359 3.01139 114.884 1.96484C117.53 3.91993 120.163 5.8865 122.808 7.84159H122.82Z" fill="#787D80"/>
<path d="M158.504 33.2463C124.979 37.6395 91.467 42.0442 57.943 46.4374C46.0975 37.6625 34.2518 28.8761 22.4062 20.1012L121.403 5.72559C126.958 9.85427 135.606 16.2716 141.161 20.3887C145.646 23.7124 154.018 29.9227 158.504 33.2348V33.2463Z" fill="#787D80"/>
<path d="M56.7824 67.4719C38.6921 63.8032 20.6018 60.1345 2.5 56.4658C2.6035 45.7359 2.71854 35.0059 2.82205 24.2644L19.9462 21.7803C31.7917 30.5552 43.6372 39.3301 55.4827 48.1165C55.9197 54.5683 56.3454 61.0201 56.7824 67.4719Z" fill="black"/>
<path d="M166.613 43.8955C165.9 67.2991 165.175 90.6796 164.462 114.083L66.6503 75.0964C66.5928 69.6452 66.5582 64.1709 66.5352 58.7197L166.613 43.8955Z" fill="#292826"/>
<path d="M71.8825 138.43L62.4636 138.672C62.4176 132.715 62.2681 113.854 62.2221 107.896C62.1416 97.638 62.0612 87.3796 61.9922 77.1211C76.1608 82.6643 90.3179 88.1961 104.487 93.7393C93.6186 108.632 82.7505 123.537 71.8825 138.43Z" fill="#292826"/>
<path d="M111.224 92.8535C100.747 106.367 90.2817 119.891 79.8047 133.404C108.475 132.68 137.158 131.944 165.829 131.219C165.967 125.618 166.104 120.029 166.231 114.428C147.899 107.241 129.556 100.041 111.224 92.8535Z" fill="#292826"/>
<path d="M162.734 133.508H158.008V137.821H162.734V133.508Z" fill="#292826"/>
<path d="M158.307 36.6162C155.8 39.2843 153.304 41.964 150.797 44.6321C153.281 44.2871 155.777 43.942 158.261 43.597C158.272 41.2739 158.295 38.9393 158.307 36.6162Z" fill="#292826"/>
</svg>
